<svg xmlns="http://www.w3.org/2000/svg" viewBox="0 0 500 500"><path d="m98.2 55.8-11.5 57.9h300.9a9.4 9.4 0 0 1 9.4 9.4c0 .8-.1 1.5-.3 2.3l-9.8 49a9.4 9.4 0 0 1-9.2 7.6H73.3l-11.5 57.4h300.8a9.4 9.4 0 0 1 9.1 11.6l-17.3 87.2a9.4 9.4 0 0 1-7.1 7.3l-125 41.6a9.3 9.3 0 0 1-6.2-.2l-109.4-41.8a9.4 9.4 0 0 1-5.7-11.4l5.2-25.9H48.7l-15.3 77 169.7 64.6 199.5-65.9L468 55.8H98.2Zm-32.1 65.5L81 45a9.4 9.4 0 0 1 9.4-8h389l1.8.1c5 1 8.4 6 7.4 11L420 392.7c-.7 3.2-3 6-6.3 7l-207.9 68.7a9.4 9.4 0 0 1-6.3-.1l-180-68.6a9.4 9.4 0 0 1-6-10.7L31.6 297c.7-4.5 4.6-8 9.4-8h76.7a9.6 9.6 0 0 1 1.8.2c5.1 1 8.4 6 7.4 11l-6 30.2 98.8 37.8 117.3-39 14.1-71H50.3a10.4 10.4 0 0 1-1.8-.1c-5.1-1-8.4-6-7.4-11.1l15.2-76a9.4 9.4 0 0 1 9.2-7.9H370l6.1-30.6H75.3a10.1 10.1 0 0 1-1.8-.2c-5.1-1-8.4-6-7.4-11Z" style="fill:#9c8aff"/></svg>