<svg xmlns="http://www.w3.org/2000/svg" viewBox="0 0 500 500"><path d="M98.219 55.759 86.73 113.68h300.821a9.41 9.41 0 0 1 9.409 9.41c0 .789-.102 1.551-.288 2.285l-9.725 48.995c-.874 4.486-4.811 7.598-9.223 7.598l-304.471.009-11.471 57.449h300.792c5.193 0 9.41 4.217 9.41 9.418 0 .734-.084 1.449-.242 2.137l-17.369 87.17c-.744 3.734-3.604 6.502-7.087 7.319L222.33 387.073a9.333 9.333 0 0 1-6.279-.139l-109.323-41.845c-4.598-1.745-7.032-6.724-5.685-11.377l5.202-25.906H48.676l-15.233 76.982 169.641 64.637 199.523-65.892L467.96 55.759H98.219Zm-32.165 65.529 15.14-76.322a9.416 9.416 0 0 1 9.316-8.026h388.921c.612 0 1.216.056 1.839.186 5.09 1.013 8.396 5.964 7.384 11.062l-68.659 344.393c-.65 3.214-2.954 6-6.289 7.096l-207.899 68.659a9.38 9.38 0 0 1-6.289-.149L19.427 399.566a9.414 9.414 0 0 1-5.972-10.626l18.186-91.917c.669-4.542 4.588-8.035 9.316-8.035h76.731v.047a9.61 9.61 0 0 1 1.839.176c5.071 1.012 8.359 5.954 7.347 11.025l-6.046 30.122 98.827 37.859 117.33-39.067 14.127-70.897H50.311a10.408 10.408 0 0 1-1.839-.186c-5.09-1.012-8.397-5.972-7.385-11.062l15.177-76.006c.743-4.45 4.616-7.849 9.279-7.849h304.462l6.093-30.652H75.287a10.119 10.119 0 0 1-1.812-.185c-5.09-.995-8.415-5.935-7.421-11.025Z" style="fill:#9c8aff"/></svg>
