<svg xmlns="http://www.w3.org/2000/svg" width="92pt" height="92pt" viewBox="0 0 92 92"><defs><clipPath id="a"><path d="M0 .1h91.9V92H0Zm0 0"/></clipPath></defs><g clip-path="url(#a)"><path d="M90.2 42 50 1.8a6 6 0 0 0-8.3 0l-8.4 8.4L44 20.7a7 7 0 0 1 7.2 1.7 7 7 0 0 1 1.7 7.3L63 40a7 7 0 0 1 7.3 1.7 7 7 0 0 1 0 10 7 7 0 0 1-10 0 7 7 0 0 1-1.5-7.7l-9.5-9.5v25A7 7 0 0 1 51 70.7a7 7 0 0 1-10 0 7 7 0 0 1 0-10 7 7 0 0 1 2.4-1.5V33.9a7 7 0 0 1-3.8-9.2L29.2 14.3 1.7 41.8a6 6 0 0 0 0 8.3L42 90.3a6 6 0 0 0 8.3 0l40-40a6 6 0 0 0 0-8.3" style="stroke:none;fill-rule:nonzero;fill:#9c8aff;fill-opacity:1"/></g></svg>