<svg xmlns="http://www.w3.org/2000/svg" xml:space="preserve" width="800" height="800" viewBox="0 0 512 512"><path d="M253.5 94.9c-23.7 16.6-50.5 35.5-64.9 66.7-25 54.4 51 113.8 54.3 116.3a4.2 4.2 0 0 0 5.3-.1 4.2 4.2 0 0 0 1-5.2c-.3-.5-27.5-53.5-26.5-91.5.3-13.3 18.9-28.3 38.5-44.2 18-14.6 38.3-31 50.2-50.4 26.2-42.5-2.9-84.3-3.2-84.7a4.2 4.2 0 0 0-5-1.4 4.2 4.2 0 0 0-2.5 4.7c0 .3 5.7 27.9-10 56.4-6.5 11.7-20.7 21.8-37.2 33.4z" style="fill:#9c8aff"/><path d="M353.1 113.6a4.2 4.2 0 0 0-4-7.3c-4 1.6-98.4 38-98.4 82 0 30.2 13 46.2 22.4 58 3.7 4.5 7 8.5 8 11.9 3 9.7-4.1 27.3-7 33.3a4.2 4.2 0 0 0 6.1 5.3c1.6-1.1 39.7-28 32.8-60.4-2.5-12.4-8.6-21.4-13.9-29.3-8.3-12.3-14.2-21.2-5.2-37.6 10.6-19.2 58.8-55.5 59.2-55.9z" style="fill:#9c8aff"/><path d="M107.4 298.2c-1.6 4.9-.8 9.7 2.2 14 10.3 14.1 46.5 22 102 22h.1c7.5 0 15.5-.2 23.6-.5 88.9-3.2 121.9-30.8 123.2-32a4.2 4.2 0 0 0-3.8-7.2C323.4 303 264.9 306 224.4 306c-45.4 0-68.5-3.2-74.1-5.6 2.9-4 20.8-11.1 43-15.5a4.2 4.2 0 0 0-.9-8.3c-13 0-78.2 1-85 21.6zm297.4-28.5a87.7 87.7 0 0 0-36.4 9.6 4.2 4.2 0 0 0 2 7.9c.3 0 39 .3 42.6 22.4 3 19.1-36.7 50-52.3 60.3a4.2 4.2 0 0 0 3.2 7.6c3.7-.8 90.4-19.9 81.3-70.3-5.6-31-25-37.5-40.4-37.5zm-59.5 94a4.2 4.2 0 0 0-1.7-4.2L322.8 345a4.2 4.2 0 0 0-3.4-.6c-.3 0-22 5.7-53.6 9.2a371.5 371.5 0 0 1-40.6 2.2c-31.5 0-52.1-3.7-55.1-6.4-.4-.8-.3-1.1-.3-1.3.6-1.6 3.5-3.4 5.4-4a4.2 4.2 0 0 0-2.4-8c-20.9 5-31 12-30.3 20.8 1.3 15.7 37.6 23.8 68.3 25.9 4.4.3 9.2.4 14.2.4 51.1 0 116.6-16 117.2-16.1a4.2 4.2 0 0 0 3.1-3.3zm-156.7 33.7a4.2 4.2 0 0 0 1.7-4.7c-.5-1.8-2.2-3-4.1-3-2.8 0-27.4 1.2-29 16.8-.6 4.7.7 9 4 12.7 8.7 10.5 32.5 16.7 72.7 19 4.7.3 9.5.4 14.3.4 51 0 85.4-16 86.8-16.6a4.2 4.2 0 0 0 .4-7.4l-26.3-16a4.2 4.2 0 0 0-3-.6c-.2 0-16.9 3.5-42 7-4.8.6-10.8 1-17.8 1-25.1 0-53.1-4.2-58.5-6.9 0-.5 0-1.1.8-1.7z" style="fill:#9c8aff"/><path d="M224.4 486.9c116.9-.1 179.6-21 191.7-34 4.2-4.6 4.7-9 4.3-11.9-.9-7-7.3-11.3-8-11.8a4.2 4.2 0 0 0-5.5.8 4.1 4.1 0 0 0 0 5.4c.7 1 1.2 2.5-1 4.7-4.8 4.5-53.5 18.2-134.7 22.3-11 .6-22.7.9-34.6.9-72.6 0-125.8-10-132.7-15.7 2.7-4 21.5-10 41.4-13.6a4.2 4.2 0 0 0-1.2-8.3l-4.7.4c-33 2-71.1 6.5-73.1 23.5-.6 5.1.9 9.8 4.5 14 9 10 34.6 23.2 153.6 23.2z" style="fill:#9c8aff"/><path d="M439 456.6a4.2 4.2 0 0 0-4.8 1c-.2.1-17.8 18.5-70.6 29.3-20.2 4-58.2 6-112.8 6-54.8 0-106.9-2-107.4-2-2.1-.2-4 1.4-4.3 3.5a4.2 4.2 0 0 0 3.2 4.7c.5.1 55.1 12.9 129.8 12.9 35.8 0 70.6-3 103.5-8.6 61.4-10.8 65.7-41.2 65.8-42.5a4.2 4.2 0 0 0-2.4-4.3z" style="fill:#9c8aff"/></svg>