<svg xmlns="http://www.w3.org/2000/svg" class="svg-icon" style="width:1em;height:1em;vertical-align:middle;fill:currentColor;overflow:hidden" viewBox="0 0 1024 1024"><path fill="#9c8aff" d="M128 128h768v768H128V128m201.8 641.7c17 36.3 50.8 66.1 108.4 66.1 64 0 108-34 108-108.8V480.4h-72.6v245c0 36.6-15 46-38.4 46-24.7 0-35-17-46.5-37.1l-58.9 35.4M585 762c21.3 41.8 64.4 73.8 131.8 73.8 68.3 0 119.5-35.4 119.5-100.7 0-60.1-34.6-87-96-113.4l-18-7.7c-31.1-13.3-44.3-22.2-44.3-43.5 0-17.5 13.2-31.2 34.5-31.2 20.5 0 34.2 9 46.5 31.2l56-37.2c-23.5-41-56.8-56.7-102.5-56.7-64.4 0-105.8 41-105.8 95.1 0 59 34.6 86.6 86.6 108.8l18 7.7c33.2 14.5 52.9 23.5 52.9 48.2 0 20.5-19.2 35.4-49.1 35.4-35.4 0-55.9-18.3-71.3-44L585 762z"/></svg>