<svg xmlns="http://www.w3.org/2000/svg" class="svg-icon" style="width:1em;height:1em;vertical-align:middle;fill:currentColor;overflow:hidden" viewBox="0 0 1024 1024"><path fill="#9c8aff" d="M469 760.5c-4.8-3.2-9.3-6.8-13.6-10.6-4.4-3.7-8.6-7.7-12.8-11.7-8.2-8-16-16.6-23.5-25.4-7.5-8.9-14.5-18-21.4-27.4a550.6 550.6 0 0 1-19.5-28.7 697.6 697.6 0 0 1-34.3-60.5 873.5 873.5 0 0 1-15.1-31.3 937.6 937.6 0 0 1-13.8-32l19.8 2.4a263 263 0 0 1-8 11.6 170 170 0 0 1-4.3 5.7c-1.5 2-3 3.9-5 5.9l.7-.8c.1 0 0 .1 0 .2l-.2.2-.4.6-.9 1.2a84.3 84.3 0 0 0-1.6 2.6 98.9 98.9 0 0 0-3.2 5.6 108.4 108.4 0 0 0-5.2 11.6c-3.1 8-5.2 16.2-6.2 24.5a95 95 0 0 0-.5 6.2V612l-.1.7-.2 1.8-.3 3.6-1.2 14.2-2.5 28.5-.9 9.4-9.1 3.2-1 .4-.5.1-.9.2a22.7 22.7 0 0 1-3.6.5 26 26 0 0 1-4 0 29.4 29.4 0 0 1-6.7-1.5c-4-1.4-7.1-3.3-9.8-5.2-5.4-4-9.1-8.2-12.3-12.5-3.3-4.3-5.9-8.5-8.3-12.8-2.3-4.3-4.4-8.6-6.3-13a214.1 214.1 0 0 1-2.7-6.4l-1.3-3.2-.7-2-.6-1.7a234.8 234.8 0 0 1-4-13.3 305.8 305.8 0 0 1-6-26.7 286 286 0 0 1-4.6-55c.3-18.5 2.6-37.3 7.6-55.7l.2-.6.6-1.5 1.5-4 1.5-4a453.6 453.6 0 0 0 3-8.3c1.8-5.5 3.6-11 5.1-16.5 1.6-5.4 3-10.8 3.8-15.7a42 42 0 0 0 .7-6.8 14.5 14.5 0 0 0 3.1 6.5l-2-2.5-1.3-3 .2.6v-.1l-.4-.6a26.7 26.7 0 0 0-1-1.4 37.3 37.3 0 0 0-2.7-3.1c-2-2.1-4.3-4.2-6.8-6l-1.8-1.3-1.5-1.8-1.3-1.6-1-1.3-2-2.5a192.4 192.4 0 0 1-3.7-5 230.5 230.5 0 0 1-6.8-10.1 257.2 257.2 0 0 1-11.9-20.9 273.8 273.8 0 0 1-18-44.4 268.9 268.9 0 0 1-3.2-11.5l-.2-.8-.1-.3v-.1l.1.6-.4-1.3-.7-2.5-1.6-5a511.8 511.8 0 0 0-6.7-20A322.1 322.1 0 0 0 153 241a79 79 0 0 0-4.2-7.4l-2.3-3.2-3.3-4.4-6.5-8.7a1961.3 1961.3 0 0 0-13.2-17.3l-6.6-8.5-6.5-8.1-1.5-1.8-.7-.9-.2-.2-.8-1-.2-.1-.6-.8a110.9 110.9 0 0 1-4.1-5.8c-2.6-3.8-5-7.7-7.2-12a78.8 78.8 0 0 1-5.7-14.9 46.8 46.8 0 0 1-1.5-20.7 40.8 40.8 0 0 1 22.3-30.8h.2l.2-.1.8-.4a33.4 33.4 0 0 1 1.3-.6 36.8 36.8 0 0 1 1.9-.7 41.3 41.3 0 0 1 3.1-1 48.6 48.6 0 0 1 5.5-1.1 64 64 0 0 1 17.8 0c5.3.7 10.2 1.9 14.7 3.3 9.2 2.9 17.2 6.6 24.7 10.7l-2.3-1.1 4.2 1.8 4 1.8a388.9 388.9 0 0 1 8 3.7 376 376 0 0 1 16 8.1c5.3 2.9 10.6 5.9 16 9.4a146 146 0 0 1 8.2 5.7 91 91 0 0 1 8.8 7.3l.7.7.9 1-.4-.4h.1a12.2 12.2 0 0 0 1.8 1.5 13.5 13.5 0 0 0 2.6 1.4c.8.3 1.5.4 2.2.5h2l2.2-.3h1.9l4.4.2 4.3.3a547.1 547.1 0 0 1 25.8 2 257 257 0 0 1 27.8 4.6A83.1 83.1 0 0 1 332 157l-2.8-1.1 2 .7 1.8.7 3.4 1.3 6.5 2.6a404.3 404.3 0 0 1 12.6 5.6 478.8 478.8 0 0 1 24.5 12.3 505 505 0 0 1 90 61.5 475.8 475.8 0 0 1 20.3 18.4 474 474 0 0 1 9.7 9.7l2.4 2.5 1.2 1.2c-.2-.2.8.8-.6-.5l.2.2.4.4.7.6a282.8 282.8 0 0 1 5 5.1 468 468 0 0 1 18.2 20.5 557.7 557.7 0 0 1 17 21.2 545.4 545.4 0 0 1 30.7 44.7 487.9 487.9 0 0 1 26 47.8 421 421 0 0 1 20.3 51l-.8-2a4216 4216 0 0 0 17 39l17.5 38.8c5.9 12.8 11.8 25.6 18 38a437.1 437.1 0 0 0 4.6 9.1l1.2 2.2.3.6.1.2-.4-.7.1.2.6 1 2.7 4.4a288.7 288.7 0 0 0 5.5 8.4 123.9 123.9 0 0 0 3.5 4.9c0 .1.2.2 0 .1l-.2-.3c-.2 0-.5-.4-1-.8l-2-1.2h.2l.2.1.4.3 1 .6 2.1 1.1 4.4 2.3a146.2 146.2 0 0 0 9 4c6.2 2.6 12.4 4.6 18.4 6l1.9.4 1 .4 26 10.3 13 5.3 6.7 2.8 3.4 1.4 1.8.9 1 .4 1.5.7 1 .5.8.6a4825.8 4825.8 0 0 1 30 20.8 1687.7 1687.7 0 0 1 30 21.4l-1.1-.8 3 2 3 1.9a308.4 308.4 0 0 1 5.7 3.9c3.8 2.6 7.6 5.3 11.4 8.3 3.7 3 7.5 6 11.3 9.7a62 62 0 0 1 9 11.6 26.5 26.5 0 0 1 1.7 3.6c.5 1.4 1 3.2 1.2 5.3l1.5 17.5-17.2-1h-1.6l-1.8-.2-3.6-.1-7.2-.2a405.2 405.2 0 0 0-14.4 0c-9.7.2-19.3.8-28.8 1.7-9.6 1-19 2.3-28.2 4.3s-18.1 4.5-26.4 8l-1.5.6-1.6.3h-.4l-.5.1-1 .2a36.4 36.4 0 0 0-6 1.8l-2.3 1.2-.2.2.1-.6-2.1-9.9.4.5.2.4.5.6a37.8 37.8 0 0 1 2.3 3.7 55.5 55.5 0 0 1 2.4 5 58 58 0 0 1 3.3 10.3l-1.1-2.8 1.6 2.8 1.7 2.9a238.2 238.2 0 0 0 3.7 5.7c2.4 3.8 5 7.5 7.7 11a114.7 114.7 0 0 0 12.7 14.3c1.5 1.3 3 2.3 4.4 3l1.5 1 1 1 .2.2.3.4.7.7a58.3 58.3 0 0 0 1.5 1.5 94.2 94.2 0 0 0 3.4 3 163.8 163.8 0 0 0 7.2 5.9c5 3.8 10.1 7.4 15.5 10.8a428 428 0 0 0 33.2 19.3l8.7 4.4a336.2 336.2 0 0 1 8.7 4.8 333.6 333.6 0 0 1 33 21.5c5.3 4 10.4 8.1 15.1 12.8l-.2-.2a165.9 165.9 0 0 1 5 4 158.8 158.8 0 0 1 4.7 4.3 94 94 0 0 1 4.6 4.5c1.4 1.5 2.9 3.1 4.1 4.9l-.2-.2 8.3 4.5-8.7-3.5h-.1l-.1-.2a108 108 0 0 0-9.4-8.2 154.9 154.9 0 0 0-5-3.7 163.2 163.2 0 0 0-5.2-3.4l-.2-.2c-10-8-21.1-14.5-32.5-20.4a384.7 384.7 0 0 0-17.3-8.5 324.2 324.2 0 0 0-8.8-4l-9-3.6c-12.1-5.1-24-10.7-35.8-17a257.6 257.6 0 0 1-25.6-16 112.2 112.2 0 0 1-4.2-3.3 72 72 0 0 1-2-1.8l-1.1-1-.6-.4-.2-.3-.4-.4 2.6 2c-3-1.4-5.4-3-7.6-4.6a131.7 131.7 0 0 1-16.8-16c-3.2-3.8-6.3-7.6-9.3-11.5a257.6 257.6 0 0 1-4.3-6 182.8 182.8 0 0 1-2.1-3 146 146 0 0 1-2.2-3.2l-.6-1-.5-1.8a37.1 37.1 0 0 0-2.6-6.4 34 34 0 0 0-1.7-3 28 28 0 0 0-1-1.3l-.4-.6-.2-.2v-.1l-3.6-4.3 1.5-5.5a20.3 20.3 0 0 1 2.6-5.8 23.4 23.4 0 0 1 3.5-4.3c2.5-2.3 5-3.9 7.3-5.1a49 49 0 0 1 7-3 58 58 0 0 1 5.3-1.5l1-.2.4-.1.7-.1-3.2 1c9.8-5 20-8.6 30.2-11.4a282 282 0 0 1 30.7-6.5 394.6 394.6 0 0 1 54.1-4.7h8L857 734a9.1 9.1 0 0 0 .4 2.1l.2.7-.5-.6-3-3c-2.6-2.3-5.8-4.7-9-7l-10.3-6.7a285.3 285.3 0 0 0-5.3-3.2l-2.7-1.6-2.6-1.4-.2-.2-1-.6-15-9.7-15.2-9.8a4711.6 4711.6 0 0 0-30.7-19.3l1.8 1-5-1.9-6.4-2.3-13-4.7-26.2-9.2 3 .8c-8.8-1.6-17-4-25-7A184.7 184.7 0 0 1 674 643l-2.9-1.4-1.5-.8-.7-.4-1-.6-.8-.4-1-.8a27.6 27.6 0 0 1-2-1.7l-.8-.6-.6-.6a45.5 45.5 0 0 1-1.7-1.8 74.7 74.7 0 0 1-2.4-3 141.2 141.2 0 0 1-3.8-5 323 323 0 0 1-6.5-9.3l-3.1-4.7-.8-1.2-.1-.1v-.1l-.6-.9-.2-.3-.3-.6-1.5-2.5a477.2 477.2 0 0 1-5.4-9.8c-7-13-13.4-25.9-19.8-38.8a3042 3042 0 0 1-18.7-38.8 4251.9 4251.9 0 0 1-18.3-39l-.3-.7-.5-1.3a423.1 423.1 0 0 0-43.5-88c-9-14-18.6-27.4-28.8-40.4a510.2 510.2 0 0 0-15.7-19.2c-5.4-6.2-11-12.3-16.6-18a237 237 0 0 0-4.1-4.2l-.5-.5-.2-.2-1-.9-1-1-2.2-2.3a421.7 421.7 0 0 0-8.7-8.5A426.8 426.8 0 0 0 438 278a462.9 462.9 0 0 0-39.3-29.6 478.7 478.7 0 0 0-42.3-25.4 428.3 428.3 0 0 0-22-11 355.2 355.2 0 0 0-11-4.8 280.9 280.9 0 0 0-5.5-2.3l-2.7-1-2.3-.9-1.6-.6-1.2-.5-.9-.3-2.2-.7a208.6 208.6 0 0 0-20.6-3.4c-5-.5-10.2-1-15.3-1.3a488 488 0 0 0-7.8-.5l-3.9-.2-3.7-.2 4.1-.2a57.6 57.6 0 0 1-14.8 0 58.3 58.3 0 0 1-14.3-3.6 63.3 63.3 0 0 1-12.3-6.5 65.3 65.3 0 0 1-5.4-4.2 61.8 61.8 0 0 1-2.7-2.3 55 55 0 0 1-1.3-1.4l-.8-.8-.4-.4-.7-.8 1.6 1.7c-1-1-2.4-2.1-4-3.4a96.8 96.8 0 0 0-5.4-3.7c-4-2.6-8.2-5.1-12.7-7.5a326.7 326.7 0 0 0-13.7-7.1 442.7 442.7 0 0 0-7-3.4l-3.6-1.6-3.4-1.5-1.5-.6-.8-.5a87 87 0 0 0-15.6-7 42 42 0 0 0-6.7-1.7c-1.9-.3-3.6-.2-4-.2-.2 0-.2 0 0 0l.5-.2.6-.2.6-.3.6-.2c-.4.1 1.3-.7 0 0l.8-.7a8.8 8.8 0 0 0 2.5-4.8c.1-1 0-.4.3 1 .4 1.5 1.1 3.6 2.2 5.8 1 2.2 2.4 4.6 4 7a65.6 65.6 0 0 0 2.2 3.1l.2.3-.7-.8.2.2.2.3 1.1 1.3 2 2.4a452 452 0 0 1 7.2 9.2 887.5 887.5 0 0 1 6.7 9 2014 2014 0 0 1 13.2 18l6.5 9 3.3 4.5 1.8 2.5a81.7 81.7 0 0 1 2.1 3.2 210.9 210.9 0 0 1 11.5 23.2c3 7.4 5.7 14.7 8.2 22a555 555 0 0 1 7 22l1.5 5.5.8 2.8.4 1.4.3 1.1v.3l.2.6a223.4 223.4 0 0 0 2.5 9.7 229.3 229.3 0 0 0 14 37.5c3 6 6.1 12 9.5 17.7a187 187 0 0 0 5.3 8.3 148.3 148.3 0 0 0 2.7 4l1.4 1.8 1 1.4-3.2-3c4.4 3.4 8.5 7.2 12.3 11.6a78.2 78.2 0 0 1 5.6 7 66.5 66.5 0 0 1 2.5 4l1.3 2.3.7 1.3.4.8.2.4.3.9-3.3-5.5c2.8 3.4 4 6.4 4.9 8.9a32.3 32.3 0 0 1 1.4 6.1c.4 3.5.3 6 .2 8.4-.3 4.7-1 8.4-1.7 12-1.5 7.2-3.4 13.5-5.4 19.8a369.2 369.2 0 0 1-6.4 18.2 489.7 489.7 0 0 1-3.5 8.9L259 474l-1.9 4.5.8-2.1a193 193 0 0 0-8 46c-1 16-.2 32.1 2 48.2a271 271 0 0 0 4.2 23.8c.9 4 1.9 7.9 3 11.6l.6 2.4 1 2.9 2 5.5c2.8 7.3 6 14.3 9.8 19.8 1.8 2.7 3.8 5 5.3 6.2l1.4 1h-.4a7 7 0 0 0-.7 0 8.7 8.7 0 0 0-1.3.3l-.4.1h-.4l-.8.4-10 12.6 8.1-57.2c1.9-10.6 5.1-20.8 9.5-30.4a133.1 133.1 0 0 1 7.3-14 122.7 122.7 0 0 1 4.4-6.6 106.7 106.7 0 0 1 2.4-3.3l1.2-1.7.7-.8.9-1 .4-.5.2-.3a67 67 0 0 0 4-4 144 144 0 0 0 4-4.8 222.5 222.5 0 0 0 4-5 246 246 0 0 0 3.8-5l13-17.6 6.8 20a971 971 0 0 0 11.4 32 857.3 857.3 0 0 0 12.6 31.7 762.4 762.4 0 0 0 45.9 91.2 525.8 525.8 0 0 0 18.6 28.6 399 399 0 0 0 20.7 27.2 289.8 289.8 0 0 0 11.4 12.8c4 4.2 8 8.2 12.4 11.9z"/></svg>