<svg xmlns="http://www.w3.org/2000/svg" shape-rendering="geometricPrecision" text-rendering="geometricPrecision" viewBox="0 -101.5 512 512"><path fill="#9c8aff" stroke="#9c8aff" stroke-linecap="round" stroke-linejoin="round" stroke-width="20.48" d="M142.4 86.52h101.64v8.08H151.7v60.8h86.82v8.08h-86.82v66.76h93.39v8.08H142.4V86.52Zm110.74 0h10.8l47.86 66.76 48.91-66.76 66.53-84.8-109.3 158.57 56.32 78.03h-11.22L311.8 167.3l-51.46 71h-11.01l56.75-78.02-52.94-73.77ZM378.3 94.6v-8.08h115.83v8.08h-53.37v143.72h-9.31V94.6h-53.15ZM15.24 86.52h11.64l160.6 240.32-66.37-88.52L24.98 98l-.43 140.32h-9.31V86.52Z"/><path fill="#9c8aff" stroke="#9c8aff" stroke-width=".01" d="M142.4 86.52h101.64v8.08H151.7v60.8h86.82v8.08h-86.82v66.76h93.39v8.08H142.4V86.52Zm110.74 0h10.8l47.86 66.76 48.91-66.76 66.53-84.8-109.3 158.57 56.32 78.03h-11.22L311.8 167.3l-51.46 71h-11.01l56.75-78.02-52.94-73.77ZM378.3 94.6v-8.08h115.83v8.08h-53.37v143.72h-9.31V94.6h-53.15ZM15.24 86.52h11.64l160.6 240.32-66.37-88.52L24.98 98l-.43 140.32h-9.31V86.52ZM541.54 228.2"/></svg>