<svg xmlns="http://www.w3.org/2000/svg" viewBox="0 0 32 32"><g fill="none" fill-rule="evenodd"><path d="M0 0h32v32H0z"/><path fill="#9c8aff" d="M5.47 28a1.36 1.36 0 1 0-.1-.08l-.26-.24A15.95 15.95 0 0 1 0 15.98 16 16 0 0 1 15.98 0c4.48 0 8.53 1.86 11.44 4.84.65-.9 1.23-1.9 1.7-3.02 2.03 6.12 3.23 11.26 2.79 15.31a16 16 0 0 1-15.93 14.83A15.9 15.9 0 0 1 5.7 28.2l-.23-.2zM29.05 23c4-5.34 1.77-13.96-.09-19.48-1.66 3.45-5.74 6.1-9.26 6.93-3.3.79-6.23.14-9.28 1.32-6.97 2.68-6.86 11-3.02 12.86l.22.12s5.65-1.12 8.77-2.28c4.56-1.68 9.56-5.83 11.21-10.65-.88 5.01-5.18 9.84-9.5 12.05-2.3 1.19-4.1 1.45-7.89 2.76-.46.16-.82.31-.82.31.96-.16 1.91-.2 1.91-.2 5.4-.26 13.8 1.5 17.75-3.74z"/></g></svg>