<svg xmlns="http://www.w3.org/2000/svg" viewBox="0 0 500 500"><path d="m354.348 62.047-1.941 11.965c-2.997 22.68-1.911 29.167 6.306 37.582l7.94 7.775-8.221 43.391c-4.912 25.891-10.937 47.585-14.761 54.715-3.282 6.156-7.107 15.211-7.933 20.078-1.371 5.815-6.022 11.66-13.131 16.829-6.283 4.226-18.61 15.546-27.347 24.635-6.98 7.441-11.789 11.998-14.399 13.959l-8.53 7.983c-2.741 5.205-4.292 9.397-4.885 12.579-.594 3.275-.259 5.448.622 7.039.852 1.531 2.327 2.6 4.341 3.276 2.405.642 4.861.886 7.289.704 5.533-.46 11.012-1.625 16.336-3.427a73.534 73.534 0 0 0 4.472-1.621c1.915-2.789 6.333-8.052 14.163-17.2 20.786-24.273 28.719-37.554 20.525-33.967-3.022 1.281-1.655-1.959 3.54-8.447 10.962-12.641 17.241-31.737 30.371-91.626 10.393-47.28 10.393-47.953 18.042-47.953 3.594 0 13.754.735 13.754.735V62.047h-46.553Zm34.546 96.858c-1.654 0-4.393 2.94-6.022 6.181-2.996 5.816.541 9.361 45.673 42.721 26.803 20.107 48.412 37.242 47.869 38.562-.542.946-22.435 17.808-48.669 37.239-47.614 34.95-47.869 35.287-43.504 42.419 5.48 8.413 0 11.322 61.803-34.338l44.872-33.998V232.11l-50.069-36.607c-27.062-20.103-50.582-36.262-51.953-36.598Zm-281.39 3.582c-1.37 0-24.893 16.526-51.954 36.263L4.94 235.349v25.584l50.325 37.245c27.915 20.38 51.437 37.242 52.525 37.242 1.084 0 3.282-2.937 5.478-6.489 3.285-6.151.516-8.751-45.698-43.393-44.019-32.714-48.671-37.244-44.279-40.797 2.742-2.26 23.524-17.5 45.959-33.997 51.153-37.242 48.412-34.67 44.301-42.443-1.628-3.215-4.392-6.122-6.022-5.814h-.025Zm154.771.702c-7.546-.063-23.778 13.56-72.372 60.53-2.093 5.909-2.277 9.976-1.317 12.609.619 1.808 1.756 3.063 3.33 3.98 1.553.918 3.57 1.468 5.791 1.682 4.42.461 9.643-.369 13.856-1.348l2.843-.765c.982-1.558 2.248-2.815 3.722-3.611 2.999-1.957 15.586-15.545 28.176-30.11 22.15-26.564 27.349-38.56 18.325-42.446a4.716 4.716 0 0 0-2.326-.521h-.028Zm56.765 18.456c-6.644.212-18.612 9.331-39.108 28.7-10.289 9.886-16.802 15.211-20.293 16.313l-13.543 12.669c-5.091 11.015-5.843 17.843-4.497 21.606.697 1.871 1.962 3.333 3.566 4.1a14.782 14.782 0 0 0 6.205 1.379 49.19 49.19 0 0 0 14.989-2.603 89.62 89.62 0 0 0 7.522-2.815l.751-.366 1.37-.89c2.583-3.917 8.528-11.352 15.976-19.92 23.519-26.901 35.538-45.964 33.083-53.095-1.111-3.457-3.024-5.204-6.021-5.078Zm-62.657 33.05c-1.91.245-6.201 4.162-13.932 12.176-11.169 11.692-23.34 18.425-27.552 15.424-.959.244-1.942.487-2.95.734-4.291 1.01-9.64 1.839-14.42 1.38a16.78 16.78 0 0 1-6.515-1.928c-1.914-1.072-3.464-2.908-4.343-5.205-.955-2.751-.955-6.18.128-10.556L170 243.061l-38.024 37.242v60.381l124.587-116.2a15.149 15.149 0 0 1 .413-3.763c.96-4.101.907-6.183-.593-5.996v-.03Zm53.609 19.552c-1.885 0-5.04 3.155-10.081 9.489-6.85 8.66-17.63 17.044-23.34 18.758l-.877.552c-.933.427-1.888.856-2.844 1.283a89.448 89.448 0 0 1-5.894 2.083c-4.653 1.499-10.442 2.876-15.612 2.722a17.104 17.104 0 0 1-7.108-1.651c-2.122-1.042-3.825-3.029-4.758-5.509-1.502-4.252-.902-10.224 2.377-18.7L131.949 345.763v36.876h48.287l102.406-95.234c2.663-3.489 6.671-8.261 12.074-14.231 14.474-15.883 17.757-21.358 17.757-29.469 0-6.303-.596-9.487-2.481-9.487v.029Zm24.375 59.676-8.762 10.345c-4.913 5.507-13.673 12.301-19.672 15.209l-1.188.607-.079.158-.257.303c-.232.213-.338.213-.518.337a76.493 76.493 0 0 1-7.288 2.848c-5.453 1.864-11.089 3.063-16.803 3.52a23.758 23.758 0 0 1-8.01-.827c-2.274-.611-4.264-2.173-5.637-4.408-1.242-2.262-1.604-5.295-.903-9.026a39.503 39.503 0 0 1 2.456-7.653l-82.638 77.303h109.904l13.135-17.811c18.04-24.941 26.26-42.72 26.26-57.96v-12.945Z" style="fill:#9c8aff"/></svg>
