<?xml version="1.0" encoding="utf-8"?>
<svg viewBox="0 0 500 500" xmlns="http://www.w3.org/2000/svg">
  <path d="M 354.348 62.047 L 352.407 74.012 C 349.41 96.692 350.496 103.179 358.713 111.594 L 366.653 119.369 L 358.432 162.76 C 353.52 188.651 347.495 210.345 343.671 217.475 C 340.389 223.631 336.564 232.686 335.738 237.553 C 334.367 243.368 329.716 249.213 322.607 254.382 C 316.324 258.608 303.997 269.928 295.26 279.017 C 288.28 286.458 283.471 291.015 280.861 292.976 L 272.331 300.959 C 269.59 306.164 268.039 310.356 267.446 313.538 C 266.852 316.813 267.187 318.986 268.068 320.577 C 268.92 322.108 270.395 323.177 272.409 323.853 C 274.814 324.495 277.27 324.739 279.698 324.557 C 285.231 324.097 290.71 322.932 296.034 321.13 C 297.845 320.545 299.264 319.996 300.506 319.509 C 302.421 316.72 306.839 311.457 314.669 302.309 C 335.455 278.036 343.388 264.755 335.194 268.342 C 332.172 269.623 333.539 266.383 338.734 259.895 C 349.696 247.254 355.975 228.158 369.105 168.269 C 379.498 120.989 379.498 120.316 387.147 120.316 C 390.741 120.316 400.901 121.051 400.901 121.051 L 400.901 62.047 L 377.586 62.047 L 354.348 62.047 Z M 388.894 158.905 C 387.24 158.905 384.501 161.845 382.872 165.086 C 379.876 170.902 383.413 174.447 428.545 207.807 C 455.348 227.914 476.957 245.049 476.414 246.369 C 475.872 247.315 453.979 264.177 427.745 283.608 C 380.131 318.558 379.876 318.895 384.241 326.027 C 389.721 334.44 384.241 337.349 446.044 291.689 L 490.916 257.691 L 490.916 232.11 L 440.847 195.503 C 413.785 175.4 390.265 159.241 388.894 158.905 Z M 107.504 162.487 C 106.134 162.487 82.611 179.013 55.55 198.75 L 4.94 235.349 L 4.94 260.933 L 55.265 298.178 C 83.18 318.558 106.702 335.42 107.79 335.42 C 108.874 335.42 111.072 332.483 113.268 328.931 C 116.553 322.78 113.784 320.18 67.57 285.538 C 23.551 252.824 18.899 248.294 23.291 244.741 C 26.033 242.481 46.815 227.241 69.25 210.744 C 120.403 173.502 117.662 176.074 113.551 168.301 C 111.923 165.086 109.159 162.179 107.529 162.487 L 107.504 162.487 Z M 262.275 163.189 C 254.729 163.126 238.497 176.749 189.903 223.719 C 187.81 229.628 187.626 233.695 188.586 236.328 C 189.205 238.136 190.342 239.391 191.916 240.308 C 193.469 241.226 195.486 241.776 197.707 241.99 C 202.127 242.451 207.35 241.621 211.563 240.642 L 214.406 239.877 C 215.388 238.319 216.654 237.062 218.128 236.266 C 221.127 234.309 233.714 220.721 246.304 206.156 C 268.454 179.592 273.653 167.596 264.629 163.71 C 263.903 163.339 263.102 163.158 262.303 163.189 L 262.275 163.189 Z M 319.04 181.645 C 312.396 181.857 300.428 190.976 279.932 210.345 C 269.643 220.231 263.13 225.556 259.639 226.658 L 246.096 239.327 C 241.005 250.342 240.253 257.17 241.599 260.933 C 242.296 262.804 243.561 264.266 245.165 265.033 C 247.154 265.948 249.249 266.412 251.37 266.412 C 256.462 266.319 261.5 265.463 266.359 263.809 C 268.92 262.984 271.425 262.036 273.881 260.994 L 274.632 260.628 L 276.002 259.738 C 278.585 255.821 284.53 248.386 291.978 239.818 C 315.497 212.917 327.516 193.854 325.061 186.723 C 323.95 183.266 322.037 181.519 319.04 181.645 Z M 256.383 214.695 C 254.473 214.94 250.182 218.857 242.451 226.871 C 231.282 238.563 219.111 245.296 214.899 242.295 C 213.94 242.539 212.957 242.782 211.949 243.029 C 207.658 244.039 202.309 244.868 197.529 244.409 C 195.28 244.222 193.083 243.581 191.014 242.481 C 189.1 241.409 187.55 239.573 186.671 237.276 C 185.716 234.525 185.716 231.096 186.799 226.72 L 170 243.061 L 131.976 280.303 L 131.976 340.684 L 256.563 224.484 C 256.536 223.203 256.694 221.916 256.976 220.721 C 257.936 216.62 257.883 214.538 256.383 214.725 L 256.383 214.695 Z M 309.992 234.247 C 308.107 234.247 304.952 237.402 299.911 243.736 C 293.061 252.396 282.281 260.78 276.571 262.494 L 275.694 263.046 C 274.761 263.473 273.806 263.902 272.85 264.329 C 271.297 264.943 269.282 265.678 266.956 266.412 C 262.303 267.911 256.514 269.288 251.344 269.134 C 248.912 269.103 246.51 268.555 244.236 267.483 C 242.114 266.441 240.411 264.454 239.478 261.974 C 237.976 257.722 238.576 251.75 241.855 243.274 L 131.949 345.763 L 131.949 382.639 L 180.236 382.639 L 282.642 287.405 C 285.305 283.916 289.313 279.144 294.716 273.174 C 309.19 257.291 312.473 251.816 312.473 243.705 C 312.473 237.402 311.877 234.218 309.992 234.218 L 309.992 234.247 Z M 334.367 293.923 L 325.605 304.268 C 320.692 309.775 311.932 316.569 305.933 319.477 L 304.745 320.084 L 304.666 320.242 L 304.409 320.545 C 304.177 320.758 304.071 320.758 303.891 320.882 C 301.514 321.956 299.084 322.902 296.603 323.73 C 291.15 325.594 285.514 326.793 279.8 327.25 C 277.115 327.433 274.424 327.156 271.79 326.423 C 269.516 325.812 267.526 324.25 266.153 322.015 C 264.911 319.753 264.549 316.72 265.25 312.989 C 265.817 310.325 266.644 307.754 267.706 305.336 L 185.068 382.639 L 294.972 382.639 L 308.107 364.828 C 326.147 339.887 334.367 322.108 334.367 306.868 L 334.367 293.923 Z" style="fill: rgb(156, 138, 255);"/>
</svg>