<svg xmlns="http://www.w3.org/2000/svg" viewBox="0 0 500 500"><path d="m354.3 62-1.9 12c-3 22.7-1.9 29.2 6.3 37.6l8 7.8-8.3 43.4c-4.9 25.9-10.9 47.5-14.7 54.7a85.7 85.7 0 0 0-8 20c-1.3 5.9-6 11.7-13 16.9a227 227 0 0 0-27.4 24.6c-7 7.5-11.8 12-14.4 14l-8.6 8a47 47 0 0 0-4.9 12.5c-.5 3.3-.2 5.5.7 7a7.4 7.4 0 0 0 4.3 3.4c2.4.6 4.9.8 7.3.7 5.5-.5 11-1.7 16.3-3.5a73.5 73.5 0 0 0 4.5-1.6c2-2.8 6.3-8 14.2-17.2 20.8-24.3 28.7-37.5 20.5-34-3 1.3-1.7-2 3.5-8.4 11-12.6 17.3-31.7 30.4-91.6 10.4-47.3 10.4-48 18-48 3.6 0 13.8.8 13.8.8V62h-46.6Zm34.6 97c-1.7 0-4.4 2.8-6 6-3 5.9.5 9.4 45.6 42.8 26.8 20.1 48.5 37.2 48 38.6-.6 1-22.5 17.8-48.8 37.2-47.6 35-47.8 35.3-43.5 42.4 5.5 8.4 0 11.3 61.8-34.3l45-34V232l-50.2-36.6a842.8 842.8 0 0 0-52-36.6Zm-281.4 3.5c-1.4 0-24.9 16.5-52 36.2L5 235.3V261l50.4 37.3c27.9 20.4 51.4 37.2 52.5 37.2 1 0 3.3-3 5.5-6.5 3.3-6.1.5-8.7-45.7-43.4-44-32.7-48.7-37.2-44.3-40.8 2.7-2.2 23.5-17.5 46-34 51.1-37.2 48.4-34.6 44.3-42.4-1.7-3.2-4.4-6.1-6-5.8h-.1Zm154.8.7c-7.6 0-23.8 13.5-72.4 60.5-2 6-2.3 10-1.3 12.6.6 1.8 1.7 3 3.3 4 1.6 1 3.6 1.5 5.8 1.7 4.4.5 9.6-.4 13.9-1.4l2.8-.7c1-1.6 2.3-2.8 3.7-3.6 3-2 15.6-15.6 28.2-30.1 22.2-26.6 27.4-38.6 18.3-42.5a4.7 4.7 0 0 0-2.3-.5Zm56.7 18.4c-6.6.3-18.6 9.4-39 28.7-10.4 10-16.9 15.3-20.4 16.4l-13.5 12.6c-5.1 11-5.8 17.9-4.5 21.6.7 1.9 2 3.4 3.6 4.1a14.8 14.8 0 0 0 6.2 1.4 49.2 49.2 0 0 0 15-2.6 89.6 89.6 0 0 0 7.5-2.8l.7-.4 1.4-.9c2.6-3.9 8.5-11.3 16-19.9 23.5-26.9 35.5-46 33-53-1-3.5-3-5.3-6-5.2Zm-62.6 33c-2 .3-6.2 4.3-14 12.3-11.1 11.7-23.3 18.4-27.5 15.4l-3 .7c-4.2 1-9.6 1.9-14.4 1.4a16.8 16.8 0 0 1-6.5-2c-1.9-1-3.4-2.8-4.3-5.1-1-2.8-1-6.2.1-10.6L170 243.1l-38 37.2v60.4l124.6-116.2a15.1 15.1 0 0 1 .4-3.8c1-4 .9-6.2-.6-6Zm53.6 19.6c-1.9 0-5 3.2-10 9.5a63.4 63.4 0 0 1-23.4 18.8l-1 .5c-.8.5-1.8.9-2.8 1.3a89.4 89.4 0 0 1-5.8 2.1 49 49 0 0 1-15.7 2.7 17.1 17.1 0 0 1-7-1.6 10 10 0 0 1-4.8-5.5c-1.5-4.3-1-10.3 2.4-18.7l-110 102.5v36.8h48.3l102.4-95.2c2.7-3.5 6.7-8.3 12.1-14.2 14.5-16 17.8-21.4 17.8-29.5 0-6.3-.6-9.5-2.5-9.5Zm24.4 59.7-8.8 10.4a76.2 76.2 0 0 1-19.7 15.2l-1.2.6v.1l-.3.3c-.2.3-.3.3-.5.4a76.5 76.5 0 0 1-7.3 2.8 69 69 0 0 1-16.8 3.6 23.8 23.8 0 0 1-8-.9 9.6 9.6 0 0 1-5.6-4.4 13.4 13.4 0 0 1-1-9 39.5 39.5 0 0 1 2.5-7.7l-82.6 77.3H295l13.1-17.8c18-25 26.3-42.7 26.3-58V294Z" style="fill:#9c8aff"/></svg>