<svg xmlns="http://www.w3.org/2000/svg" xml:space="preserve" width="800" height="800" fill="#9c8aff" viewBox="0 0 24 24"><path fill-rule="evenodd" d="M12 6c-2.7 0-4.3 1.4-5 4 1-1.3 2.2-1.8 3.5-1.5.8.2 1.3.8 1.9 1.4 1 1 2.1 2.1 4.6 2.1 2.7 0 4.3-1.3 5-4-1 1.3-2.2 1.8-3.5 1.5-.8-.2-1.3-.7-1.9-1.3-1-1-2.1-2.2-4.6-2.2zm-5 6c-2.7 0-4.3 1.3-5 4 1-1.3 2.2-1.8 3.5-1.5.8.2 1.3.7 1.9 1.3 1 1 2.1 2.2 4.6 2.2 2.7 0 4.3-1.4 5-4-1 1.3-2.2 1.8-3.5 1.5-.8-.2-1.3-.8-1.9-1.4-1-1-2.1-2.1-4.6-2.1z" clip-rule="evenodd"/></svg>