<svg xmlns="http://www.w3.org/2000/svg" class="svg-icon" style="width:1em;height:1em;vertical-align:middle;fill:currentColor;overflow:hidden" viewBox="0 0 1024 1024"><path fill="#9c8aff" d="M94.2 94.2v835.6h835.6V94.2H94.2zm635 405.9c8 0 17 .4 23.9 1.2a97 97 0 0 1 68 37.7c9.3 11.3 12.4 16.2 11.8 18.3-.5 1.4-6.8 5.9-26.9 19.2-19.7 13.1-26 17-27.5 17s-4.6-3.2-9.1-9.3a41.8 41.8 0 0 0-31.1-19.1c-14.7-2-27.9 2.7-34.4 12-5.5 8-6.3 21-2 30.3 5.2 10.9 14.4 16.9 49.6 32.3 40.6 17.8 61.2 30 76.2 45.2 16.1 16.3 24.3 35 26.8 61.7a114 114 0 0 1-4 40.8c-9 30.7-33.6 53.1-69.6 63.7-10 2.9-19.3 4.6-28.4 5.3-14 1-34 .4-46-1.3-30.5-4.4-65-22.2-82.1-42.3-8.4-9.9-19.2-26.1-19.2-29 0-1.4.7-2.1 3.4-3.9 8-5 54-31.4 55-31.4.5 0 2.9 2.9 5.3 6.3 5.4 7.9 18.8 21.3 25.6 25.8a68.7 68.7 0 0 0 21 8.8 62 62 0 0 0 17.9 1.4c10.7 0 13-.2 17.8-1.5 12.7-3.4 22.6-10.5 26.8-19.1 1.9-3.8 1.9-4.2 1.9-13.3v-9.4l-2.3-4.5c-5.4-10.9-17.2-18.3-54.5-34.5a437.8 437.8 0 0 1-46.3-23 107.7 107.7 0 0 1-40.2-42.1c-8.5-16.6-9.7-22.7-9.7-47.6 0-19.5 0-19.2 4-31.6a92.9 92.9 0 0 1 19.3-32.7 103.9 103.9 0 0 1 79-31.4zm-222 3.8c49.7 0 78.2.2 78.6.5.9.5 1 4.8 1 32.4v31.9l-49.6.1-49.5.2v140.7c0 77.4-.2 141.2-.4 141.8-.4 1-4.2 1-36.4 1h-36l-.4-1.4c-.3-.8-.4-64.6-.4-141.8V569l-49.6-.2-49.6-.1v-31.5c0-25 .2-31.6.9-32.3.6-.7 26-.9 135-1h56.4z"/></svg>