<svg xmlns="http://www.w3.org/2000/svg" viewBox="0 0 24 24"><path fill="#ff9800" d="M.2 14.7a17.5 17.5 0 0 0 21.5 1.6c.4-.4 0-.9-.4-.7a24 24 0 0 1-21-1.3q-.4-.1-.2.4"/><path fill="#fefefe" d="M17.2 5.2q0-.3-.2-.2h-1.1l-.1.4-1.4 5.4L13 5.4 13 5h-1.3l-.2.4-1.2 5.3L9 5.4 8.8 5H7.7q-.2 0-.2.2v.3l2 6.2.1.3.3.1h1l.2-.4 1.2-5.2 1.3 5.2.1.3.3.1h1l.2-.4 2-6.2H17zm4.5 5a1 1 0 0 1-.4.8l-1.2.2h-1l-.8-.3-.2-.1h-.2q-.1 0-.2.2v.4l.1.2.2.3 1 .3 1.2.1 1.1-.1 1-.5.5-.7.2-1q0-.6-.4-1-.3-.6-1.2-.8l-1.1-.4-1-.4-.1-.6q0-.6.3-.7l1-.3h.1l1.5.4h.3q.2 0 .2-.2v-.7l-.3-.2L22 5l-.5-.1-.5-.1h-1.5l-.9.5-.6.7-.2.9q0 .6.4 1.1t1.3.9l1.2.3.8.4z"/><path fill="#ff9800" d="M22.4 18.2c1.4-1.2 1.8-3.7 1.5-4-.3-.4-2.7-.7-4.2.3q-.4.3 0 .4c.9-.1 2.8-.3 3 0 .4.5-.3 2.3-.6 3.1q0 .5.3.2"/><path fill="#fefefe" d="m4.5 8-.8-.1q-1.2 0-2 .6a2 2 0 0 0-.7 1.7q0 .9.6 1.5t1.6.6a3 3 0 0 0 2.3-1.1l.3.5.3.3.2.2.2-.1.5-.4.2-.2v-.2l-.3-.6-.1-.7V7.4q0-1.3-.7-2-.8-.6-2.1-.6l-1.3.1-1 .4-.2.2V6l.1.3h.2l.2-.2L3 6l.9-.1q.9 0 1.3.3.3.4.3 1.3v.6zm1 1v.4l-.1.7-.3.5-.8.5-.8.1q-.5 0-.8-.3t-.3-.8.4-1T4 8.9h.7z"/></svg>