<svg xmlns="http://www.w3.org/2000/svg" width="256" height="288" preserveAspectRatio="xMidYMid"><path fill="#a179dc" d="M256 84q0-7-4-12-3-6-9-9L141 4q-13-7-27 0L12 63Q0 70 0 84v119q0 8 3 12 3 6 9 10l102 58q14 8 27 0l102-58q6-4 10-10 3-5 3-12z"/><path fill="#280068" d="M128 143 3 215q3 6 9 10l102 58q14 8 27 0l102-58q6-4 10-10z"/><path fill="#390091" d="M256 84q0-7-4-12l-124 71 125 72q3-5 3-12z"/><path fill="#fff" d="M202 116v14h13v-14h7v14h14v7h-14v13h14v7h-14v13h-7v-13h-13v13h-7v-13h-13v-7h13v-13h-13v-7h13v-14zm13 21h-13v13h13z"/><path fill="#fff" d="M128 49c36 0 66 19 83 47l-42 24q-13-22-40-24h-1a47 47 0 1 0 42 71h-1l42 24a95 95 0 0 1-81 48h-2a95 95 0 1 1 0-190"/></svg>