<svg xmlns="http://www.w3.org/2000/svg" width="24" height="24" fill="none" viewBox="0 0 96 96"><desc>Cypress Icon Streamline Icon: https://streamlinehq.com</desc><path fill="url(#a)" d="m53 83.2-1.6 3.9q-.5 1.3-1.8 1.3h-1.7A41 41 0 0 1 8.5 57l-6.4 1.5A47 47 0 0 0 48 95h2a9 9 0 0 0 7.6-5.4l2-5z"/><path fill="url(#b)" d="M2.7 60.5A47 47 0 0 1 31 4.2l2.4 6A40.7 40.7 0 0 0 9 58.8z"/><path fill="url(#c)" d="M83.9 29.4a40.3 40.3 0 0 0-51.4-18.8l-2.5-6a46.7 46.7 0 0 1 59.7 21.8z"/><path fill="#09293f" d="M34 38.3a9 9 0 0 1 8.4 5.6l.1.2L49 42l-.1-.3c-2.5-6-8.2-9.8-14.9-9.8A16 16 0 0 0 17.6 48q0 6.8 4.7 11.5Q27 64 33.9 64c6.7 0 12.4-3.8 14.9-9.8l.1-.3-6.4-2.2v.3a9 9 0 0 1-8.6 5.6 9 9 0 0 1-6.6-2.8 10 10 0 0 1-2.7-6.9q0-4 2.7-7 2.7-2.7 6.6-2.7"/><path fill="#09293f" d="m73.8 32.5-9 23-9.2-23h-7.5L61 63.9l-9.2 22.2 6.6 1.3 22.5-55z"/><path fill="url(#d)" d="M89.7 26.4A47 47 0 0 1 70 89.8L66.6 84A40.5 40.5 0 0 0 84 29.4z"/><defs><linearGradient id="a" x1="364.9" x2="4852.6" y1="1733.1" y2="2931.3" gradientUnits="userSpaceOnUse"><stop stop-color="#315c55"/><stop offset="1" stop-color="#09293f"/></linearGradient><linearGradient id="b" x1="1759.4" x2="1341.7" y1="1538.9" y2="5605.3" gradientUnits="userSpaceOnUse"><stop stop-color="#4fb38d"/><stop offset="1" stop-color="#315c55"/></linearGradient><linearGradient id="c" x1="860.4" x2="4172.5" y1="1420.1" y2="2027.3" gradientUnits="userSpaceOnUse"><stop stop-color="#4fb38d"/><stop offset="1" stop-color="#97dec0"/></linearGradient><linearGradient id="d" x1="1589.9" x2="-216.1" y1="1983.8" y2="5365.4" gradientUnits="userSpaceOnUse"><stop stop-color="#97dec0"/><stop offset="1" stop-color="ivory" stop-opacity="0"/></linearGradient></defs></svg>