<svg xmlns="http://www.w3.org/2000/svg" viewBox="0 0 128 128"><path fill="#3a4d54" fill-rule="evenodd" d="M73.8 50.8h11.3v11.5h5.7a26 26 0 0 0 11.6-3 14 14 0 0 1-2.6-7.3c-.3-3.5.4-8.1 2.8-10.8l1.2-1.4 1.4 1.1c3.6 2.9 6.5 6.8 7.1 11.4a17 17 0 0 1 13.1 1.2l1.5.9-.8 1.6c-3.2 6.2-9.9 8.2-16.4 7.8-9.8 24.3-31 35.8-56.8 35.8-13.3 0-25.5-5-32.5-16.8l-.1-.2-1-2.1a33 33 0 0 1-2.6-16.6l.2-1.7h9.6V50.8h11.3V39.6h22.5V28.3h13.5z" clip-rule="evenodd"/><path fill="#00aada" d="M110.4 55.1c.8-5.9-3.6-10.5-6.4-12.7-3.1 3.6-3.6 13.2 1.3 17.2a24 24 0 0 1-14.5 4.7H18.6q-.8 9.4 3 16.8l.8 1.5 1.7 2.6q4.5.3 8.2.2 7.3-.2 12-1.7.8-.2 1.1.5.2.8-.5 1.1l-1.3.4a37 37 0 0 1-8.3 1.3h-.6l-4.2.1-4.9-.1c6 6.8 15.4 10.8 27.2 10.8 25 0 46.2-11.1 55.5-35.9 6.7.7 13.1-1 16-6.7-4.5-2.7-10.5-1.8-13.9-.1"/><path fill="#28b8eb" d="M110.4 55.1c.8-5.9-3.6-10.5-6.4-12.7-3.1 3.6-3.6 13.2 1.3 17.2a24 24 0 0 1-14.5 4.7h-68c-.3 9.5 3.2 16.7 9.5 21q7.4-.2 12-1.7.8-.2 1.1.5.2.8-.5 1.1l-1.3.4q-3.6 1-8.5 1.4l-.1-.1c8.5 4.4 20.8 4.3 35-1.1a99 99 0 0 0 40.9-30.9z"/><path fill="#028bb8" d="M18.7 71.8q.6 5 2.9 9.3l.8 1.5 1.7 2.6q4.5.3 8.2.2 7.4-.2 12-1.7.8-.2 1.1.5.2.8-.5 1.1l-1.3.4q-3.6 1-8.5 1.4h-.4l-4.1.1-4.9-.1c6 6.8 15.5 10.8 27.3 10.8 21.4 0 40-8.1 50.8-26z"/><path fill="#019bc6" d="M23.5 71.8a22 22 0 0 0 8.8 13.5q7.4-.2 12-1.7.8-.2 1.1.5.2.8-.5 1.1l-1.3.4Q40 86.6 35 87c8.5 4.4 20.8 4.3 34.9-1.1a94 94 0 0 0 24.2-14.1z"/><path fill="#00acd3" fill-rule="evenodd" d="M28.4 52.7h9.8v9.8h-9.8zm.8.8h.8v8.1h-.8zm1.4 0h.8v8.1h-.8zm1.5 0h.8v8.1h-.8zm1.5 0h.8v8.1h-.8zm1.5 0h.8v8.1h-.8zm1.5 0h.8v8.1h-.8zm3-12h9.8v9.8h-9.8zm.9.8h.8v8.1h-.8zm1.4 0h.8v8.1h-.8zm1.5 0h.8v8.1h-.8zm1.5 0h.8v8.1h-.8zm1.4 0h.8v8.1h-.8zm1.5 0h.8v8.1h-.8z" clip-rule="evenodd"/><path fill="#23c2ee" fill-rule="evenodd" d="M39.6 52.7h9.8v9.8h-9.8zm.9.8h.8v8.1h-.8zm1.4 0h.8v8.1h-.8zm1.5 0h.8v8.1h-.8zm1.5 0h.8v8.1h-.8zm1.4 0h.8v8.1h-.8zm1.5 0h.8v8.1h-.8z" clip-rule="evenodd"/><path fill="#00acd3" fill-rule="evenodd" d="M50.9 52.7h9.8v9.8h-9.8zm.8.8h.8v8.1h-.8zm1.5 0h.8v8.1h-.8zm1.5 0h.8v8.1h-.8zm1.4 0h.8v8.1h-.8zm1.5 0h.8v8.1h-.8zm1.5 0h.8v8.1h-.8z" clip-rule="evenodd"/><path fill="#23c2ee" fill-rule="evenodd" d="M50.9 41.5h9.8v9.8h-9.8zm.8.8h.8v8.1h-.8zm1.5 0h.8v8.1h-.8zm1.5 0h.8v8.1h-.8zm1.4 0h.8v8.1h-.8zm1.5 0h.8v8.1h-.8zm1.5 0h.8v8.1h-.8zm3.1 10.4H72v9.8h-9.8zm.8.8h.8v8.1H63zm1.5 0h.8v8.1h-.8zm1.4 0h.8v8.1h-.8zm1.5 0h.8v8.1h-.8zm1.5 0h.8v8.1h-.8zm1.5 0h.8v8.1h-.8z" clip-rule="evenodd"/><path fill="#00acd3" fill-rule="evenodd" d="M62.2 41.5H72v9.8h-9.8zm.8.8h.8v8.1H63zm1.5 0h.8v8.1h-.8zm1.4 0h.8v8.1h-.8zm1.5 0h.8v8.1h-.8zm1.5 0h.8v8.1h-.8zm1.5 0h.8v8.1h-.8z" clip-rule="evenodd"/><path fill="#23c2ee" fill-rule="evenodd" d="M62.2 30.2H72V40h-9.8zm.8.8h.8v8.1H63zm1.5 0h.8v8.1h-.8zm1.4 0h.8v8.1h-.8zm1.5 0h.8v8.1h-.8zm1.5 0h.8v8.1h-.8zm1.5 0h.8v8.1h-.8z" clip-rule="evenodd"/><path fill="#00acd3" fill-rule="evenodd" d="M73.5 52.7h9.8v9.8h-9.8zm.8.8h.8v8.1h-.8zm1.4 0h.8v8.1h-.8zm1.5 0h.8v8.1h-.8zm1.5 0h.8v8.1h-.8zm1.5 0h.8v8.1h-.8zm1.5 0h.8v8.1h-.8z" clip-rule="evenodd"/><path fill="#d4eef1" fill-rule="evenodd" d="M48.8 78.3c1.5 0 2.7 1.2 2.7 2.7s-1.2 2.7-2.7 2.7a2.7 2.7 0 0 1-2.7-2.7c0-1.5 1.2-2.7 2.7-2.7" clip-rule="evenodd"/><path fill="#3a4d54" fill-rule="evenodd" d="m48.8 79.1.7.1q-.4.2-.4.7.1.7.8.8.5 0 .7-.4l.1.7a1.9 1.9 0 1 1-1.9-1.9M1.1 72.8h125.4c-2.7-.7-8.6-1.6-7.7-5.2-5 5.7-16.9 4-20 1.2-3.4 4.9-23 3-24.3-.8-4.2 5-17.3 5-21.5 0-1.4 3.8-21 5.7-24.3.8-3 2.8-15 4.5-20-1.2 1.1 3.5-4.9 4.5-7.6 5.2" clip-rule="evenodd"/><path fill="#bfdbe0" d="M56 97.8a24 24 0 0 1-12.4-12.2q-3.8 1-8.9 1.4l-4.1.1-5.2-.1c6 6 13.6 10.7 27.5 10.8z"/><path fill="#d4eef1" d="M46.1 89.9q-1.4-2-2.5-4.3-3.8 1-8.9 1.4c2.3 1.2 5.7 2.4 11.4 2.9"/></svg>
