<svg xmlns="http://www.w3.org/2000/svg" width="32" height="32" viewBox="0 0 256 256"><g fill="none"><rect width="256" height="256" fill="#242938" rx="60"/><path fill="#fff" d="M228 183a13 13 0 0 1-16-6l-28-40-5-5-33 45a12 12 0 0 1-15 6l43-58-40-52a13 13 0 0 1 16 6l30 40 30-40a12 12 0 0 1 14-6l-15 21-21 27a6 6 0 0 0 0 9zM28 125l4-18c9-34 48-48 75-27q22 19 19 50H37c-1 35 24 56 57 46a34 34 0 0 0 22-24q2-8 9-5a45 45 0 0 1-21 33 52 52 0 0 1-61-8 55 55 0 0 1-14-32l-1-6zm9-3h81c-1-26-17-44-38-44-24 0-42 18-43 44"/></g></svg>
