<svg xmlns="http://www.w3.org/2000/svg" fill-rule="evenodd" clip-rule="evenodd" image-rendering="optimizeQuality" shape-rendering="geometricPrecision" text-rendering="geometricPrecision" viewBox="-80 0 512 512.4"><g fill-rule="nonzero"><path fill="#00b6ff" d="M173 247c0-42 34-76 76-76h12a85 85 0 0 1 0 171h-12c-42 0-76-35-76-77z"/><path fill="#24cb71" d="M0 427c0-47 38-85 85-85h88v84c0 48-40 86-87 86S0 474 0 427"/><path fill="#ff7237" d="M173 0v171h88a85 85 0 0 0 0-171h-88"/><path fill="#ff3737" d="M0 85c0 48 38 86 85 86h88V0H85C38 0 0 38 0 85"/><path fill="#874fff" d="M0 256c0 47 38 86 85 86h88V171H85c-47 0-85 38-85 85"/></g></svg>