<svg xmlns="http://www.w3.org/2000/svg" viewBox="0 0 128 128"><path fill="#2088ff" d="M26.7 0a26.7 26.7 0 0 0-5.4 52.8v37.9c0 11.7 9.7 21.3 21.4 21.3h.2c1.3 9 9 16 18.4 16a18.7 18.7 0 0 0 0-37.3c-9.3 0-17.1 7-18.4 16h-.2a16 16 0 0 1-16-16v-27a19 19 0 0 0 13.2 5.6h3c1.3 9 9 16 18.4 16s17.2-7 18.5-16h11c1.4 9 9.2 16 18.5 16a18.7 18.7 0 0 0 0-37.3C100 48 92.2 55 91 64h-11a18.7 18.7 0 0 0-37 0h-3c-6.4 0-11.8-4.6-13-10.7A26.7 26.7 0 0 0 26.7 0m0 5.3A21.3 21.3 0 0 1 48 26.7 21.3 21.3 0 0 1 26.7 48 21.3 21.3 0 0 1 5.3 26.7 21.3 21.3 0 0 1 26.7 5.3M21.5 13c-2.8 0-5.5 2.2-5.5 5.3v17c0 4 4.7 6.7 8.1 4.5l13.7-8.4c3.2-2 3.3-7 0-9l-13.6-8.6a5 5 0 0 0-2.7-.8m-.2 5.3L35 26.8l-13.7 8.4zm40 35.1a13.3 13.3 0 0 1 13.4 13.4A13.3 13.3 0 0 1 61.3 80 13.3 13.3 0 0 1 48 66.7a13.3 13.3 0 0 1 13.3-13.4m48 0a13.3 13.3 0 0 1 13.4 13.4A13.3 13.3 0 0 1 109.3 80 13.3 13.3 0 0 1 96 66.7a13.3 13.3 0 0 1 13.3-13.4m-42.5 7a3 3 0 0 0-2 .8l-6.2 6.3-2.1-2.1a2.7 2.7 0 0 0-3.8 0 2.7 2.7 0 0 0 0 3.8l4 4a2.7 2.7 0 0 0 3.8 0l8.1-8.3a3 3 0 0 0 0-3.7 3 3 0 0 0-1.8-.8m48 0a3 3 0 0 0-2 .8l-6.2 6.3-2.1-2.1a2.7 2.7 0 0 0-3.8 0 2.7 2.7 0 0 0 0 3.8l4 4a2.7 2.7 0 0 0 3.8 0l8.1-8.3a3 3 0 0 0 0-3.7 3 3 0 0 0-1.8-.8M61.3 96a13.3 13.3 0 0 1 13.4 13.3 13.3 13.3 0 0 1-13.4 13.4A13.3 13.3 0 0 1 48 109.3 13.3 13.3 0 0 1 61.3 96m-5.3 9.3a4 4 0 0 0-4 4c0 2.2 1.8 4 4 4s4-1.8 4-4a4 4 0 0 0-4-4m10.7 0a4 4 0 0 0-4 4c0 2.2 1.8 4 4 4s4-1.8 4-4a4 4 0 0 0-4-4M56 108q1.2.1 1.3 1.3 0 1.3-1.3 1.4-1.2-.1-1.3-1.4.1-1.2 1.3-1.3m10.7 0q1.2.1 1.3 1.3-.1 1.3-1.3 1.4-1.3-.1-1.4-1.4.1-1.2 1.4-1.3"/><path fill="#79b8ff" d="M109.3 90.7c-9.3 0-17.2 7-18.4 16h-3a2.7 2.7 0 0 0-2.6 2.8 2.7 2.7 0 0 0 2.8 2.6h2.7a18.7 18.7 0 1 0 18.5-21.3m0 5.3a13.3 13.3 0 0 1 13.4 13.3 13.3 13.3 0 0 1-13.4 13.4A13.3 13.3 0 0 1 96 109.3 13.3 13.3 0 0 1 109.3 96"/></svg>