<svg xmlns="http://www.w3.org/2000/svg" width="32" height="32" viewBox="0 0 128 128"><g fill="#181616"><path fill-rule="evenodd" d="M64 5.1a60.4 60.4 0 0 0-19 117.7c3 .6 4-1.3 4-3v-11.2c-16.8 3.7-20.4-7-20.4-7-2.7-7-6.7-9-6.7-9-5.5-3.7.4-3.6.4-3.6 6 .4 9.3 6.2 9.3 6.2 5.4 9.3 14.1 6.6 17.5 5 .6-3.8 2.2-6.5 3.9-8-13.4-1.5-27.5-6.7-27.5-29.9q.2-9.9 6.2-16.2c-.6-1.5-2.7-7.6.6-16 0 0 5-1.6 16.6 6.2a58 58 0 0 1 30.2 0c11.6-7.8 16.6-6.2 16.6-6.2 3.3 8.4 1.2 14.5.6 16q6 6.4 6.2 16.2c0 23.2-14.1 28.3-27.5 29.8 2.1 2 4 5.6 4 11.2V120c0 1.6 1 3.5 4.1 2.9A60.4 60.4 0 0 0 64 5" clip-rule="evenodd"/><path d="M26.5 91.8q-.3.5-1 .2t-.6-1q.3-.3 1-.1.8.4.6 1m2.4 2.7q-.5.4-1.2-.2-.6-.8-.2-1.3.6-.4 1.3.3.6.8.1 1.2m2.4 3.5q-.7.3-1.3-.5-.6-1 0-1.4t1.3.5q.6.8 0 1.4m3.3 3.4q-.6.5-1.6-.3-.8-.7-.3-1.5.6-.6 1.5.2t.4 1.6m4.5 2q-.5.7-1.5.4-1.2-.4-1-1.2.3-.8 1.5-.5t1 1.2m5 .3q-.1.8-1.4.9t-1.3-.9q.1-.8 1.3-.9t1.3.9m4.5-.8q0 .8-1.1 1.1-1.2.2-1.5-.6 0-.8 1.2-1.2 1.1 0 1.4.7m0 0"/></g></svg>
