<svg xmlns="http://www.w3.org/2000/svg" width="32" height="32" viewBox="0 0 128 128"><path fill="#0074bd" d="M48 98s-5 3 3 4c10 1 15 1 26-1l7 3c-25 11-56-1-36-6m-3-14s-6 4 2 5c11 1 19 1 34-1l5 3c-30 8-63 0-41-7"/><path fill="#ea2d2e" d="M70 61c6 7-2 13-2 13s16-7 8-17c-6-10-11-14 16-30 0 0-43 11-22 34"/><path fill="#0074bd" d="M102 108s4 3-4 5c-14 5-58 6-71 1-4-2 4-5 7-6h4c-5-4-32 7-14 10 50 8 91-4 78-10M50 70s-23 6-8 8l30-1 19-2-6 3c-23 6-68 3-55-3q18-6 20-5m41 23c23-12 12-24 5-22h-3l2-1c15-5 26 15-5 24z"/><path fill="#ea2d2e" d="M76 2s13 13-12 33c-20 16-4 25 0 35-12-11-20-20-15-29 9-13 33-19 27-39"/><path fill="#0074bd" d="M52 126c23 1 57-1 58-11 0 0-2 4-19 7-19 3-42 3-56 1 0 0 2 2 17 3"/></svg>
