<svg xmlns="http://www.w3.org/2000/svg" width="50" height="52"><path fill="#ff2d20" fill-rule="evenodd" d="M49.6 11.6v11.2l-.3.6-9.3 5.3v10.6q0 .4-.4.6L20.4 51h-.8L.4 40a1 1 0 0 1-.4-.7V6l.1-.2.1-.1h.1l.1-.2L10 .1a1 1 0 0 1 .8 0l9.6 5.5.1.1.2.2v.2l.1.2V27l8-4.6V11.5l.1-.1v-.1h.2V11h.1l9.6-5.6a1 1 0 0 1 .8 0l9.7 5.6.1.1v.1h.1l.1.2m-1.5 10.7v-9.1L44.7 15 40 17.8v9zm-9.7 16.5v-9.1L34 32.3l-13 7.4V49zM1.6 7.8v31l17.6 10.1v-9.2L10 34.5l-.2-.1v-.1l-.1-.2V12.2L5 9.7zm8.8-6-8 4.5 8 4.6 8-4.6zm4.2 28.7 4.6-2.7v-20L16 9.6l-4.7 2.6v20.1zM39.2 7.2l-8 4.6 8 4.6 8-4.6zm-.8 10.6L33.8 15l-3.4-2v9.2l4.7 2.7 3.3 1.9zM20 38.3l11.8-6.7 5.8-3.3-8-4.6-9.2 5.3-8.4 4.8z"/></svg>
