<svg xmlns="http://www.w3.org/2000/svg" width="419" height="519" fill="none"><path fill="#8a6fe8" d="M284 248v-26q48-1 71-29c27-33 18-85 18-85l25-5c1 2 12 64-23 107q-30 36-91 38"/><path fill="#8a6fe8" d="m332 109 30 25a13 13 0 0 0 16-19l-30-25a13 13 0 0 0-16 19M407 118l11-24a13 13 0 0 0-23-10l-11 24z"/><path fill="#8a6fe8" d="M401 105V69a13 13 0 1 0-25 0v27z"/><path fill="#8a6fe8" d="m386 109-8-35a13 13 0 1 0-24 6l8 35z"/><path fill="url(#a)" d="M382 142a26 26 0 1 0 0-53 26 26 0 0 0 0 53"/><path fill="url(#b)" d="M248 407c1-22-3-67-26-105l-22 13c21 35 22 75 22 92 0 2 13 3 26 0"/><path fill="#522cd5" d="M222 407h21l19 111h-42q-5 0-5-5z"/><path fill="url(#c)" d="M307 489q4 5 3 11l-1 13q0 5-5 5h-43q-5 0-5-5l1-14q0-6-6-11c-6-8-26-52-24-81h21c2 17 24 55 59 82"/><path fill="url(#d)" d="m310 500-1-8h-54l2 7-1 14q0 5 5 5h43q5 0 5-5z"/><path fill="url(#e)" d="M134 407c-1-22 2-67 24-105l23 13c-20 35-22 75-21 92 0 2-13 3-26 0"/><path fill="url(#f)" d="m111 497 1-10c20-53 22-80 22-80h26s2 27 22 79l2 11v17q0 4-5 4l-1 1h-63q-3 0-4-5z"/><path fill="url(#g)" d="M111 497v-1q0-3 4-3l65-1q4 1 4 3v19l-2 4h-4l-61 1h-1a5 5 0 0 1-5-5z"/><path fill="url(#h)" d="M315 246c9-36 3-64 3-64h9a142 142 0 1 0-6 72q3-4-6-8"/><path fill="#d8cff7" d="m310 279-244 1q8 14 19 26l206-1q11-12 19-26"/><path fill="#512bd4" d="M235 313h46v-41h-46z"/><path fill="#fff" d="M243 298zv-1h2zM255 297h-2l-5-8v8h-2v-11h2l5 8v1h1l-1-2v-7h2zM264 297h-6v-11h5v2h-4v3h4v2h-4v3h5zM272 288h-3v9h-1l-1-9h-3v-2h8z"/><path fill="url(#i)" d="M315 246c9-35 3-64 3-64H171s-9 0-9 8l1 59q1 8 8 8s141-5 144-11"/><path fill="#a08be8" d="m228 247 27-22q6-5 12 0l27 21z"/><path fill="#512bd4" d="M321 256s4-8-6-10l-144 1q-6 0-8-5v7q1 7 7 8h11zM206 233q11-1 11-19-1-16-11-18c-6 0-11 9-11 19q1 16 11 18M306 214q-1-17-11-18c-6-1-11 8-11 18s5 19 11 19q10-1 11-19"/><path fill="#8065e0" d="M206 205q3-3 8-3 3 5 3 12l-1 9a10 10 0 0 1-10-18M295 204q3-3 8-3 3 6 3 13l-1 7a10 10 0 0 1-10-17"/><path fill="url(#j)" d="M12 357c-1-2-18-57 9-98q24-36 79-42l2 26q-42 4-59 30c-20 31-6 76-6 76z"/><path fill="url(#k)" d="M95 253a26 26 0 1 0 0-52 26 26 0 0 0 0 52"/><path fill="#8a6fe8" d="m72 334-39-5a13 13 0 0 0-3 25l39 5a13 13 0 0 0 3-25M4 367l3 26a13 13 0 0 0 25-4l-3-26z"/><path fill="#8a6fe8" d="m16 375 19 30a13 13 0 0 0 21-13l-14-23z"/><path fill="#8a6fe8" d="m26 364 26 25a13 13 0 1 0 18-18l-27-26z"/><path fill="url(#l)" d="M26 382a26 26 0 1 0 0-53 26 26 0 0 0 0 53"/><path fill="#8a6fe8" d="m185 64-27 3 1-28 19-3z"/><path fill="#d8cff7" d="M170 42a19 19 0 1 0-8-38 19 19 0 0 0 8 38"/><path fill="url(#m)" d="m197 79 2-2a26 26 0 0 0-51 5q0 3 2 3z"/><defs><radialGradient id="a" cx="0" cy="0" r="1" gradientTransform="translate(382 103)scale(26.4058)" gradientUnits="userSpaceOnUse"><stop stop-color="#8065e0"/><stop offset="1" stop-color="#512bd4"/></radialGradient><radialGradient id="d" cx="0" cy="0" r="1" gradientTransform="translate(281 470)scale(45.8326)" gradientUnits="userSpaceOnUse"><stop offset="0" stop-color="#522cd5"/><stop offset="1" stop-color="#8a6fe8"/></radialGradient><radialGradient id="g" cx="0" cy="0" r="1" gradientTransform="translate(149 470)scale(-50.2476)" gradientUnits="userSpaceOnUse"><stop offset="0" stop-color="#522cd5"/><stop offset="1" stop-color="#8a6fe8"/></radialGradient><radialGradient id="h" cx="0" cy="0" r="1" gradientTransform="translate(219 154)scale(-140.935)" gradientUnits="userSpaceOnUse"><stop offset=".5" stop-color="#a08be8"/><stop offset=".9" stop-color="#8065e0"/></radialGradient><radialGradient id="i" cx="0" cy="0" r="1" gradientTransform="translate(315 159)scale(-146.053)" gradientUnits="userSpaceOnUse"><stop offset=".1" stop-color="#e1dfdd"/><stop offset=".7" stop-color="#fff"/></radialGradient><radialGradient id="k" cx="0" cy="0" r="1" gradientTransform="translate(90 218)scale(25.9924)" gradientUnits="userSpaceOnUse"><stop stop-color="#8065e0"/><stop offset="1" stop-color="#512bd4"/></radialGradient><radialGradient id="l" cx="0" cy="0" r="1" gradientTransform="translate(26 345)scale(26.4106)" gradientUnits="userSpaceOnUse"><stop stop-color="#8065e0"/><stop offset="1" stop-color="#512bd4"/></radialGradient><radialGradient id="m" cx="0" cy="0" r="1" gradientTransform="rotate(-32 201 -259)scale(21.0773)" gradientUnits="userSpaceOnUse"><stop stop-color="#8065e0"/><stop offset="1" stop-color="#512bd4"/></radialGradient><linearGradient id="b" x1="214.4" x2="236.7" y1="303.5" y2="409.5" gradientUnits="userSpaceOnUse"><stop stop-color="#522cd5"/><stop offset=".4" stop-color="#8a6fe8"/></linearGradient><linearGradient id="c" x1="231.7" x2="297.8" y1="404.1" y2="522" gradientUnits="userSpaceOnUse"><stop stop-color="#522cd5"/><stop offset=".4" stop-color="#8a6fe8"/></linearGradient><linearGradient id="e" x1="166.1" x2="144.8" y1="303.5" y2="409.7" gradientUnits="userSpaceOnUse"><stop stop-color="#522cd5"/><stop offset=".4" stop-color="#8a6fe8"/></linearGradient><linearGradient id="f" x1="146.7" x2="147.2" y1="407.3" y2="518.6" gradientUnits="userSpaceOnUse"><stop stop-color="#522cd5"/><stop offset=".4" stop-color="#8a6fe8"/></linearGradient><linearGradient id="j" x1="54.2" x2="54.2" y1="217.2" y2="357" gradientUnits="userSpaceOnUse"><stop offset=".3" stop-color="#9780e6"/><stop offset=".8" stop-color="#8a6fe8"/></linearGradient></defs></svg>