<svg xmlns="http://www.w3.org/2000/svg" width="32" height="32" viewBox="0 0 128 128"><path fill="#00618a" d="M117 97.8c-7-.2-12.2.5-16.6 2.3-1.3.6-3.3.6-3.6 2.2q.8 1.2 1.4 2.7c1 1.8 2.9 4 4.5 5.3q2.7 2 5.5 3.9c3.3 2 7 3.2 10.3 5.3q3 2 5.7 4c.9.7 1.5 1.8 2.7 2.2v-.2q-.7-1.4-1.4-2.7l-2.5-2.6a42 42 0 0 0-9-8.5c-2.7-2-8.6-4.5-9.7-7.7l-.2-.1q3-.6 5.8-1.4c3-.8 5.6-.6 8.6-1.4l4.1-1.1v-.8c-1.5-1.6-2.6-3.7-4.3-5.1q-6.6-5.7-14-10.5c-2.8-1.8-6.1-2.9-9-4.3-1-.5-2.7-.8-3.3-1.6q-2-3.2-3.5-6.6-3.8-7.2-7-14.9C80 53 79 49.5 77 46.5a86 86 0 0 0-33.1-32c-3.2-1.9-7-2.6-11-3.5l-6.4-.4c-1.3-.6-2.7-2.2-3.9-3-4.9-3-17.4-9.8-21-1C-.8 12.4 5 17.8 7 20.7c1.4 2 3.3 4.1 4.3 6.4.7 1.4.8 3 1.4 4.5 1.4 3.8 2.6 8 4.4 11.5q1.4 2.8 3.2 5.2c.7 1 2 1.5 2.1 3-1.2 1.7-1.3 4.3-2 6.4-3 9.6-1.8 21.6 2.6 28.7 1.4 2.2 4.6 6.9 9 5 3.8-1.5 3-6.4 4-10.7.3-1 .2-1.7.7-2.3v.2l3.5 7c2.6 4.2 7.2 8.6 11 11.5 2.1 1.6 3.7 4.2 6.3 5.1v-.2h-.2c-.5-.8-1.3-1.1-2-1.8a45 45 0 0 1-4.4-5q-5.3-7.3-9.6-15.6l-3.7-8.2c-.4-1-.4-2.6-1.3-3.2-1.3 2-3.2 3.6-4.1 5.9-1.6 3.7-1.8 8.2-2.4 12.9l-.4.2c-2.7-.7-3.6-3.5-4.6-5.9-2.6-6-3-15.8-.8-22.8.6-1.8 3.2-7.5 2.1-9.2-.5-1.6-2.2-2.6-3.1-3.9A31 31 0 0 1 20 40c-2.1-4.8-3-10-5.3-14.9-1-2.3-2.8-4.6-4.3-6.6-1.6-2.3-3.4-4-4.7-6.6-.4-1-1-2.6-.4-3.6q.2-1 1.2-1.1c1.1-.9 4.3.3 5.5.8q4.5 1.8 8.4 4.2c1.2.9 2.5 2.5 4 3h1.8c2.8.6 5.8.2 8.4 1q6.8 2.2 12.3 5.8a76 76 0 0 1 26.7 29.3c1 2 1.5 3.8 2.4 5.8q2.9 6.4 5.8 12.5c1.8 4 3.6 8.2 6 11.5 1.4 1.8 6.5 2.7 8.9 3.7 1.6.7 4.3 1.4 5.8 2.4q4.5 2.8 8.6 5.8c1.4 1 5.6 3.1 5.8 5M29.6 23.5a14 14 0 0 0-3.5.4v.1h.2c.7 1.5 1.9 2.4 2.7 3.6l2 4 .2-.1q1.7-1.2 1.7-4.3-.4-.8-1-1.8c-.5-.8-1.6-1.3-2.3-2"/></svg>
