<svg xmlns="http://www.w3.org/2000/svg" viewBox="0 0 128 128"><path fill="#df234f" d="M75.4.3q-1.4 0-2.6.5a7 7 0 0 1 3.1 4.3l.1.6.1.6c.1 2.9-.8 3.3-1.4 5q-1.4 3.5.5 6.5l.4.7c-1.3-8.4 5.7-9.6 7-12.2.1-2.3-1.8-3.8-3.3-4.9A7 7 0 0 0 75.4.3m10.5 1.8-.1 1-.1.9-.2.8-.3.8-.3.7-.3.4-.2.3-.5.7-.6.6-.6.5-2.2 1.4-.7.5-.6.5-.6.6-.5.7-.5.7-.4.8-.3.8-.2.8-.1.4-.1.4v1.4l.1.8.2.8.3.8.2.5-7.6-2.9-3.8-1-2.1-.5-6-.9h-.2q-3-.3-5.9-.3l-4.3.2q-3 .2-6 .7l-1.5.3-3 .7-1.5.4-1.4.6-1.1.5-.2.1-.9.5-.2.1-1 .5-.7.3-.3.2-.9.5-.8.5-.7.5-.1.1-.6.5-.1.1-.5.4-.2.1-.5.4-.1.1-.6.6-.1.1-.6.6-.1.1-.5.5-.2.2-.6.6-.1.2-.8.8-.1.1-1.7 1.6-3.9 2.8-2.1 1-2.1.8q-2.2.6-4 1 0-.6-.6-.4l-.8.2-.8.3-.8.4-.7.5-.7.6-.7.6-.6.7-.5.8-.5.8-.4.9-.3.9-.2.8v.1l-.1.9q.1 0 .1.3v.4l.1.6.2.6.4.6.4.6.6.5.6.5c.8.7 1 .9 2 1.5l.5.3h.1v.2l.2.8.3.8.3.6.1.2.4.7.5.7.6.6.6.6H8l.6.5.7.4.8.4.7.2.1.1.4.1c-.1 1.8-.1 3.5.1 4.1.3.7 1.8-1.4 3.2-3.7-.2 2.3-.3 5 0 5.8.4.8 2.3-1.8 4.1-4.6a38.3 38.3 0 0 1 47.1 33.7c-.4-3.6-4.8-5.6-6.9-5.1-1 2.4-2.7 5.6-5.4 7.5q.3-3.3-.3-6.6-1 4.6-4.1 8.3a9 9 0 0 1-7.9-3.6l-.3-.4-.3-.7-.2-.7v-1.2l.2-.7.2-.7.4-.7q1-2.5-.5-3.6l-.6-.3-.4-.1-.3-.1-.7-.2-.7-.1-.7-.1h-.5l-.7.1-.7.1-.7.2-.7.3-.6.3c-7.7 5-3.1 16.8 2.1 20.2-2 .4-4 .8-4.6 1.2l-.1.1q2.1 1.3 4.5 2.2l5.4 1.6q4 .9 8.3.6a31.5 31.5 0 0 0 28.8-26.8l.2.9.4 2.8v.1l.1.9.1 1.1v4.2l-.1.8v.3l-.1 1-.2.9v.1l-.2.9v.1l-.2.9v.1l-.3.9v.1l-.3 1-.4 1-.4 1-.4 1-.4.9-.1.2-.1.1a31 31 0 0 1-9.3 11.1l-.8.6-.2.2-.7.5.1.2 1.4-.2 2.6-.5.7-.2.5-.1.7-.1.6-.2q5-1.2 9.6-3.2a53 53 0 0 1-20.5 16.8q5.7-.4 11.3-2a53 53 0 0 0 31.2-25 54 54 0 0 1-8.9 21.3 52 52 0 0 0 22.7-35.4 53 53 0 0 1 1 15.9c23.9-33.3 2-67.8-7.2-76.9l-.1-.2-.1 1.2-.3 2.2-.6 2.2a18 18 0 0 1-1.8 4.1l-1.2 1.9-1.4 1.8-1.6 1.7-1 .8-.8.7-1.9 1.3-2 1.1-2.1.9a17 17 0 0 1-4.3 1.2l-2.2.3-1.6.1-2.2-.1-2.2-.3-2.2-.6q1.1 0 2.2-.3l2.2-.5 2.1-.7 2.1-.9 2-1.1 1.9-1.3 1.7-1.5 1.6-1.6 1.4-1.8.2-.3 1-1.6 1-2 .8-2.1.6-2.1.3-2.2.1-2.2-.1-1.6-.3-2.2-.5-2.2-.7-2.1-.9-2-1.1-2-1.3-1.8-1.5-1.7-.9-.8q-2.2-1.7-4.6-3.2l-.7-.3c-1.3-1.1-2.3-1.4-3.3-1.8"/></svg>