<svg xmlns="http://www.w3.org/2000/svg" width="32" height="32" viewBox="0 0 128 128"><path fill="#83cd29" d="M112.8 30.3 68.7 4.7a10 10 0 0 0-9.2 0L14.9 30.3a10 10 0 0 0-4.9 8.1v51.1c0 3.4 2 6.5 5 8.1l11.7 6.7c5.7 2.8 7.6 2.8 10.2 2.8 8.3 0 13.1-5 13.1-13.8V42.8c0-.7-.4-1.8-1-1.8h-5.7c-.7 0-2.3 1-2.3 1.8v50.5c0 3.9-3.5 7.7-10.1 4.4l-12.2-7q-.6-.4-.7-1.2v-51c0-.6.6-1 1-1.3l44.4-25.6q.7-.3 1.4 0l44 25.6q.3.4.2 1.2v51.1c0 .5.2 1-.2 1.2l-44.1 25.6q-.7.5-1.3 0l-11.3-6.7q-.5-.3-1-.1c-3.2 1.8-3.8 2-6.7 3-.8.3-1.8.7.4 2l14.8 8.7a9 9 0 0 0 4.6 1.3q2.6 0 4.7-1.3l43.9-25.6a9 9 0 0 0 4.2-8V38.3c0-3.3-1.4-6.4-4.2-8M77.9 81.4c-11.7 0-14.3-3.2-15.2-9 0-.6-.6-1.4-1.2-1.4h-5.8c-.7 0-1.2.9-1.2 1.6 0 7.4 4 16.5 23.4 16.5C92 89 100 83.6 100 74s-6.5-12.1-20-14c-13.8-1.7-15.2-2.7-15.2-5.9 0-2.6 1.1-6.2 11.3-6.2 9.1 0 12.5 2 13.9 8.1q.1 1 1.2 1H97q.5 0 1-.4.2-.4.2-1-1-15.6-22-15.5C63.4 40.1 56 45.5 56 54.4c0 9.7 7.5 12.4 19.6 13.6 14.5 1.4 15.6 3.5 15.6 6.4 0 5-4 7-13.3 7"/></svg>
