<svg xmlns="http://www.w3.org/2000/svg" width="32" height="32" viewBox="0 0 128 128"><g fill="#61dafb"><circle cx="64" cy="64" r="11.4"/><path d="m107 45-7-2 2-7q3-20-7-26l-6-2Q78 8 64 22 50 8 39 8l-6 2q-10 6-7 26l2 7-7 2Q1 53 1 64c0 11 7 14 20 19l7 2-2 7q-3 21 7 26l6 2q11 0 25-14 14 14 25 14l6-2q10-5 7-26l-2-7 7-2q20-8 20-19c0-11-7-14-20-19M93 15q6 4 3 20l-1 7q-8-2-17-3L68 26q11-11 21-12zM81 74l-6 10H53L42 64l11-20h22l12 20zm9-3 3 10-10 2 3-6zM64 98l-7-9 7 1h7zM45 83l-10-2 3-10 4 6zm-7-26-3-10 10-2-3 6zm26-27 7 9-7-1h-7zm22 21-3-6 10 2-3 10zM32 35q-3-16 4-20l3-1q10 1 21 12L50 39l-17 3zM7 64q1-8 16-13l6-2 6 15-6 16Q8 74 7 64m29 49q-7-4-4-20l1-7q8 2 17 3l10 13q-11 11-21 12zm60-20q3 17-4 20l-3 1q-9-1-21-12l10-13q9-1 17-3zm9-16-6 3-6-16 6-16q22 6 22 16 0 8-16 13"/></g></svg>
