<svg xmlns="http://www.w3.org/2000/svg" viewBox="0 0 128 128"><path fill="#a41e11" d="m122 93-49 22q-9 5-17 1L6 95l-5-4V78l56-13c8-3 10-3 17-1l53 12v13z"/><path fill="#d82c20" d="m122 81-49 21q-9 6-17 1L6 82q-9-4 0-8l51-19c8-3 10-3 17-1l48 19q9 3 0 7"/><path fill="#a41e11" d="M122 73 73 94q-9 6-17 1L6 74q-5-2-5-4V57l56-13c8-3 10-3 17 0s46 9 53 11v13z"/><path fill="#d82c20" d="M122 60 73 81q-9 6-17 1L6 62q-10-5 0-8l51-20c8-3 10-3 17-1l48 19q9 3 0 8"/><path fill="#a41e11" d="M122 51 73 73q-9 4-17 1L6 53l-5-4V36l56-13c8-3 10-3 17-1l53 12v13z"/><path fill="#d82c20" d="M122 38 73 60q-9 6-17 1c-8-5-43-18-50-21s-7-5 0-8l51-19c8-3 10-3 17-1l48 19q9 3 0 7"/><path fill="#fff" d="m80 26-10 1-3 6-4-6-12-1 9-4-3-5 9 3 8-2-2 5zM67 55l-21-9 29-4z"/><ellipse cx="38.4" cy="35.4" fill="#fff" rx="15.5" ry="6"/><path fill="#7a0c00" d="m93 28 17 6-17 7z"/><path fill="#ad2115" d="m74 35 19-7v13l-2 1z"/></svg>