<svg xmlns="http://www.w3.org/2000/svg" width="32" height="32" viewBox="0 0 128 128"><path fill="#ff3e00" d="M110.4 17A39 39 0 0 0 58.1 5.6l-29.8 19A34 34 0 0 0 13 47.6a25.5 30.6 0 0 0-.6 6.4 36 36 0 0 0 4.1 16.7 34 34 0 0 0-5 12.8 25.3 30.5 0 0 0 .3 14.4 37 37 0 0 0 5.9 13.2 39 39 0 0 0 52.3 11.2l29.7-19a34 34 0 0 0 15.5-23 36 36 0 0 0 .6-6.3 36 36 0 0 0-4.2-16.7 34 34 0 0 0 5.2-12.8q.5-3 .5-6.4a36 36 0 0 0-6.8-21.1z"/><path fill="#fff" d="M55.2 112.7a28.5 34.2 0 0 1-6 .7 24 24 0 0 1-19.4-10.2 22 22 0 0 1-4-12.7 15.7 18.8 0 0 1 .3-3.8 15.4 18.6 0 0 1 .7-2.8l.6-1.7 1.5 1.1a39 39 0 0 0 11.6 5.9l1.1.3v1.7a7 7 0 0 0 1.2 3.8 7 7 0 0 0 2.5 2.3 8.3 10 0 0 0 3.3.9 8.3 10 0 0 0 1.8-.3 7.3 8.7 0 0 0 1.8-.8l29.8-19a6 6 0 0 0 3-5.4 7 7 0 0 0-1.4-3.8 7 7 0 0 0-2.5-2.3 8.3 10 0 0 0-3.3-.8 8.2 10 0 0 0-1.8.2 7 8.3 0 0 0-1.8.8l-11.4 7.3a24.4 29.3 0 0 1-6 2.7 24 24 0 0 1-25.4-9.5 22 22 0 0 1-4-12.7q0-2 .2-3.8A21 21 0 0 1 37 37l29.8-19a22 22 0 0 1 6-2.7 24 24 0 0 1 6-.7 24 24 0 0 1 19.5 10.1 22 22 0 0 1 4 12.8 15.7 19 0 0 1-.3 3.8 15.4 18.5 0 0 1-.7 2.8l-.6 1.7-1.5-1a38 38 0 0 0-11.6-6l-1.1-.3V37a7 7 0 0 0-1.2-3.9 7 7 0 0 0-2.5-2.3 8.3 10 0 0 0-3.3-.8 8.2 9.9 0 0 0-1.8.3 6.8 8.2 0 0 0-1.8.8L46 50a5.9 7 0 0 0-1.9 1.8 4.8 5.7 0 0 0-1 2.4 5 6 0 0 0 0 1 7 7 0 0 0 1.2 4 7 7 0 0 0 2.5 2.2 8.3 10 0 0 0 3.3.8 8.2 10 0 0 0 1.8-.3 7 8.4 0 0 0 1.9-.8L65 53.8a24.2 29.1 0 0 1 6-2.6 28.5 34.3 0 0 1 6-.8 24 24 0 0 1 19.5 10.2 22 22 0 0 1 3.7 16.6A21 21 0 0 1 91 91l-29.7 19a24.3 29.2 0 0 1-6 2.7"/></svg>
