<svg xmlns="http://www.w3.org/2000/svg" width="256" height="256" viewBox="0 0 256 230"><path fill="#00435b" d="m158 142-5 9a8 8 0 0 1-7 4h-38a8 8 0 0 1-7-4l-5-9zm14-23-9 15H91l-9-15zm-9-24 9 15H82l9-15zm-17-22a8 8 0 0 1 7 4l5 9H96l5-9a8 8 0 0 1 7-4z"/><path fill="#002b3b" d="M54 69q-7-29-3-47 3-9 9-16 8-6 17-6 17 0 35 15 8 5 16 14l2-2q23-21 39-25 10-3 18-1 9 3 14 12 9 15 5 38 0 9-4 21h2q30 11 42 21 7 7 10 16 2 10-4 18-7 15-30 23l-19 7v2q6 31 3 47-3 10-9 16-7 7-18 7-16 0-35-15l-16-14-2 2q-22 20-39 26-10 3-18 0-9-3-14-12-8-15-5-38 0-9 4-21l-2-1q-30-9-42-21-7-7-10-16-2-9 4-18 7-14 30-23l20-7z"/><path fill="#ff4154" d="m190 161 4 3v1q10 54-14 53-24 0-60-45a4 4 0 0 1 2-6h2a354 354 0 0 0 66-6M79 135za358 358 0 0 0 39 54 4 4 0 0 1 0 6h-1q-41 36-54 14-12-19 9-75a4 4 0 0 1 7 0m125-52zq50 18 38 39-12 19-69 30a4 4 0 0 1-4-6 360 360 0 0 0 29-61zM84 77a4 4 0 0 1 2 5 359 359 0 0 0-29 61 4 4 0 0 1-5 2h-1q-50-18-38-39 12-19 69-30zm109-58q12 21-9 75a4 4 0 0 1-7 1v-2a358 358 0 0 0-39-54v-5h1v-1q41-35 54-14M77 11q24 0 61 45a4 4 0 0 1-3 6h-1a354 354 0 0 0-66 6l-4-3h-1v-1q-9-53 14-53"/><path fill="#ffd94c" d="M111 74h32a13 13 0 0 1 11 6l16 28a13 13 0 0 1 0 13l-16 27a13 13 0 0 1-11 7h-32q-7-1-11-7l-16-27a13 13 0 0 1 0-13l16-28a13 13 0 0 1 11-6m27 8q8 0 11 6l11 20a13 13 0 0 1 0 13l-11 19a13 13 0 0 1-11 6h-22q-8 0-11-6l-11-19a13 13 0 0 1 0-13l11-20a13 13 0 0 1 11-6zm-5 9h-12a13 13 0 0 0-11 7l-6 10a13 13 0 0 0 0 13l6 10a13 13 0 0 0 11 6h12q7 0 11-6l6-10a13 13 0 0 0 0-13l-6-10a13 13 0 0 0-11-7m-5 9q7 0 11 6l1 2a13 13 0 0 1 0 13l-1 1a13 13 0 0 1-11 7h-2a13 13 0 0 1-11-7l-1-1a13 13 0 0 1 0-13l1-2a13 13 0 0 1 11-6zm-1 8-5 3v6a6 6 0 0 0 10 0v-6zm-46 6h10"/></svg>