<svg xmlns="http://www.w3.org/2000/svg" width="32" height="32" viewBox="0 0 128 128"><defs><linearGradient id="a" x1="6" x2="235" y1="33" y2="344" gradientTransform="translate(0 1)scale(.3122)" gradientUnits="userSpaceOnUse"><stop offset="0" stop-color="#41d1ff"/><stop offset="1" stop-color="#bd34fe"/></linearGradient><linearGradient id="b" x1="194.7" x2="236.1" y1="8.8" y2="293" gradientTransform="translate(0 1)scale(.3122)" gradientUnits="userSpaceOnUse"><stop offset="0" stop-color="#ffea83"/><stop offset=".1" stop-color="#ffdd35"/><stop offset="1" stop-color="#ffa800"/></linearGradient></defs><path fill="url(#a)" d="M125 20 67 122q-3 3-5 0L3 20q-1-5 4-5l57 10h1l56-10q5 0 4 5m0 0"/><path fill="url(#b)" d="m91 1-42 9-1 1-3 44 2 2 12-3 2 2-4 17 2 2 7-2q3 0 2 2l-5 27q1 2 3 1v-1l35-69q1-2-2-2l-12 2-2-2 8-28zm0 0"/></svg>
