<svg xmlns="http://www.w3.org/2000/svg" width="499" height="445" fill="none"><mask id="a" width="499" height="445" x="0" y="0" maskUnits="userSpaceOnUse" style="mask-type:alpha"><path fill="#C4C4C4" d="M0 0h499v445H0z"/></mask><g mask="url(#a)"><path fill="#BCFBFF" d="M474.87 300.35c10.2-83.27-39.2-193.96-90.44-239.66-92.46-82.52-169.28-66.56-229.03-37C95.66 53.25 87.1 151.9 45.86 196.55c-41.25 44.64-64.73 104.68-2.13 164.47 62.61 59.78 113.1 29.4 178.54 25.62 65.44-3.78 152.2 26.05 199.14.09 32.8-18.11 48.96-49.57 53.46-86.38Z"/><path fill="#EBE8FF" d="M474.87 300.35c10.2-83.27-39.2-193.96-90.44-239.66-92.46-82.52-169.28-66.56-229.03-37C95.66 53.25 87.1 151.9 45.86 196.55c-41.25 44.64-64.73 104.68-2.13 164.47 62.61 59.78 113.1 29.4 178.54 25.62 65.44-3.78 152.2 26.05 199.14.09 32.8-18.11 48.96-49.57 53.46-86.38Z" opacity=".7"/><path fill="#BCFBFF" d="M215.13 427c86.6 0 156.8-21.87 156.8-48.85s-70.2-48.84-156.8-48.84c-86.59 0-156.79 21.86-156.79 48.84S128.54 427 215.14 427Z"/><path fill="#EBE8FF" d="M215.13 427c86.6 0 156.8-21.87 156.8-48.85s-70.2-48.84-156.8-48.84c-86.59 0-156.79 21.86-156.79 48.84S128.54 427 215.14 427Z" opacity=".5"/><path fill="#BCFBFF" d="M201.89 162.78s-35.53-4.22-58.91 14.02c-23.38 18.23-43.49 94.44-43.02 130.94.46 36.5 14.03 54.71 48.16 69.66 34.13 14.95 97.7 9.36 133.24-1.87 35.53-11.22 47.22-50.47 46.75-71.53-.46-21.06-23.84-45.35-31.79-50.46-7.95-5.12-30.39-15.9-41.6-32.74-11.21-16.85-27.6-53.35-52.83-58.03Z"/><path fill="#000" d="M287.88 373c-13.44-1.8-29.37-5.45-41.43-12.77-25.46-15.46-31.82-44.56-40.92-55.48-9.1-10.9-25.46-10-32.73-21.82-7.27-11.83 4.54-99.1-16.37-104.56a47.57 47.57 0 0 0-13.06-1.87l-.4.3c-23.37 18.23-43.48 94.44-43.01 130.94.46 36.5 14.03 54.71 48.16 69.66 34.13 14.95 97.7 9.36 133.24-1.87a56.36 56.36 0 0 0 6.52-2.52Z" opacity=".13"/><path stroke="#0F2C3A" stroke-linecap="round" stroke-linejoin="round" d="M201.89 162.78s-35.53-4.22-58.91 14.02c-23.38 18.23-43.49 94.44-43.02 130.94.46 36.5 14.03 54.71 48.16 69.66 34.13 14.95 97.7 9.36 133.24-1.87 35.53-11.22 47.22-50.47 46.75-71.53-.46-21.06-23.84-45.35-31.79-50.46-7.95-5.12-30.39-15.9-41.6-32.74-11.21-16.85-27.6-53.35-52.83-58.03Z"/><path fill="#0F2C3A" stroke="#0F2C3A" stroke-linecap="round" stroke-linejoin="round" d="M187.9 179.25s-23.2 4.44-27.28 8.53c-4.1 4.09-21.15 68.2-21.15 68.2a25.38 25.38 0 0 1 14.33.68c6.82 2.73 7.5 9.89 8.18 13.3.55 4.07.89 8.17 1.02 12.27 0 0 68.93-6.15 83.59-9.54 14.66-3.4 36.98-4.98 36.98-4.98s-37.7-85.03-43.5-88.1c-5.8-3.07-30.01-3.41-33.42-2.73-3.41.68-18.75 2.37-18.75 2.37Z"/><path stroke="#EBE8FF" stroke-linecap="round" stroke-linejoin="round" d="m165.05 258.02 5.8-47.4m-1.37 12.62 7.84-10.23m15.69 16.37s22.16-7.16 36.83-7.16"/><path stroke="#EBE8FF" stroke-linecap="round" stroke-linejoin="round" d="m213.93 209.83-1.48 11.37s3.75 0 4.09 1.7a4.51 4.51 0 0 1-1.36 3.41s10.57 5.8 11.93 12.62"/><path fill="#EBE8FF" d="M200.62 166.54s-12.72 4.1-14.55 7.27c-1.83 3.18-.45 25.47-.45 28.2 0 2.72 1.6-1.6 2.96-4.78s6.14-7.97 7.72-7.5c1.58.46 2.5 2.26 2.5 5.22s3.64 7.05 6.83 9.32c3.19 2.26 6.14 4.55 6.14 4.55s6.58-9.54 8.18-12.05c1.6-2.51 1.36-7.72 1.58-9.55.22-1.83 4.33 5 5.24 3.19.91-1.81-2.05-3.41-5.24-8.42-3.19-5-2.26-10.23-7.04-13.87-4.77-3.64-10.23-2.5-13.87-1.58Z"/><path fill="#BCFBFF" d="M186.07 173.8c-1.2 2.12-1.01 12.74-.74 20.46 2.9-3.74 8.9-10.8 12.36-9.47 4.42 1.7 6.11 14.27 6.11 14.27l-2.99-32.52h-.19s-12.72 4.1-14.55 7.26Z"/><path fill="#EBE8FF" d="M186.07 173.8c-1.2 2.12-1.01 12.74-.74 20.46 2.9-3.74 8.9-10.8 12.36-9.47 4.42 1.7 6.11 14.27 6.11 14.27l-2.99-32.52h-.19s-12.72 4.1-14.55 7.26Z" opacity=".5"/><path stroke="#0F2C3A" stroke-linecap="round" stroke-linejoin="round" d="M200.62 166.54s-12.72 4.1-14.55 7.27c-1.83 3.18-.45 25.47-.45 28.2 0 2.72 1.6-1.6 2.96-4.78s6.14-7.97 7.72-7.5c1.58.46 2.5 2.26 2.5 5.22s3.64 7.05 6.83 9.32c3.19 2.26 6.14 4.55 6.14 4.55s6.58-9.54 8.18-12.05c1.6-2.51 1.36-7.72 1.58-9.55.22-1.83 4.33 5 5.24 3.19.91-1.81-2.05-3.41-5.24-8.42-3.19-5-2.26-10.23-7.04-13.87-4.77-3.64-10.23-2.5-13.87-1.58Z"/><path fill="#EBE8FF" d="M170.5 258.7s-7.84-11.25-17.39-12.27c-9.55-1.02-21.14 6.82-21.48 9.55-.34 2.72-2.73 17.39-1.02 19.43 1.7 2.05 8.18 3.76 20.8-.34 12.61-4.09 17.73-9.2 19.1-16.37Z"/><path fill="#BCFBFF" d="M138.6 275.06s-2.73-7.8-1.36-10.52c1.36-2.71 6.82-6.82 10.19-10.9 3.36-4.1-7.96 2.3-8.5 0-.43-1.86 5.99-5.57 8.5-6.95-7.93 1.53-15.53 7.05-15.8 9.25-.34 2.72-2.73 17.39-1.02 19.43.87 1.05 3.04 2.02 6.65 2.14a44.97 44.97 0 0 0 1.34-2.45Z"/><path fill="#EBE8FF" d="M138.6 275.06s-2.73-7.8-1.36-10.52c1.36-2.71 6.82-6.82 10.19-10.9 3.36-4.1-7.96 2.3-8.5 0-.43-1.86 5.99-5.57 8.5-6.95-7.93 1.53-15.53 7.05-15.8 9.25-.34 2.72-2.73 17.39-1.02 19.43.87 1.05 3.04 2.02 6.65 2.14a44.97 44.97 0 0 0 1.34-2.45Z" opacity=".5"/><path stroke="#0F2C3A" stroke-linecap="round" stroke-linejoin="round" d="M170.5 258.7s-7.84-11.25-17.39-12.27c-9.55-1.02-21.14 6.82-21.48 9.55-.34 2.72-2.73 17.39-1.02 19.43 1.7 2.05 8.18 3.76 20.8-.34 12.61-4.09 17.73-9.2 19.1-16.37Z"/><path fill="#EBE8FF" d="M143.9 261.77s-12.79 5.08-13.3 15c-.28 5.47 8.87 7.85 18.42 7.85 9.55 0 23.19-11.93 32.06-17.05 8.86-5.11 29.32-17.05 31.7-18.07 2.4-1.03 10.58 1.7 13.99 2.73a46.17 46.17 0 0 0 9.89 1.02s4.77 7.5 7.16 7.5c2.39 0-5.12-11.25-6.14-13.64-1.02-2.39-17.73-7.84-19.78-7.84-2.04 0-49.78 11.93-56.94 14.66-7.16 2.73-17.05 7.85-17.05 7.85Z"/><path fill="#BCFBFF" d="M170.65 260.36c19.5-9.76 47.25-21.1 47.25-21.1-2.04 0-49.78 11.94-56.94 14.67-7.17 2.73-17.05 7.84-17.05 7.84s-12.8 5.08-13.3 15c-.29 5.47 8.86 7.85 18.41 7.85s23.19-11.93 32.05-17.05l5.38-3.1c-13.03 1.64-30.45 3.2-15.8-4.11Z"/><path fill="#EBE8FF" d="M170.65 260.36c19.5-9.76 47.25-21.1 47.25-21.1-2.04 0-49.78 11.94-56.94 14.67-7.17 2.73-17.05 7.84-17.05 7.84s-12.8 5.08-13.3 15c-.29 5.47 8.86 7.85 18.41 7.85s23.19-11.93 32.05-17.05l5.38-3.1c-13.03 1.64-30.45 3.2-15.8-4.11Z" opacity=".5"/><path stroke="#0F2C3A" stroke-linecap="round" stroke-linejoin="round" d="M143.9 261.77s-12.79 5.08-13.3 15c-.28 5.47 8.87 7.85 18.42 7.85 9.55 0 23.19-11.93 32.06-17.05 8.86-5.11 29.32-17.05 31.7-18.07 2.4-1.03 10.58 1.7 13.99 2.73a46.17 46.17 0 0 0 9.89 1.02s4.77 7.5 7.16 7.5c2.39 0-5.12-11.25-6.14-13.64-1.02-2.39-17.73-7.84-19.78-7.84-2.04 0-49.78 11.93-56.94 14.66-7.16 2.73-17.05 7.85-17.05 7.85Z"/><path fill="#EBE8FF" stroke="#0F2C3A" stroke-linecap="round" stroke-linejoin="round" d="m243.64 185.94-10.4 58.44 75.03.34 11.16-55.43a3.45 3.45 0 0 0-.7-2.8 3.44 3.44 0 0 0-2.58-1.3l-69.02-2.06a3.44 3.44 0 0 0-3.49 2.8v0Z"/><path fill="#EBE8FF" d="m233.25 244.38-36.53 25.84 83.55-2.39 28-23.1-75.02-.35Z"/><path fill="#BCFBFF" d="m233.25 244.38-36.53 25.84 83.55-2.39 28-23.1-75.02-.35Z"/><path fill="#EBE8FF" d="m233.25 244.38-36.53 25.84 83.55-2.39 28-23.1-75.02-.35Z" opacity=".5"/><path stroke="#0F2C3A" stroke-linecap="round" stroke-linejoin="round" d="m233.25 244.38-36.53 25.84 83.55-2.39 28-23.1-75.02-.35Z"/><path fill="#EBE8FF" d="M260.87 269.96s30-26.26 59.67-35.12c29.67-8.87 35.8-7.5 35.13 5.8-.68 13.3-15 82.86-24.55 100.59s-21.49 50.13-21.15 56.26c.34 6.14 11.94 24.21 22.17 30.7 10.23 6.47 9.2 14.32 2.73 15.68-6.48 1.36-13.98 3.75-36.15-10.57s-31.37-34.78-30-39.9c1.36-5.11 15.68-11.93 21.48-22.16 5.8-10.24 15.34-48.43 16.02-65.82a103.37 103.37 0 0 1 6.82-32.05s-37.5 6.82-48.42 13.64l-3.75-17.05Z"/><path fill="#BCFBFF" d="M260.87 269.96s30-26.26 59.67-35.12c29.67-8.87 35.8-7.5 35.13 5.8-.68 13.3-15 82.86-24.55 100.59s-21.49 50.13-21.15 56.26c.34 6.14 11.94 24.21 22.17 30.7 10.23 6.47 9.2 14.32 2.73 15.68-6.48 1.36-13.98 3.75-36.15-10.57s-31.37-34.78-30-39.9c1.36-5.11 15.68-11.93 21.48-22.16 5.8-10.24 15.34-48.43 16.02-65.82a103.37 103.37 0 0 1 6.82-32.05s-37.5 6.82-48.42 13.64l-3.75-17.05Z"/><path fill="#EBE8FF" d="M260.87 269.96s30-26.26 59.67-35.12c29.67-8.87 35.8-7.5 35.13 5.8-.68 13.3-15 82.86-24.55 100.59s-21.49 50.13-21.15 56.26c.34 6.14 11.94 24.21 22.17 30.7 10.23 6.47 9.2 14.32 2.73 15.68-6.48 1.36-13.98 3.75-36.15-10.57s-31.37-34.78-30-39.9c1.36-5.11 15.68-11.93 21.48-22.16 5.8-10.24 15.34-48.43 16.02-65.82a103.37 103.37 0 0 1 6.82-32.05s-37.5 6.82-48.42 13.64l-3.75-17.05Z" opacity=".5"/><path stroke="#0F2C3A" stroke-linecap="round" stroke-linejoin="round" d="M260.87 269.96s30-26.26 59.67-35.12c29.67-8.87 35.8-7.5 35.13 5.8-.68 13.3-15 82.86-24.55 100.59s-21.49 50.13-21.15 56.26c.34 6.14 11.94 24.21 22.17 30.7 10.23 6.47 9.2 14.32 2.73 15.68-6.48 1.36-13.98 3.75-36.15-10.57s-31.37-34.78-30-39.9c1.36-5.11 15.68-11.93 21.48-22.16 5.8-10.24 15.34-48.43 16.02-65.82a103.37 103.37 0 0 1 6.82-32.05s-37.5 6.82-48.42 13.64l-3.75-17.05Z"/><path fill="#EBE8FF" stroke="#0F2C3A" stroke-linecap="round" stroke-linejoin="round" d="M290.2 371.24a28.3 28.3 0 0 1-1.45 2.23 35.04 35.04 0 0 1 19.18 8 60.23 60.23 0 0 1 4.66 4.51 298.33 298.33 0 0 1 18.53-44.75c9.54-17.73 23.87-87.3 24.55-100.6.68-13.3-5.46-14.66-35.13-5.8-29.66 8.87-59.67 35.13-59.67 35.13l3.75 17.05c10.91-6.82 48.42-13.64 48.42-13.64a103.37 103.37 0 0 0-6.82 32.05c-.68 17.4-10.23 55.59-16.02 65.82Z"/><path fill="#0F2C3A" d="M290.2 371.24a28.3 28.3 0 0 1-1.45 2.23 35.04 35.04 0 0 1 19.18 8 60.23 60.23 0 0 1 4.66 4.51c6.54-8.78 13.89-36.49 22.18-47.89 21.43-29.45 20.22-84.16 20.9-97.46.68-13.3-5.46-14.66-35.13-5.8-29.66 8.87-59.67 35.13-59.67 35.13l3.75 17.05c10.91-6.82 48.42-13.64 48.42-13.64a103.37 103.37 0 0 0-6.82 32.05c-.68 17.4-10.23 55.59-16.02 65.82Z"/><path fill="#EBE8FF" d="M290.2 371.24a28.3 28.3 0 0 1-1.45 2.23 35.04 35.04 0 0 1 19.18 8 60.23 60.23 0 0 1 4.66 4.51c6.54-8.78 13.89-36.49 22.18-47.89 21.43-29.45 20.22-84.16 20.9-97.46.68-13.3-5.46-14.66-35.13-5.8-29.66 8.87-59.67 35.13-59.67 35.13l3.75 17.05c10.91-6.82 48.42-13.64 48.42-13.64a103.37 103.37 0 0 0-6.82 32.05c-.68 17.4-10.23 55.59-16.02 65.82Z" opacity=".53"/><path fill="#000" d="M341.25 238.83c-.53-4.84-53.28 17.49-75.53 27.12a148.49 148.49 0 0 0-4.85 4l3.75 17.06c10.91-6.82 48.42-13.64 48.42-13.64a103.37 103.37 0 0 0-6.82 32.05c-.68 17.4-10.23 55.59-16.02 65.82a28.13 28.13 0 0 1-1.45 2.23 38.64 38.64 0 0 1 10.91 2.83c8.17-17.44 16.97-37.72 21.13-53.58 7.5-28.65 21.14-77.75 20.46-83.89Z" opacity=".14"/><path stroke="#0F2C3A" stroke-linecap="round" stroke-linejoin="round" d="M313.04 273.37s10.23-20.8 19.1-29.33"/><path stroke="#0F2C3A" stroke-linecap="round" stroke-linejoin="round" d="M290.2 371.24a28.3 28.3 0 0 1-1.45 2.23 35.04 35.04 0 0 1 19.18 8 60.23 60.23 0 0 1 4.66 4.51c6.54-8.78 13.89-36.49 22.18-47.89 21.43-29.45 20.22-84.16 20.9-97.46.68-13.3-5.46-14.66-35.13-5.8-29.66 8.87-59.67 35.13-59.67 35.13l3.75 17.05c10.91-6.82 48.42-13.64 48.42-13.64a103.37 103.37 0 0 0-6.82 32.05c-.68 17.4-10.23 55.59-16.02 65.82Z"/><path fill="#0F2C3A" stroke="#0F2C3A" stroke-linecap="round" stroke-linejoin="round" d="M215.91 297.48a117.3 117.3 0 0 0 32.26-6.07c15.43-5.62-12.63-15.9-23.38-10.28a15.97 15.97 0 0 0-8.88 16.35v0Z"/><path fill="#EBE8FF" d="M171.53 275.42s-10.92 6.13-14.67 12.95c-3.75 6.82 12.39 18.19 29.44 17.5 17.05-.68 48.31-19.2 48.31-19.2s.34 30 6.14 40.92c5.8 10.91 32.4 37.5 42.97 44.33 10.57 6.82 46.03 32.4 51.49 36.49 5.45 4.09 15.68 11.59 18.07 11.93 2.39.34 27.28-30 33.08-40.24 5.8-10.23 10.9-31.71 8.86-36.48-2.04-4.78-6.14-.69-10.23 2.72-4.09 3.41-41.6 28.3-45 30.01a37.53 37.53 0 0 1-5.8 2.39s-30.7-29.33-47.06-51.83-17.74-51.5-23.87-62.4c-6.14-10.92-15-15.7-28.3-14.33-13.3 1.37-40.93 8.53-63.43 25.24Z"/><path fill="#BCFBFF" d="M315.81 394.33c9.11 6.52 17.04 12.27 19.4 14.05 5.45 4.09 15.68 11.6 18.07 11.93.85.12 4.53-3.63 9.18-8.96l-39.05-25.12-7.6 8.1Z"/><path fill="#EBE8FF" d="M315.81 394.33c9.11 6.52 17.04 12.27 19.4 14.05 5.45 4.09 15.68 11.6 18.07 11.93.85.12 4.53-3.63 9.18-8.96l-39.05-25.12-7.6 8.1Z" opacity=".5"/><path stroke="#0F2C3A" stroke-linecap="round" stroke-linejoin="round" d="M171.53 275.42s-10.92 6.13-14.67 12.95c-3.75 6.82 12.39 18.19 29.44 17.5 17.05-.68 48.31-19.2 48.31-19.2s.34 30 6.14 40.92c5.8 10.91 32.4 37.5 42.97 44.33 10.57 6.82 46.03 32.4 51.49 36.49 5.45 4.09 15.68 11.59 18.07 11.93 2.39.34 27.28-30 33.08-40.24 5.8-10.23 10.9-31.71 8.86-36.48-2.04-4.78-6.14-.69-10.23 2.72-4.09 3.41-41.6 28.3-45 30.01a37.53 37.53 0 0 1-5.8 2.39s-30.7-29.33-47.06-51.83-17.74-51.5-23.87-62.4c-6.14-10.92-15-15.7-28.3-14.33-13.3 1.37-40.93 8.53-63.43 25.24Z"/><path fill="#0F2C3A" d="M332.07 376.7c-7.21-7.05-34.26-43.34-44.94-64.21-15.65-30.58-17.34-41-23.48-51.92-6.14-10.9-15.4-11.75-28.64-10.39-13.25 1.37-37.1 3.83-66.3 20.4 0 0-12.27 6.65-16 13.47-3.74 6.82 9.91 24 33.64 21.82 17-1.55 48.32-19.2 48.32-19.2s.34 30 6.13 40.92c5.8 10.91 32.4 37.5 42.97 44.33 6.7 4.32 23.4 16.19 36.13 25.33 3.14-11.42 8.77-17.67 12.17-20.56Z"/><path fill="#EBE8FF" d="M332.07 376.7c-7.21-7.05-34.26-43.34-44.94-64.21-15.65-30.58-17.34-41-23.48-51.92-6.14-10.9-15.4-11.75-28.64-10.39-13.25 1.37-37.1 3.83-66.3 20.4 0 0-12.27 6.65-16 13.47-3.74 6.82 9.91 24 33.64 21.82 17-1.55 48.32-19.2 48.32-19.2s.34 30 6.13 40.92c5.8 10.91 32.4 37.5 42.97 44.33 6.7 4.32 23.4 16.19 36.13 25.33 3.14-11.42 8.77-17.67 12.17-20.56Z" opacity=".53"/><path fill="#000" d="M263.5 328.17c-10.23-25.91-4.09-77.74-32.73-70.92-20.87 4.96-59.13 22.61-78.35 31.82 2.28 7.83 14.82 18.55 33.88 16.8 17-1.55 48.31-19.2 48.31-19.2s.34 30 6.14 40.92c5.8 10.91 32.4 37.5 42.97 44.33 6.7 4.32 23.4 16.19 36.13 25.33a48.73 48.73 0 0 1 4.76-11.42c-25.4-18.78-55.4-43.18-61.1-57.66Z" opacity=".14"/><path stroke="#0F2C3A" stroke-linecap="round" stroke-linejoin="round" d="m234.61 286.67-1.02-17.73m98.48 107.75c-7.21-7.04-34.26-43.33-44.94-64.2-15.65-30.58-17.34-41-23.48-51.92-6.14-10.9-15.4-11.75-28.64-10.39-13.25 1.37-37.1 3.83-66.3 20.4 0 0-12.27 6.65-16 13.47-3.74 6.82 9.91 24 33.64 21.82 17-1.55 48.32-19.2 48.32-19.2s.34 30 6.13 40.92c5.8 10.91 32.4 37.5 42.97 44.33 6.7 4.32 23.4 16.19 36.13 25.33 3.14-11.42 8.77-17.67 12.17-20.56Z"/><path fill="#0F2C3A" stroke="#0F2C3A" stroke-linecap="round" stroke-linejoin="round" d="M335.2 408.4c5.46 4.1 15.7 11.6 18.08 11.94 2.39.34 27.28-30 33.08-40.24 5.8-10.23 10.9-31.71 8.86-36.49-2.04-4.77-6.14-.68-10.23 2.73-4.09 3.41-41.6 28.3-45 30.01-.9.45-1.73.82-2.45 1.13-.98 1.87-2.18 4.76-1.36 6.71 1.36 3.07 7.16 7.16 7.16 7.16L333 406.82l2.2 1.58Z"/><path fill="#EBE8FF" d="M386.36 380.1c5.8-10.23 10.9-31.71 8.86-36.49-1.18-2.72-3.05-2.55-5.22-1.2 1.43 6.36 0 18.65-7.05 31.9-6.3 11.8-25.71 32.73-35.47 42.85a22.88 22.88 0 0 0 5.83 3.18c2.36.34 27.25-30 33.05-40.24Z"/><path fill="#BCFBFF" d="m353.62 420.24.3-.15.08-.06a2.9 2.9 0 0 0 .47-.33l.16-.14.4-.32.21-.21.54-.5.32-.3.45-.44.39-.38.38-.38.97-1.03.16-.16.6-.66.25-.26c.7-.77 1.47-1.62 2.26-2.52v-.07l.85-.95-5.97-3.83a566.95 566.95 0 0 1-9.04 9.61l.91.6.14.08.85.54 1.36.77.38.22.38.2.44.22.29.14c.13.07.28.13.42.18l.2.08c.16.07.33.11.5.14a.52.52 0 0 0 .26 0l.1-.09Z"/><path fill="#EBE8FF" d="m353.62 420.24.3-.15.08-.06a2.9 2.9 0 0 0 .47-.33l.16-.14.4-.32.21-.21.54-.5.32-.3.45-.44.39-.38.38-.38.97-1.03.16-.16.6-.66.25-.26c.7-.77 1.47-1.62 2.26-2.52v-.07l.85-.95-5.97-3.83a566.95 566.95 0 0 1-9.04 9.61l.91.6.14.08.85.54 1.36.77.38.22.38.2.44.22.29.14c.13.07.28.13.42.18l.2.08c.16.07.33.11.5.14a.52.52 0 0 0 .26 0l.1-.09Z" opacity=".5"/><path stroke="#0F2C3A" stroke-linecap="round" stroke-linejoin="round" d="M386.36 380.1c5.8-10.23 10.9-31.71 8.86-36.49-1.18-2.72-3.05-2.55-5.22-1.2 1.43 6.36 0 18.65-7.05 31.9-6.3 11.8-25.71 32.73-35.47 42.85a22.88 22.88 0 0 0 5.83 3.18c2.36.34 27.25-30 33.05-40.24Z"/><path fill="#0F2C3A" stroke="#0F2C3A" stroke-linecap="round" stroke-linejoin="round" d="M332.14 428.18c-10.23-6.48-21.83-24.55-22.17-30.69a9.7 9.7 0 0 1 .17-2 9.76 9.76 0 0 0-5.62 2 130.26 130.26 0 0 0-13.3-10.57 27.86 27.86 0 0 0-12.28-3.67c-4.95 4.1-9.55 7.37-10.27 10.15-1.36 5.12 7.84 25.58 30.01 39.9 22.16 14.32 29.67 11.93 36.15 10.57 6.47-1.36 7.54-9.2-2.7-15.69Z"/><path fill="#EBE8FF" d="M332.14 428.18a44.58 44.58 0 0 1-9.09-8.18c-7.03-3-16.43-6.82-24.67-11.95-8.87-5.46-6.82-8.87-11.94-13.98-3.92-3.93-11.64-4.43-15-4.46a9.43 9.43 0 0 0-2.73 3.78c-1.36 5.11 7.84 25.57 30.01 39.9s29.67 11.93 36.15 10.57c6.47-1.37 7.5-9.2-2.73-15.68Z"/><path fill="#BCFBFF" d="M332.14 428.18a44.58 44.58 0 0 1-9.09-8.18c-7.03-3-16.43-6.82-24.67-11.95-8.87-5.46-6.82-8.87-11.94-13.98-3.92-3.93-11.64-4.43-15-4.46a9.43 9.43 0 0 0-2.73 3.78c-1.36 5.11 7.84 25.57 30.01 39.9s29.67 11.93 36.15 10.57c6.47-1.37 7.5-9.2-2.73-15.68Z"/><path fill="#EBE8FF" d="M332.14 428.18a44.58 44.58 0 0 1-9.09-8.18c-7.03-3-16.43-6.82-24.67-11.95-8.87-5.46-6.82-8.87-11.94-13.98-3.92-3.93-11.64-4.43-15-4.46a9.43 9.43 0 0 0-2.73 3.78c-1.36 5.11 7.84 25.57 30.01 39.9s29.67 11.93 36.15 10.57c6.47-1.37 7.5-9.2-2.73-15.68Z" opacity=".5"/><path stroke="#0F2C3A" stroke-linecap="round" stroke-linejoin="round" d="M332.14 428.18a44.58 44.58 0 0 1-9.09-8.18c-7.03-3-16.43-6.82-24.67-11.95-8.87-5.46-6.82-8.87-11.94-13.98-3.92-3.93-11.64-4.43-15-4.46a9.43 9.43 0 0 0-2.73 3.78c-1.36 5.11 7.84 25.57 30.01 39.9s29.67 11.93 36.15 10.57c6.47-1.37 7.5-9.2-2.73-15.68Z"/><path fill="#0F2C3A" d="M333.84 430.57c-8.86-5.12-26.94-8.53-38.53-16.37-11.6-7.84-8.53-14.66-17.05-20.12a8.66 8.66 0 0 0-9.55-.54c-1.18 5.32 8.05 25.54 30.01 39.76 21.96 14.21 29.67 11.93 36.15 10.57 4.3-.92 6.17-4.68 3.95-9a18.62 18.62 0 0 0-4.98-4.3Z"/><path fill="#EBE8FF" d="M333.84 430.57c-8.86-5.12-26.94-8.53-38.53-16.37-11.6-7.84-8.53-14.66-17.05-20.12a8.66 8.66 0 0 0-9.55-.54c-1.18 5.32 8.05 25.54 30.01 39.76 21.96 14.21 29.67 11.93 36.15 10.57 4.3-.92 6.17-4.68 3.95-9a18.62 18.62 0 0 0-4.98-4.3Z" opacity=".53"/><path stroke="#0F2C3A" stroke-linecap="round" stroke-linejoin="round" d="M333.84 430.57c-8.86-5.12-26.94-8.53-38.53-16.37-11.6-7.84-8.53-14.66-17.05-20.12a8.66 8.66 0 0 0-9.55-.54c-1.18 5.32 8.05 25.54 30.01 39.76 21.96 14.21 29.67 11.93 36.15 10.57 4.3-.92 6.17-4.68 3.95-9a18.62 18.62 0 0 0-4.98-4.3v0Z"/><path fill="#EBE8FF" stroke="#0F2C3A" stroke-linecap="round" stroke-linejoin="round" d="M163.92 365.34s6.54-7.95 7.47-1.87c.93 6.09-.46 17.3-5.14 21.5-4.68 4.2-7.01-2.33-7.01-2.33l2.8-3.74s2.34 4.68 4.2-2.8c1.88-7.5-3.73-6.56-3.73-6.56l1.4-4.2Z"/><path fill="#EBE8FF" stroke="#0F2C3A" stroke-linecap="round" stroke-linejoin="round" d="M158.91 395.27c-3.87 2.86-16.5 2.86-20.36 0-8.19-6.07-6.82-35.4-6.82-35.4h33.9s1.48 29.33-6.72 35.4Z"/><path stroke="#0F2C3A" stroke-linecap="round" stroke-linejoin="round" d="M135.44 354.12c0-3.68 3.42-3.68 3.42-7.38 0-3.7-3.42-3.7-3.42-7.38 0-3.68 3.42-3.7 3.42-7.4 0-3.69-3.42-3.7-3.42-7.39 0-3.7 3.42-3.7 3.42-7.39m8.3 36.94c0-2.73 3.42-2.73 3.42-5.6 0-2.89-3.43-2.8-3.43-5.61s3.43-2.8 3.43-5.61-3.43-2.81-3.43-5.62 3.43-2.8 3.43-5.6m9.46 28.04c0-3.68 3.41-3.68 3.41-7.38 0-3.7-3.4-3.7-3.4-7.38 0-3.68 3.4-3.7 3.4-7.4 0-3.69-3.4-3.7-3.4-7.39 0-3.7 3.4-3.7 3.4-7.39"/><path fill="#EBE8FF" stroke="#0F2C3A" stroke-linecap="round" stroke-linejoin="round" d="M165.66 359.87c0 .86-7.58 1.54-16.95 1.54s-16.96-.68-16.96-1.54 7.59-1.54 16.96-1.54c9.37 0 16.95.68 16.95 1.54Z"/><path fill="#EBE8FF" d="M196.97 148.8s1.6 17.23 2.26 22.68c.67 5.44 2.18 21.07 3.75 26.24 1.57 5.17 10.12 14.16 10.91 12.09.8-2.08 5.05-16.14 3.36-24.56-1.7-8.41-2.21-15.6-1.16-17.73 1.05-2.13 4.83-4.51 4.83-4.51a136.87 136.87 0 0 1-12.81-7.46c-6.03-4.01-10.3-8.56-11.14-6.74Z"/><path fill="#BCFBFF" d="m218.86 163.94-1.37-2.65c-2.5-1.36-6-3.38-9.31-5.6-6.07-4.1-10.34-8.7-11.19-6.83 0 0 1.6 17.23 2.27 22.67.67 5.45 2.18 21.08 3.75 26.25a17.6 17.6 0 0 0 2.2 4.25c-1.66-10.28.13-28.86.13-28.86l13.52-9.23Z"/><path fill="#EBE8FF" d="m218.86 163.94-1.37-2.65c-2.5-1.36-6-3.38-9.31-5.6-6.07-4.1-10.34-8.7-11.19-6.83 0 0 1.6 17.23 2.27 22.67.67 5.45 2.18 21.08 3.75 26.25a17.6 17.6 0 0 0 2.2 4.25c-1.66-10.28.13-28.86.13-28.86l13.52-9.23Z" opacity=".5"/><path stroke="#0F2C3A" stroke-linecap="round" stroke-linejoin="round" d="M196.97 148.8s1.6 17.23 2.26 22.68c.67 5.44 2.18 21.07 3.75 26.24 1.57 5.17 10.12 14.16 10.91 12.09.8-2.08 5.05-16.14 3.36-24.56-1.7-8.41-2.21-15.6-1.16-17.73 1.05-2.13 4.83-4.51 4.83-4.51a136.87 136.87 0 0 1-12.81-7.46c-6.03-4.01-10.3-8.56-11.14-6.74Z"/><path fill="#EBE8FF" d="M196.34 151.3s9.82 8.19 17.35 11.19c7.53 3 19.1 2.8 20.74-1.1 1.66-3.92-2.86-34.92-6.75-43.08-3.88-8.16-8.03-8.3-14.9-8.92-6.85-.63-20.57 4.96-22.99 11.6-2.41 6.62.34 16 2.33 21.57a40.92 40.92 0 0 0 4.22 8.74Z"/><path fill="#BCFBFF" d="M213.97 150.94c-3.47-10.32-4.35-26.55-4.35-30.87 0-3.34 8.7-7.01 12.67-8.51-2.6-1.61-5.63-1.82-9.54-2.17-6.82-.61-20.59 4.96-23 11.6-2.41 6.62.34 16 2.33 21.57a40.92 40.92 0 0 0 4.22 8.74s9.82 8.19 17.35 11.19a31.25 31.25 0 0 0 16.37 1.57c-5.4-2.04-13.73-6.24-16.05-13.12Z"/><path fill="#EBE8FF" d="M213.97 150.94c-3.47-10.32-4.35-26.55-4.35-30.87 0-3.34 8.7-7.01 12.67-8.51-2.6-1.61-5.63-1.82-9.54-2.17-6.82-.61-20.59 4.96-23 11.6-2.41 6.62.34 16 2.33 21.57a40.92 40.92 0 0 0 4.22 8.74s9.82 8.19 17.35 11.19a31.25 31.25 0 0 0 16.37 1.57c-5.4-2.04-13.73-6.24-16.05-13.12Z" opacity=".5"/><path stroke="#0F2C3A" stroke-linecap="round" stroke-linejoin="round" d="M196.34 151.3s9.82 8.19 17.35 11.19c7.53 3 19.1 2.8 20.74-1.1 1.66-3.92-2.86-34.92-6.75-43.08-3.88-8.16-8.03-8.3-14.9-8.92-6.85-.63-20.57 4.96-22.99 11.6-2.41 6.62.34 16 2.33 21.57a40.92 40.92 0 0 0 4.22 8.74v0Z"/><path stroke="#0F2C3A" stroke-linecap="round" stroke-linejoin="round" d="M228.42 131.08c.16 3.92-2.3 7.21-5.46 7.33-3.15.13-5.9-2.94-6.05-6.82-.15-3.87 2.3-7.21 5.45-7.35 3.15-.13 5.91 2.87 6.06 6.84Zm7.72-1.53c.16 3.93-1.1 7.16-2.82 7.23-1.72.07-3.25-3.06-3.4-6.99-.15-3.92 1.12-7.17 2.84-7.24 1.72-.07 3.23 3.07 3.38 7Z"/><path fill="#EBE8FF" d="M228.83 129.63s11.27 2.14 10.17 4.86c-1.09 2.71-8.7 5.64-8.7 5.64"/><path stroke="#0F2C3A" stroke-linecap="round" stroke-linejoin="round" d="M228.83 129.63s11.27 2.14 10.17 4.86c-1.09 2.71-8.7 5.64-8.7 5.64m-2.17-11.78s.17-1.37 1.9-.5m-13.48 4.29-20.48 8.06"/><path stroke="#0F2C3A" stroke-linecap="round" stroke-linejoin="round" strokeWidth="2" d="M216.83 125.51a5.2 5.2 0 0 1 5.1-3.08m8.54.1-3.15 1.18"/><path stroke="#0F2C3A" stroke-linecap="round" stroke-linejoin="round" d="M220.73 145.4s4.09-1.07 6.4 1.36"/><path fill="#0F2C3A" d="M223.36 131.78c.19 1.37 0 2.54-.56 2.61-.56.07-1.05-.98-1.24-2.36-.2-1.38.07-2.52.57-2.6.5-.06 1.05 1 1.23 2.35Z"/><path fill="#0F2C3A" stroke="#0F2C3A" stroke-linecap="round" stroke-linejoin="round" d="M197.97 140.26s-1.36 2.72 2.49 2.86c3.84.14 6.46-1.73 4.6-4.1-1.87-2.35-4.64-4.56-1.8-7.64 2.86-3.09 8.4-5.68 5.29-9.11-3.11-3.44-14.56-.32-11.7-3.1 2.87-2.78 16.1-5.69 22.05-5.32 5.95.37 17.05-4.24 19.5-10.27 2.43-6.03-.98-17.17-8.97-16.57-8 .6-13.95 7.67-17.5 8.18-3.55.5-10.82-3.44-16.91 0-6.1 3.44-6.3 13.31-6.82 14.53-.52 1.21-8.79 3.01-10.25 11.37a22.28 22.28 0 0 0 5.76 18.84c3.42 3.72 4.96 5.14 4.96 5.14l9.3-4.81Z"/><path stroke="#EBE8FF" stroke-linecap="round" stroke-linejoin="round" strokeWidth=".75" d="M180.63 125.14a6.49 6.49 0 0 0 .87 3.63m33.9-25.22s-2.98-6.5 4.6-6.5c7.59 0 8.68 9.54.82 13-7.85 3.47-24.94 4.34-34.17 8.42a11.98 11.98 0 0 0-4.69 3.32m19.7 4.87c-2.73.98-6.26 2.34-9.85 4-7.6 3.54-5.97 7.06-5.97 7.06m20.88-12.74s-.67.19-1.8.56"/><path fill="#EBE8FF" d="M199.27 143.18s-4.4-6.36-9.04-3.81c-4.64 2.55-1.04 11.62 1.76 14.77 2.8 3.15 8.18-2.73 8.74-4.2"/><path fill="#BCFBFF" d="M199.27 143.18s-4.4-6.36-9.04-3.81c-4.64 2.55-1.04 11.62 1.76 14.77 2.8 3.15 8.18-2.73 8.74-4.2"/><path fill="#EBE8FF" d="M199.27 143.18s-4.4-6.36-9.04-3.81c-4.64 2.55-1.04 11.62 1.76 14.77 2.8 3.15 8.18-2.73 8.74-4.2" opacity=".5"/><path stroke="#0F2C3A" stroke-linecap="round" stroke-linejoin="round" d="M199.27 143.18s-4.4-6.36-9.04-3.81c-4.64 2.55-1.04 11.62 1.76 14.77 2.8 3.15 8.18-2.73 8.74-4.2"/><path fill="#EBE8FF" stroke="#0F2C3A" stroke-linecap="round" stroke-linejoin="round" d="M143.63 137.38H45.86a6.98 6.98 0 0 0-6.98 6.98v71.47a6.98 6.98 0 0 0 6.98 6.99h97.77a6.98 6.98 0 0 0 6.99-6.99v-71.47a6.98 6.98 0 0 0-6.99-6.98Z"/><path fill="#EBE8FF" d="m148.49 198.84 65.47 17.05-65.47-32.05"/><path stroke="#0F2C3A" stroke-linecap="round" stroke-linejoin="round" d="m148.49 198.84 65.47 17.05-65.47-32.05"/><path fill="#BCFBFF" stroke="#0F2C3A" stroke-linecap="round" stroke-linejoin="round" d="M74.2 145.59H47.9v69.02h26.3v-69.02Zm70.62 0h-3.29v69.02h3.29v-69.02Z"/><path fill="#0F2C3A" stroke="#0F2C3A" stroke-linecap="round" stroke-linejoin="round" d="M144.82 177.14h-3.29v5.9h3.29v-5.9Z"/><path stroke="#0F2C3A" stroke-linecap="round" stroke-linejoin="round" d="M82.42 147.23h51.76m-51.76 7.39h51.76m-51.76 7.4h51.76m-51.76 7.4h51.76m-51.76 18.07h51.76m-51.76 6.58h51.76m-51.76 6.57h51.76m-51.76 13.64h51.76m-86.27.31 26.3-69"/><path fill="#BCFBFF" d="M444.06 405.6c12.6 0 22.81-4.58 22.81-10.23s-10.21-10.23-22.81-10.23-22.82 4.58-22.82 10.23 10.21 10.23 22.82 10.23Z"/><path fill="#EBE8FF" d="M444.06 405.6c12.6 0 22.81-4.58 22.81-10.23s-10.21-10.23-22.81-10.23-22.82 4.58-22.82 10.23 10.21 10.23 22.82 10.23Z" opacity=".5"/><path fill="#0F2C3A" d="M417.36 243.99c2.44 1.06 8.42.92 8.42.92s-1.28-3.9-1.37-4.09c-1.36-2.73-5.45-7.27-8.82-6.82a4.1 4.1 0 0 0-2.72 1.82 4.09 4.09 0 0 0-.51 3.23c.5 2.3 2.91 4.02 5 4.94Z"/><path fill="#0F2C3A" d="M495.6 223.65c-3.38-.35-7.4 4.27-8.65 7.05-.1.25-1.36 4.19-1.28 4.19h.07c-.64.72-1.36 1.51-2.03 2.39a75.06 75.06 0 0 0-4.29 5.59 70.48 70.48 0 0 0-4.43 7.07 52.52 52.52 0 0 0-3.8 8.53.29.29 0 0 0 0 .11v-4c-.39-3-2.91-8.61-6.27-9.23a4.08 4.08 0 0 0-3.14.89 4.1 4.1 0 0 0-1.5 2.9c-.18 2.4 1.55 4.8 3.24 6.3 1.9 1.71 7.2 3.36 7.62 3.48a73.74 73.74 0 0 0-2.23 9.25 145.7 145.7 0 0 0-.85 5.53v-1.75c-.4-3.01-2.92-8.6-6.26-9.22a4.1 4.1 0 0 0-3.15.88 4.12 4.12 0 0 0-1.05 1.29 4.1 4.1 0 0 0-.45 1.6c-.2 2.4 1.54 4.8 3.23 6.3 1.7 1.52 6.2 3.05 7.4 3.43-.07.71-.17 1.37-.26 2.13-.41 3.41-.8 6.82-1.29 10.16a128.13 128.13 0 0 1-.58 3.47v-1.5c-.4-3.02-2.92-8.61-6.28-9.24a4.1 4.1 0 0 0-3.14.89 4.1 4.1 0 0 0-1.5 2.9c-.19 2.4 1.55 4.8 3.24 6.3 1.69 1.52 5.77 2.9 7.19 3.35a88.18 88.18 0 0 1-.8 3.48c-.21.76-.38 1.51-.64 2.26-.26.75-.47 1.5-.72 2.24-.5 1.36-1.02 2.86-1.55 4.21-.37.96-.74 1.86-1.1 2.73.18-1.17.5-3.47.5-3.66a15.64 15.64 0 0 0-2.1-7.6 6.55 6.55 0 0 0 0-.9 4.1 4.1 0 0 0-1.71-2.77 4.1 4.1 0 0 0-3.2-.63c-3.3.87-5.38 6.64-5.54 9.67 0 .19.1 2.14.2 3.37l-.49-2.14a215.78 215.78 0 0 0-1.15-4.45l-.68-2.25c-.23-.75-.53-1.53-.79-2.3a67 67 0 0 0-2.2-5.33c1.29-.3 5.79-1.44 7.6-2.83 1.82-1.4 3.71-3.65 3.69-6.05a4.02 4.02 0 0 0-1.26-3 4 4 0 0 0-3.08-1.09c-3.4.37-6.33 5.76-6.95 8.73 0 .2-.23 2.37-.32 3.58a109.95 109.95 0 0 0-1.48-3.18c-1.5-3.04-3.13-6.07-4.74-9.11-.5-.93-.98-1.86-1.46-2.8.45-.1 5.84-1.36 7.85-2.9 1.8-1.37 3.72-3.65 3.7-6.05a4.1 4.1 0 0 0-.33-1.63 4.1 4.1 0 0 0-2.37-2.23 4.1 4.1 0 0 0-1.65-.23c-3.38.37-6.32 5.76-6.93 8.73 0 .22-.33 3.37-.37 4.17-1.06-2.06-2.1-4.09-3.05-6.18a71.43 71.43 0 0 1-3.32-8.56c.2 0 5.84-1.37 7.91-2.92 1.8-1.36 3.71-3.64 3.7-6.04a4.1 4.1 0 0 0-.33-1.63 4.1 4.1 0 0 0-2.37-2.23 4.1 4.1 0 0 0-1.65-.24c-3.38.37-6.32 5.76-6.93 8.73 0 .25-.35 3.63-.37 4.25 0-.18-.12-.34-.18-.52a51.53 51.53 0 0 1-1.71-9.06c-.2-1.68-.28-3.31-.33-4.9 1.08-.12 5.96-.77 8-2 2.02-1.23 4.08-3.2 4.33-5.6a4.1 4.1 0 0 0-3.87-4.58c-3.41 0-6.92 5.04-7.86 7.91 0 .17-.38 1.82-.61 3.03v-2.14a88.07 88.07 0 0 1 .66-10.27c.99-.67 4.91-3.45 6.13-5.46 1.21-2 2.15-4.73 1.27-6.95a4.02 4.02 0 0 0-2.26-2.38 4 4 0 0 0-3.28.1c-3.03 1.56-3.82 7.64-3.33 10.64 0 .26 1.19 4.23 1.24 4.2-.12.96-.26 2-.38 3.11-.2 2.09-.42 4.45-.48 7.04a72.65 72.65 0 0 0 .2 8.33c.24 3.11.76 6.2 1.55 9.2a.25.25 0 0 0 0 .12c-.53-.83-2.12-3.14-2.25-3.3-2-2.3-7.18-5.57-10.31-4.24a4.09 4.09 0 0 0-2.14 2.46 4.1 4.1 0 0 0 .35 3.25c1.16 2.12 3.93 3.15 6.18 3.48 2.52.37 7.85-1.17 8.28-1.3a72.57 72.57 0 0 0 3.23 8.94 120.9 120.9 0 0 0 2.35 5.07c-.5-.7-.93-1.36-1-1.36-2-2.3-7.19-5.57-10.31-4.24a4.1 4.1 0 0 0-2.15 2.47 4.1 4.1 0 0 0 .36 3.25c1.16 2.1 3.93 3.16 6.17 3.48 2.23.33 6.82-.9 8.06-1.24l.95 1.92c1.54 3.09 3.1 6.14 4.53 9.18a46.42 46.42 0 0 1 1.37 3.24 25.25 25.25 0 0 0-.86-1.24c-2-2.3-7.2-5.57-10.31-4.25a4.09 4.09 0 0 0-2.31 4.14c.06.56.24 1.1.52 1.6 1.16 2.1 3.93 3.13 6.16 3.46 2.24.32 6.41-.78 7.85-1.18.43 1.12.88 2.24 1.25 3.35.25.75.53 1.46.72 2.23.2.78.43 1.52.65 2.27.34 1.46.7 2.96 1.02 4.38.22 1 .4 1.93.6 2.89-.5-1.08-1.5-3.15-1.6-3.32-1.62-2.58-6.26-6.6-9.55-5.75a4 4 0 0 0-2.52 2.1 4 4 0 0 0-.1 3.28c.81 2.26 3.39 3.7 5.56 4.37 2.4.72 7.69 0 8.35 0a196.82 196.82 0 0 1 2.65 16.86c0 .53.1 1 .15 1.44h-10.24l3.29 64.25a9.2 9.2 0 0 0 9.18 8.71 9.18 9.18 0 0 0 9.16-8.71l3.3-64.25h-9.54c.07-.15.13-.28.22-.43a178.26 178.26 0 0 0 6.97-16.27c.64.13 5.87 1.2 8.32.64 2.22-.5 4.9-1.75 5.89-3.93a4.1 4.1 0 0 0-.82-4.67 4.1 4.1 0 0 0-1.4-.91c-3.24-1.08-8.19 2.59-9.96 5.03-.11.14-1.08 1.84-1.68 2.92.24-.7.5-1.36.76-2.07.52-1.37.99-2.81 1.5-4.34l.67-2.25c.22-.76.41-1.57.62-2.36a82.15 82.15 0 0 0 1.1-5.63c1.23.45 5.62 1.97 7.9 1.81 2.28-.16 5.1-1 6.4-3a4.1 4.1 0 0 0 .6-3.22 4.1 4.1 0 0 0-1.96-2.62c-3.02-1.57-8.44 1.37-10.6 3.45-.13.14-1.5 1.86-2.24 2.81.19-1.16.36-2.3.51-3.46.43-3.38.74-6.82 1.07-10.23l.33-3.12c.43.16 5.62 2.08 8.18 1.9 2.26-.16 5.1-1 6.41-3a4.08 4.08 0 0 0 .6-3.21 4.1 4.1 0 0 0-1.96-2.62c-3.03-1.57-8.46 1.36-10.6 3.45-.16.16-2.14 2.63-2.6 3.28.22-2.3.5-4.6.85-6.82a71.82 71.82 0 0 1 1.95-8.98c.2.08 5.6 2.1 8.19 1.92 2.26-.15 5.1-.98 6.4-3a4.08 4.08 0 0 0 .6-3.22 4.09 4.09 0 0 0-1.96-2.62c-3.02-1.56-8.44 1.36-10.6 3.46-.16.17-2.29 2.83-2.63 3.33 0-.16.08-.35.14-.52a51.45 51.45 0 0 1 3.56-8.5 54 54 0 0 1 2.43-4.26c.97.47 5.45 2.63 7.77 2.73 2.32.09 5.17-.43 6.7-2.28a4.11 4.11 0 0 0 .95-3.13 4.1 4.1 0 0 0-1.65-2.83c-2.83-1.89-8.54.38-10.9 2.27-.13.11-1.37 1.37-2.2 2.19l1.16-1.82c1.43-2.14 2.86-4 4.09-5.66.73-.94 1.43-1.76 2.07-2.53 1.2 0 6.02-.17 8.12-1.15 2.1-.98 4.4-2.73 4.9-5.12a4.1 4.1 0 0 0-1.75-4.59 4.1 4.1 0 0 0-1.64-.59Zm-37.47 90.9a208.62 208.62 0 0 1-5.28 11.21l-.73 1.46h-.24a195.52 195.52 0 0 0-3.38-19.08 48.01 48.01 0 0 0 4.67-2.19 28.83 28.83 0 0 0 6.82 4.37c-.66 1.43-1.26 2.88-1.86 4.23Z"/><path fill="#0F2C3A" d="M477.77 245.3s1.08-3.97 1.12-4.23c.42-3.02-.54-9.07-3.6-10.56a4.09 4.09 0 0 0-4.6 1 4.1 4.1 0 0 0-.86 1.43c-.81 2.26.22 5.03 1.46 6.94 1.42 2.24 6.47 5.42 6.48 5.42Z"/></g></svg>