<svg xmlns="http://www.w3.org/2000/svg" width="499" height="445" fill="none"><mask id="a" width="499" height="445" x="0" y="0" maskUnits="userSpaceOnUse" style="mask-type:alpha"><path fill="#C4C4C4" d="M0 0h499v445H0z"/></mask><g mask="url(#a)"><path fill="#BCFBFF" d="M474.867 300.348c10.203-83.272-39.201-193.96-90.433-239.654C291.969-21.828 215.148-5.87 155.405 23.688 95.662 53.246 87.109 151.904 45.862 196.548c-41.247 44.644-64.735 104.687-2.128 164.471 62.608 59.784 113.09 29.394 178.534 25.616 65.445-3.778 152.209 26.052 199.144.095 32.804-18.113 48.954-49.567 53.455-86.382Z"/><path fill="#EBE8FF" d="M474.867 300.348c10.203-83.272-39.201-193.96-90.433-239.654C291.969-21.828 215.148-5.87 155.405 23.688 95.662 53.246 87.109 151.904 45.862 196.548c-41.247 44.644-64.735 104.687-2.128 164.471 62.608 59.784 113.09 29.394 178.534 25.616 65.445-3.778 152.209 26.052 199.144.095 32.804-18.113 48.954-49.567 53.455-86.382Z" opacity=".7"/><path fill="#BCFBFF" d="M215.134 426.996c86.594 0 156.792-21.869 156.792-48.845s-70.198-48.845-156.792-48.845c-86.593 0-156.791 21.869-156.791 48.845s70.198 48.845 156.791 48.845Z"/><path fill="#EBE8FF" d="M215.134 426.996c86.594 0 156.792-21.869 156.792-48.845s-70.198-48.845-156.792-48.845c-86.593 0-156.791 21.869-156.791 48.845s70.198 48.845 156.791 48.845Z" opacity=".5"/><path fill="#BCFBFF" d="M201.89 162.775s-35.532-4.214-58.911 14.022c-23.379 18.237-43.485 94.444-43.02 130.944.463 36.501 14.035 54.71 48.162 69.66 34.127 14.949 97.703 9.357 133.236-1.869 35.532-11.226 47.221-50.468 46.758-71.528-.464-21.06-23.843-45.353-31.795-50.468-7.952-5.115-30.39-15.891-41.602-32.736-11.212-16.845-27.594-53.346-52.828-58.025Z"/><path fill="#000" d="M287.877 373.009c-13.436-1.815-29.367-5.456-41.425-12.781-25.466-15.454-31.822-44.562-40.92-55.474-9.098-10.912-25.466-9.998-32.736-21.824-7.27-11.826 4.542-99.108-16.368-104.564a47.571 47.571 0 0 0-13.054-1.869c-.122.109-.272.191-.395.3-23.379 18.237-43.485 94.444-43.02 130.944.463 36.501 14.035 54.71 48.162 69.66 34.127 14.949 97.703 9.357 133.236-1.869a56.362 56.362 0 0 0 6.52-2.523Z" opacity=".13"/><path stroke="#0F2C3A" stroke-linecap="round" stroke-linejoin="round" d="M201.89 162.775s-35.532-4.214-58.911 14.022c-23.379 18.237-43.485 94.444-43.02 130.944.463 36.501 14.035 54.71 48.162 69.66 34.127 14.949 97.703 9.357 133.236-1.869 35.532-11.226 47.221-50.468 46.758-71.528-.464-21.06-23.843-45.353-31.795-50.468-7.952-5.115-30.39-15.891-41.602-32.736-11.212-16.845-27.594-53.346-52.828-58.025Z"/><path fill="#0F2C3A" stroke="#0F2C3A" stroke-linecap="round" stroke-linejoin="round" d="M187.895 179.252s-23.188 4.433-27.28 8.525c-4.092 4.092-21.142 68.2-21.142 68.2a25.38 25.38 0 0 1 14.322.682c6.82 2.728 7.502 9.889 8.184 13.299.548 4.073.889 8.17 1.023 12.276 0 0 68.923-6.151 83.586-9.548 14.663-3.396 36.978-4.978 36.978-4.978s-37.701-85.032-43.498-88.101c-5.797-3.069-30.008-3.41-33.418-2.728-3.41.682-18.755 2.373-18.755 2.373Z"/><path stroke="#EBE8FF" stroke-linecap="round" stroke-linejoin="round" d="m165.048 258.024 5.797-47.399M169.481 223.242l7.843-10.231M193.01 229.379s22.165-7.16 36.828-7.16"/><path stroke="#EBE8FF" stroke-linecap="round" stroke-linejoin="round" d="m213.934 209.833-1.487 11.363s3.751 0 4.092 1.705a4.514 4.514 0 0 1-1.364 3.41s10.571 5.796 11.935 12.616"/><path fill="#EBE8FF" d="M200.622 166.54s-12.727 4.092-14.554 7.27c-1.828 3.178-.45 25.466-.45 28.194 0 2.728 1.595-1.596 2.959-4.774s6.138-7.966 7.721-7.502c1.582.464 2.509 2.264 2.509 5.224 0 2.96 3.629 7.052 6.82 9.316 3.192 2.264 6.138 4.556 6.138 4.556s6.589-9.548 8.184-12.058c1.596-2.51 1.364-7.72 1.583-9.548.218-1.828 4.324 5.006 5.237 3.192.914-1.814-2.046-3.41-5.237-8.416-3.192-5.006-2.265-10.23-7.039-13.872-4.774-3.642-10.23-2.51-13.871-1.582Z"/><path fill="#BCFBFF" d="M186.068 173.796c-1.201 2.128-1.01 12.74-.737 20.46 2.905-3.737 8.893-10.802 12.358-9.466 4.419 1.705 6.111 14.268 6.111 14.268l-2.988-32.518h-.19s-12.727 4.092-14.554 7.256Z"/><path fill="#EBE8FF" d="M186.068 173.796c-1.201 2.128-1.01 12.74-.737 20.46 2.905-3.737 8.893-10.802 12.358-9.466 4.419 1.705 6.111 14.268 6.111 14.268l-2.988-32.518h-.19s-12.727 4.092-14.554 7.256Z" opacity=".5"/><path stroke="#0F2C3A" stroke-linecap="round" stroke-linejoin="round" d="M200.622 166.54s-12.727 4.092-14.554 7.27c-1.828 3.178-.45 25.466-.45 28.194 0 2.728 1.595-1.596 2.959-4.774s6.138-7.966 7.721-7.502c1.582.464 2.509 2.264 2.509 5.224 0 2.96 3.629 7.052 6.82 9.316 3.192 2.264 6.138 4.556 6.138 4.556s6.589-9.548 8.184-12.058c1.596-2.51 1.364-7.72 1.583-9.548.218-1.828 4.324 5.006 5.237 3.192.914-1.814-2.046-3.41-5.237-8.416-3.192-5.006-2.265-10.23-7.039-13.872-4.774-3.642-10.23-2.51-13.871-1.582Z"/><path fill="#EBE8FF" d="M170.504 258.705s-7.843-11.253-17.391-12.276c-9.548-1.023-21.142 6.82-21.483 9.548-.341 2.728-2.728 17.392-1.023 19.438 1.705 2.046 8.184 3.751 20.801-.341 12.617-4.092 17.732-9.207 19.096-16.369Z"/><path fill="#BCFBFF" d="M138.6 275.06s-2.728-7.802-1.364-10.517c1.364-2.714 6.82-6.82 10.19-10.912 3.369-4.092-7.953 2.306-8.498 0-.423-1.855 5.988-5.565 8.511-6.942-7.938 1.527-15.536 7.052-15.809 9.248-.341 2.728-2.728 17.391-1.023 19.437.873 1.05 3.042 2.018 6.657 2.141a44.968 44.968 0 0 0 1.336-2.455Z"/><path fill="#EBE8FF" d="M138.6 275.06s-2.728-7.802-1.364-10.517c1.364-2.714 6.82-6.82 10.19-10.912 3.369-4.092-7.953 2.306-8.498 0-.423-1.855 5.988-5.565 8.511-6.942-7.938 1.527-15.536 7.052-15.809 9.248-.341 2.728-2.728 17.391-1.023 19.437.873 1.05 3.042 2.018 6.657 2.141a44.968 44.968 0 0 0 1.336-2.455Z" opacity=".5"/><path stroke="#0F2C3A" stroke-linecap="round" stroke-linejoin="round" d="M170.504 258.705s-7.843-11.253-17.391-12.276c-9.548-1.023-21.142 6.82-21.483 9.548-.341 2.728-2.728 17.392-1.023 19.438 1.705 2.046 8.184 3.751 20.801-.341 12.617-4.092 17.732-9.207 19.096-16.369Z"/><path fill="#EBE8FF" d="M143.906 261.775s-12.794 5.074-13.299 15.004c-.286 5.456 8.866 7.843 18.414 7.843 9.548 0 23.188-11.935 32.054-17.05 8.866-5.115 29.326-17.05 31.713-18.074 2.387-1.023 10.571 1.706 13.981 2.729a46.166 46.166 0 0 0 9.889 1.023s4.774 7.502 7.161 7.502c2.387 0-5.115-11.254-6.138-13.641-1.023-2.387-17.732-7.843-19.778-7.843-2.046 0-49.786 11.936-56.947 14.664-7.161 2.728-17.05 7.843-17.05 7.843Z"/><path fill="#BCFBFF" d="M170.654 260.356c19.492-9.753 47.249-21.088 47.249-21.088-2.046 0-49.786 11.936-56.947 14.664-7.161 2.728-17.05 7.843-17.05 7.843s-12.794 5.074-13.299 15.004c-.286 5.456 8.866 7.843 18.414 7.843 9.548 0 23.188-11.935 32.054-17.05l5.375-3.11c-13.027 1.65-30.445 3.205-15.796-4.106Z"/><path fill="#EBE8FF" d="M170.654 260.356c19.492-9.753 47.249-21.088 47.249-21.088-2.046 0-49.786 11.936-56.947 14.664-7.161 2.728-17.05 7.843-17.05 7.843s-12.794 5.074-13.299 15.004c-.286 5.456 8.866 7.843 18.414 7.843 9.548 0 23.188-11.935 32.054-17.05l5.375-3.11c-13.027 1.65-30.445 3.205-15.796-4.106Z" opacity=".5"/><path stroke="#0F2C3A" stroke-linecap="round" stroke-linejoin="round" d="M143.906 261.775s-12.794 5.074-13.299 15.004c-.286 5.456 8.866 7.843 18.414 7.843 9.548 0 23.188-11.935 32.054-17.05 8.866-5.115 29.326-17.05 31.713-18.074 2.387-1.023 10.571 1.706 13.981 2.729a46.166 46.166 0 0 0 9.889 1.023s4.774 7.502 7.161 7.502c2.387 0-5.115-11.254-6.138-13.641-1.023-2.387-17.732-7.843-19.778-7.843-2.046 0-49.786 11.936-56.947 14.664-7.161 2.728-17.05 7.843-17.05 7.843Z"/><path fill="#EBE8FF" stroke="#0F2C3A" stroke-linecap="round" stroke-linejoin="round" d="m243.642 185.936-10.394 58.447 75.02.341 11.158-55.433a3.446 3.446 0 0 0-.696-2.798 3.444 3.444 0 0 0-2.578-1.294l-69.018-2.073a3.435 3.435 0 0 0-3.492 2.81v0Z"/><path fill="#EBE8FF" d="m233.248 244.383-36.528 25.835 83.545-2.387 28.003-23.107-75.02-.341Z"/><path fill="#BCFBFF" d="m233.248 244.383-36.528 25.835 83.545-2.387 28.003-23.107-75.02-.341Z"/><path fill="#EBE8FF" d="m233.248 244.383-36.528 25.835 83.545-2.387 28.003-23.107-75.02-.341Z" opacity=".5"/><path stroke="#0F2C3A" stroke-linecap="round" stroke-linejoin="round" d="m233.248 244.383-36.528 25.835 83.545-2.387 28.003-23.107-75.02-.341Z"/><path fill="#EBE8FF" d="M260.869 269.958s30.008-26.257 59.675-35.123c29.667-8.866 35.805-7.502 35.123 5.797-.682 13.299-15.004 82.863-24.552 100.595s-21.483 50.128-21.142 56.266c.341 6.138 11.935 24.211 22.165 30.69 10.23 6.479 9.207 14.322 2.728 15.686-6.479 1.364-13.981 3.751-36.146-10.571s-31.372-34.782-30.008-39.897c1.364-5.115 15.686-11.935 21.483-22.165 5.797-10.231 15.345-48.423 16.027-65.814a103.37 103.37 0 0 1 6.82-32.054s-37.51 6.82-48.422 13.64l-3.751-17.05Z"/><path fill="#BCFBFF" d="M260.869 269.958s30.008-26.257 59.675-35.123c29.667-8.866 35.805-7.502 35.123 5.797-.682 13.299-15.004 82.863-24.552 100.595s-21.483 50.128-21.142 56.266c.341 6.138 11.935 24.211 22.165 30.69 10.23 6.479 9.207 14.322 2.728 15.686-6.479 1.364-13.981 3.751-36.146-10.571s-31.372-34.782-30.008-39.897c1.364-5.115 15.686-11.935 21.483-22.165 5.797-10.231 15.345-48.423 16.027-65.814a103.37 103.37 0 0 1 6.82-32.054s-37.51 6.82-48.422 13.64l-3.751-17.05Z"/><path fill="#EBE8FF" d="M260.869 269.958s30.008-26.257 59.675-35.123c29.667-8.866 35.805-7.502 35.123 5.797-.682 13.299-15.004 82.863-24.552 100.595s-21.483 50.128-21.142 56.266c.341 6.138 11.935 24.211 22.165 30.69 10.23 6.479 9.207 14.322 2.728 15.686-6.479 1.364-13.981 3.751-36.146-10.571s-31.372-34.782-30.008-39.897c1.364-5.115 15.686-11.935 21.483-22.165 5.797-10.231 15.345-48.423 16.027-65.814a103.37 103.37 0 0 1 6.82-32.054s-37.51 6.82-48.422 13.64l-3.751-17.05Z" opacity=".5"/><path stroke="#0F2C3A" stroke-linecap="round" stroke-linejoin="round" d="M260.869 269.958s30.008-26.257 59.675-35.123c29.667-8.866 35.805-7.502 35.123 5.797-.682 13.299-15.004 82.863-24.552 100.595s-21.483 50.128-21.142 56.266c.341 6.138 11.935 24.211 22.165 30.69 10.23 6.479 9.207 14.322 2.728 15.686-6.479 1.364-13.981 3.751-36.146-10.571s-31.372-34.782-30.008-39.897c1.364-5.115 15.686-11.935 21.483-22.165 5.797-10.231 15.345-48.423 16.027-65.814a103.37 103.37 0 0 1 6.82-32.054s-37.51 6.82-48.422 13.64l-3.751-17.05Z"/><path fill="#EBE8FF" stroke="#0F2C3A" stroke-linecap="round" stroke-linejoin="round" d="M290.195 371.236a28.3 28.3 0 0 1-1.445 2.236 35.044 35.044 0 0 1 19.177 7.994 60.235 60.235 0 0 1 4.665 4.514 298.327 298.327 0 0 1 18.523-44.753c9.548-17.732 23.87-87.296 24.552-100.595.682-13.299-5.456-14.663-35.123-5.797-29.667 8.866-59.675 35.123-59.675 35.123l3.751 17.05c10.912-6.82 48.422-13.64 48.422-13.64a103.37 103.37 0 0 0-6.82 32.054c-.682 17.391-10.23 55.583-16.027 65.814Z"/><path fill="#0F2C3A" d="M290.195 371.236a28.3 28.3 0 0 1-1.445 2.236 35.044 35.044 0 0 1 19.177 7.994 60.235 60.235 0 0 1 4.665 4.514c6.534-8.784 13.886-36.487 22.179-47.89 21.428-29.449 20.214-84.159 20.896-97.458.682-13.299-5.456-14.663-35.123-5.797-29.667 8.866-59.675 35.123-59.675 35.123l3.751 17.05c10.912-6.82 48.422-13.64 48.422-13.64a103.37 103.37 0 0 0-6.82 32.054c-.682 17.391-10.23 55.583-16.027 65.814Z"/><path fill="#EBE8FF" d="M290.195 371.236a28.3 28.3 0 0 1-1.445 2.236 35.044 35.044 0 0 1 19.177 7.994 60.235 60.235 0 0 1 4.665 4.514c6.534-8.784 13.886-36.487 22.179-47.89 21.428-29.449 20.214-84.159 20.896-97.458.682-13.299-5.456-14.663-35.123-5.797-29.667 8.866-59.675 35.123-59.675 35.123l3.751 17.05c10.912-6.82 48.422-13.64 48.422-13.64a103.37 103.37 0 0 0-6.82 32.054c-.682 17.391-10.23 55.583-16.027 65.814Z" opacity=".53"/><path fill="#000" d="M341.25 238.832c-.532-4.842-53.278 17.486-75.525 27.116-3.082 2.455-4.856 4.01-4.856 4.01l3.751 17.05c10.912-6.82 48.422-13.64 48.422-13.64a103.37 103.37 0 0 0-6.82 32.054c-.682 17.391-10.23 55.583-16.027 65.813a28.134 28.134 0 0 1-1.445 2.237 38.64 38.64 0 0 1 10.912 2.824c8.17-17.432 16.968-37.715 21.128-53.578 7.502-28.644 21.142-77.748 20.46-83.886Z" opacity=".14"/><path stroke="#0F2C3A" stroke-linecap="round" stroke-linejoin="round" d="M313.042 273.368s10.23-20.8 19.096-29.325"/><path stroke="#0F2C3A" stroke-linecap="round" stroke-linejoin="round" d="M290.195 371.236a28.3 28.3 0 0 1-1.445 2.236 35.044 35.044 0 0 1 19.177 7.994 60.235 60.235 0 0 1 4.665 4.514c6.534-8.784 13.886-36.487 22.179-47.89 21.428-29.449 20.214-84.159 20.896-97.458.682-13.299-5.456-14.663-35.123-5.797-29.667 8.866-59.675 35.123-59.675 35.123l3.751 17.05c10.912-6.82 48.422-13.64 48.422-13.64a103.37 103.37 0 0 0-6.82 32.054c-.682 17.391-10.23 55.583-16.027 65.814Z"/><path fill="#0F2C3A" stroke="#0F2C3A" stroke-linecap="round" stroke-linejoin="round" d="M215.912 297.484a117.306 117.306 0 0 0 32.259-6.07c15.426-5.619-12.631-15.904-23.379-10.284a15.97 15.97 0 0 0-8.88 16.354v0Z"/><path fill="#EBE8FF" d="M171.527 275.415s-10.912 6.138-14.663 12.958c-3.751 6.82 12.386 18.182 29.436 17.5 17.05-.682 48.312-19.205 48.312-19.205s.341 30.008 6.138 40.92c5.797 10.912 32.395 37.51 42.966 44.33 10.571 6.82 46.035 32.395 51.491 36.487 5.456 4.092 15.686 11.594 18.073 11.935 2.387.341 27.28-30.008 33.077-40.238 5.797-10.23 10.912-31.713 8.866-36.487-2.046-4.774-6.138-.682-10.23 2.728-4.092 3.41-41.602 28.303-45.012 30.008a37.53 37.53 0 0 1-5.797 2.387s-30.69-29.326-47.058-51.832-17.732-51.491-23.87-62.403c-6.138-10.912-15.004-15.686-28.303-14.322-13.299 1.364-40.92 8.525-63.426 25.234Z"/><path fill="#BCFBFF" d="M315.811 394.328c9.112 6.52 17.037 12.276 19.396 14.049 5.456 4.092 15.686 11.594 18.073 11.935.846.123 4.529-3.628 9.18-8.961l-39.051-25.125-7.598 8.102Z"/><path fill="#EBE8FF" d="M315.811 394.328c9.112 6.52 17.037 12.276 19.396 14.049 5.456 4.092 15.686 11.594 18.073 11.935.846.123 4.529-3.628 9.18-8.961l-39.051-25.125-7.598 8.102Z" opacity=".5"/><path stroke="#0F2C3A" stroke-linecap="round" stroke-linejoin="round" d="M171.527 275.415s-10.912 6.138-14.663 12.958c-3.751 6.82 12.386 18.182 29.436 17.5 17.05-.682 48.312-19.205 48.312-19.205s.341 30.008 6.138 40.92c5.797 10.912 32.395 37.51 42.966 44.33 10.571 6.82 46.035 32.395 51.491 36.487 5.456 4.092 15.686 11.594 18.073 11.935 2.387.341 27.28-30.008 33.077-40.238 5.797-10.23 10.912-31.713 8.866-36.487-2.046-4.774-6.138-.682-10.23 2.728-4.092 3.41-41.602 28.303-45.012 30.008a37.53 37.53 0 0 1-5.797 2.387s-30.69-29.326-47.058-51.832-17.732-51.491-23.87-62.403c-6.138-10.912-15.004-15.686-28.303-14.322-13.299 1.364-40.92 8.525-63.426 25.234Z"/><path fill="#0F2C3A" d="M332.07 376.692c-7.215-7.039-34.264-43.335-44.944-64.204-15.645-30.581-17.336-41.002-23.474-51.914-6.138-10.912-15.4-11.757-28.644-10.393-13.245 1.364-37.101 3.832-66.29 20.391 0 0-12.276 6.657-16.014 13.477-3.737 6.82 9.916 23.992 33.65 21.824 16.995-1.555 48.313-19.205 48.313-19.205s.341 30.008 6.138 40.92c5.797 10.912 32.395 37.51 42.966 44.33 6.697 4.323 23.406 16.19 36.132 25.329 3.137-11.417 8.771-17.664 12.167-20.555Z"/><path fill="#EBE8FF" d="M332.07 376.692c-7.215-7.039-34.264-43.335-44.944-64.204-15.645-30.581-17.336-41.002-23.474-51.914-6.138-10.912-15.4-11.757-28.644-10.393-13.245 1.364-37.101 3.832-66.29 20.391 0 0-12.276 6.657-16.014 13.477-3.737 6.82 9.916 23.992 33.65 21.824 16.995-1.555 48.313-19.205 48.313-19.205s.341 30.008 6.138 40.92c5.797 10.912 32.395 37.51 42.966 44.33 6.697 4.323 23.406 16.19 36.132 25.329 3.137-11.417 8.771-17.664 12.167-20.555Z" opacity=".53"/><path fill="#000" d="M263.502 328.174c-10.23-25.916-4.092-77.748-32.736-70.928-20.869 4.965-59.13 22.615-78.348 31.822 2.278 7.83 14.826 18.551 33.881 16.805 16.996-1.555 48.313-19.205 48.313-19.205s.341 30.008 6.138 40.92c5.797 10.912 32.395 37.51 42.966 44.33 6.698 4.323 23.407 16.19 36.133 25.329a48.735 48.735 0 0 1 4.76-11.417c-25.398-18.782-55.392-43.184-61.107-57.656Z" opacity=".14"/><path stroke="#0F2C3A" stroke-linecap="round" stroke-linejoin="round" d="m234.612 286.668-1.023-17.732M332.07 376.692c-7.215-7.039-34.264-43.335-44.944-64.204-15.645-30.581-17.336-41.002-23.474-51.914-6.138-10.912-15.4-11.757-28.644-10.393-13.245 1.364-37.101 3.832-66.29 20.391 0 0-12.276 6.657-16.014 13.477-3.737 6.82 9.916 23.992 33.65 21.824 16.995-1.555 48.313-19.205 48.313-19.205s.341 30.008 6.138 40.92c5.797 10.912 32.395 37.51 42.966 44.33 6.697 4.323 23.406 16.19 36.132 25.329 3.137-11.417 8.771-17.664 12.167-20.555Z"/><path fill="#0F2C3A" stroke="#0F2C3A" stroke-linecap="round" stroke-linejoin="round" d="M335.207 408.404c5.456 4.092 15.686 11.594 18.073 11.935 2.387.341 27.28-30.008 33.077-40.238 5.797-10.23 10.912-31.712 8.866-36.486-2.046-4.774-6.138-.682-10.23 2.728-4.092 3.41-41.602 28.302-45.012 30.007-.9.451-1.718.819-2.441 1.133-.982 1.868-2.183 4.76-1.364 6.71 1.364 3.069 7.161 7.161 7.161 7.161l-10.326 15.468 2.196 1.582Z"/><path fill="#EBE8FF" d="M386.357 380.102c5.797-10.23 10.912-31.713 8.866-36.487-1.186-2.728-3.055-2.551-5.224-1.214 1.432 6.369 0 18.659-7.052 31.904-6.288 11.812-25.711 32.736-35.464 42.856a22.884 22.884 0 0 0 5.825 3.179c2.359.341 27.252-30.008 33.049-40.238Z"/><path fill="#BCFBFF" d="m353.621 420.244.301-.15.081-.068a2.9 2.9 0 0 0 .464-.328l.164-.136.395-.327.219-.205.532-.491.327-.314.45-.436.382-.382.382-.382.968-1.023.164-.164.6-.654.246-.26c.709-.777 1.473-1.623 2.264-2.523v-.068l.846-.955-5.961-3.833a566.95 566.95 0 0 1-9.043 9.616l.913.601.137.081.846.532 1.364.778.381.218.382.205.437.218.286.136c.137.068.278.128.423.178l.205.081c.157.066.322.112.491.137a.516.516 0 0 0 .259 0l.095-.082Z"/><path fill="#EBE8FF" d="m353.621 420.244.301-.15.081-.068a2.9 2.9 0 0 0 .464-.328l.164-.136.395-.327.219-.205.532-.491.327-.314.45-.436.382-.382.382-.382.968-1.023.164-.164.6-.654.246-.26c.709-.777 1.473-1.623 2.264-2.523v-.068l.846-.955-5.961-3.833a566.95 566.95 0 0 1-9.043 9.616l.913.601.137.081.846.532 1.364.778.381.218.382.205.437.218.286.136c.137.068.278.128.423.178l.205.081c.157.066.322.112.491.137a.516.516 0 0 0 .259 0l.095-.082Z" opacity=".5"/><path stroke="#0F2C3A" stroke-linecap="round" stroke-linejoin="round" d="M386.357 380.102c5.797-10.23 10.912-31.713 8.866-36.487-1.186-2.728-3.055-2.551-5.224-1.214 1.432 6.369 0 18.659-7.052 31.904-6.288 11.812-25.711 32.736-35.464 42.856a22.884 22.884 0 0 0 5.825 3.179c2.359.341 27.252-30.008 33.049-40.238Z"/><path fill="#0F2C3A" stroke="#0F2C3A" stroke-linecap="round" stroke-linejoin="round" d="M332.138 428.183c-10.23-6.479-21.824-24.553-22.165-30.691a9.7 9.7 0 0 1 .164-2.005 9.755 9.755 0 0 0-5.62 2.005 130.261 130.261 0 0 0-13.299-10.571 27.862 27.862 0 0 0-12.276-3.669c-4.951 4.092-9.548 7.366-10.27 10.148-1.364 5.115 7.843 25.576 30.008 39.898 22.165 14.322 29.667 11.935 36.146 10.571 6.479-1.364 7.542-9.207-2.688-15.686Z"/><path fill="#EBE8FF" d="M332.138 428.182a44.578 44.578 0 0 1-9.084-8.183c-7.038-3.001-16.436-6.82-24.675-11.949-8.866-5.456-6.82-8.866-11.935-13.981-3.928-3.928-11.648-4.433-15.004-4.46a9.427 9.427 0 0 0-2.728 3.778c-1.364 5.115 7.843 25.575 30.008 39.897s29.667 11.935 36.146 10.571c6.479-1.364 7.502-9.194-2.728-15.673Z"/><path fill="#BCFBFF" d="M332.138 428.182a44.578 44.578 0 0 1-9.084-8.183c-7.038-3.001-16.436-6.82-24.675-11.949-8.866-5.456-6.82-8.866-11.935-13.981-3.928-3.928-11.648-4.433-15.004-4.46a9.427 9.427 0 0 0-2.728 3.778c-1.364 5.115 7.843 25.575 30.008 39.897s29.667 11.935 36.146 10.571c6.479-1.364 7.502-9.194-2.728-15.673Z"/><path fill="#EBE8FF" d="M332.138 428.182a44.578 44.578 0 0 1-9.084-8.183c-7.038-3.001-16.436-6.82-24.675-11.949-8.866-5.456-6.82-8.866-11.935-13.981-3.928-3.928-11.648-4.433-15.004-4.46a9.427 9.427 0 0 0-2.728 3.778c-1.364 5.115 7.843 25.575 30.008 39.897s29.667 11.935 36.146 10.571c6.479-1.364 7.502-9.194-2.728-15.673Z" opacity=".5"/><path stroke="#0F2C3A" stroke-linecap="round" stroke-linejoin="round" d="M332.138 428.182a44.578 44.578 0 0 1-9.084-8.183c-7.038-3.001-16.436-6.82-24.675-11.949-8.866-5.456-6.82-8.866-11.935-13.981-3.928-3.928-11.648-4.433-15.004-4.46a9.427 9.427 0 0 0-2.728 3.778c-1.364 5.115 7.843 25.575 30.008 39.897s29.667 11.935 36.146 10.571c6.479-1.364 7.502-9.194-2.728-15.673Z"/><path fill="#0F2C3A" d="M333.843 430.569c-8.866-5.115-26.939-8.525-38.533-16.368-11.594-7.843-8.525-14.663-17.05-20.119a8.663 8.663 0 0 0-9.548-.545c-1.186 5.319 8.048 25.548 30.008 39.76 21.961 14.213 29.667 11.935 36.146 10.571 4.311-.913 6.179-4.678 3.956-9.002a18.619 18.619 0 0 0-4.979-4.297Z"/><path fill="#EBE8FF" d="M333.843 430.569c-8.866-5.115-26.939-8.525-38.533-16.368-11.594-7.843-8.525-14.663-17.05-20.119a8.663 8.663 0 0 0-9.548-.545c-1.186 5.319 8.048 25.548 30.008 39.76 21.961 14.213 29.667 11.935 36.146 10.571 4.311-.913 6.179-4.678 3.956-9.002a18.619 18.619 0 0 0-4.979-4.297Z" opacity=".53"/><path stroke="#0F2C3A" stroke-linecap="round" stroke-linejoin="round" d="M333.843 430.569c-8.866-5.115-26.939-8.525-38.533-16.368-11.594-7.843-8.525-14.663-17.05-20.119a8.663 8.663 0 0 0-9.548-.545c-1.186 5.319 8.048 25.548 30.008 39.76 21.961 14.213 29.667 11.935 36.146 10.571 4.311-.913 6.179-4.678 3.956-9.002a18.619 18.619 0 0 0-4.979-4.297v0Z"/><path fill="#EBE8FF" stroke="#0F2C3A" stroke-linecap="round" stroke-linejoin="round" d="M163.916 365.343s6.548-7.952 7.475-1.869c.928 6.084-.464 17.296-5.142 21.497-4.679 4.201-7.011-2.332-7.011-2.332l2.81-3.738s2.332 4.679 4.201-2.81c1.868-7.488-3.738-6.547-3.738-6.547l1.405-4.201Z"/><path fill="#EBE8FF" stroke="#0F2C3A" stroke-linecap="round" stroke-linejoin="round" d="M158.91 395.269c-3.873 2.865-16.504 2.865-20.364 0-8.184-6.07-6.82-35.396-6.82-35.396h33.909s1.473 29.326-6.725 35.396Z"/><path stroke="#0F2C3A" stroke-linecap="round" stroke-linejoin="round" d="M135.436 354.117c0-3.682 3.424-3.682 3.424-7.379 0-3.696-3.424-3.696-3.424-7.379 0-3.683 3.424-3.697 3.424-7.393 0-3.696-3.424-3.697-3.424-7.393 0-3.696 3.424-3.696 3.424-7.393M147.153 354.117c0-2.728 3.423-2.728 3.423-5.606 0-2.878-3.423-2.796-3.423-5.606s3.423-2.796 3.423-5.606-3.423-2.81-3.423-5.619c0-2.81 3.423-2.797 3.423-5.607M160.042 354.117c0-3.682 3.41-3.682 3.41-7.379 0-3.696-3.41-3.696-3.41-7.379 0-3.683 3.41-3.697 3.41-7.393 0-3.696-3.41-3.697-3.41-7.393 0-3.696 3.41-3.696 3.41-7.393"/><path fill="#EBE8FF" stroke="#0F2C3A" stroke-linecap="round" stroke-linejoin="round" d="M165.662 359.873c0 .86-7.584 1.542-16.954 1.542-9.371 0-16.955-.682-16.955-1.542 0-.859 7.584-1.541 16.955-1.541 9.37 0 16.954.682 16.954 1.541Z"/><path fill="#EBE8FF" d="M196.966 148.808s1.596 17.227 2.264 22.67c.669 5.442 2.183 21.073 3.751 26.243 1.569 5.17 10.121 14.158 10.912 12.085.791-2.073 5.047-16.136 3.356-24.552-1.692-8.416-2.21-15.604-1.16-17.732 1.051-2.128 4.829-4.515 4.829-4.515a136.872 136.872 0 0 1-12.808-7.461c-6.029-4.01-10.298-8.552-11.144-6.738Z"/><path fill="#BCFBFF" d="m218.858 163.935-1.364-2.646c-2.51-1.364-6.001-3.383-9.316-5.606-6.07-4.092-10.339-8.689-11.185-6.82 0 0 1.596 17.227 2.265 22.669.668 5.443 2.182 21.074 3.751 26.244a17.608 17.608 0 0 0 2.196 4.255c-1.651-10.284.136-28.862.136-28.862l13.517-9.234Z"/><path fill="#EBE8FF" d="m218.858 163.935-1.364-2.646c-2.51-1.364-6.001-3.383-9.316-5.606-6.07-4.092-10.339-8.689-11.185-6.82 0 0 1.596 17.227 2.265 22.669.668 5.443 2.182 21.074 3.751 26.244a17.608 17.608 0 0 0 2.196 4.255c-1.651-10.284.136-28.862.136-28.862l13.517-9.234Z" opacity=".5"/><path stroke="#0F2C3A" stroke-linecap="round" stroke-linejoin="round" d="M196.966 148.808s1.596 17.227 2.264 22.67c.669 5.442 2.183 21.073 3.751 26.243 1.569 5.17 10.121 14.158 10.912 12.085.791-2.073 5.047-16.136 3.356-24.552-1.692-8.416-2.21-15.604-1.16-17.732 1.051-2.128 4.829-4.515 4.829-4.515a136.872 136.872 0 0 1-12.808-7.461c-6.029-4.01-10.298-8.552-11.144-6.738Z"/><path fill="#EBE8FF" d="M196.339 151.304s9.82 8.184 17.35 11.185c7.529 3.001 19.096 2.81 20.746-1.105 1.651-3.915-2.864-34.918-6.752-43.075-3.887-8.157-8.034-8.293-14.895-8.921-6.86-.627-20.582 4.965-22.997 11.594-2.414 6.629.341 16.014 2.333 21.579a40.916 40.916 0 0 0 4.215 8.743Z"/><path fill="#BCFBFF" d="M213.975 150.936c-3.478-10.312-4.351-26.544-4.351-30.868 0-3.341 8.702-7.01 12.671-8.511-2.605-1.609-5.633-1.814-9.548-2.169-6.82-.613-20.582 4.965-22.997 11.594-2.414 6.629.341 16.014 2.333 21.579a40.916 40.916 0 0 0 4.215 8.743s9.82 8.184 17.35 11.185a31.253 31.253 0 0 0 16.368 1.569c-5.388-2.033-13.722-6.234-16.041-13.122Z"/><path fill="#EBE8FF" d="M213.975 150.936c-3.478-10.312-4.351-26.544-4.351-30.868 0-3.341 8.702-7.01 12.671-8.511-2.605-1.609-5.633-1.814-9.548-2.169-6.82-.613-20.582 4.965-22.997 11.594-2.414 6.629.341 16.014 2.333 21.579a40.916 40.916 0 0 0 4.215 8.743s9.82 8.184 17.35 11.185a31.253 31.253 0 0 0 16.368 1.569c-5.388-2.033-13.722-6.234-16.041-13.122Z" opacity=".5"/><path stroke="#0F2C3A" stroke-linecap="round" stroke-linejoin="round" d="M196.339 151.304s9.82 8.184 17.35 11.185c7.529 3.001 19.096 2.81 20.746-1.105 1.651-3.915-2.864-34.918-6.752-43.075-3.887-8.157-8.034-8.293-14.895-8.921-6.86-.627-20.582 4.965-22.997 11.594-2.414 6.629.341 16.014 2.333 21.579a40.916 40.916 0 0 0 4.215 8.743v0Z"/><path stroke="#0F2C3A" stroke-linecap="round" stroke-linejoin="round" d="M228.42 131.076c.164 3.928-2.305 7.216-5.456 7.338-3.151.123-5.906-2.946-6.056-6.82-.15-3.873 2.305-7.215 5.456-7.352 3.151-.136 5.906 2.865 6.056 6.834ZM236.14 129.548c.164 3.929-1.105 7.161-2.823 7.23-1.719.068-3.247-3.056-3.397-6.984-.15-3.928 1.119-7.175 2.837-7.243 1.719-.068 3.233 3.069 3.383 6.997Z"/><path fill="#EBE8FF" d="M228.829 129.63s11.267 2.142 10.176 4.856c-1.092 2.714-8.703 5.647-8.703 5.647"/><path stroke="#0F2C3A" stroke-linecap="round" stroke-linejoin="round" d="M228.829 129.63s11.267 2.142 10.176 4.856c-1.092 2.714-8.703 5.647-8.703 5.647M228.133 128.348s.164-1.364 1.896-.505M216.553 132.14l-20.487 8.061"/><path stroke="#0F2C3A" stroke-linecap="round" stroke-linejoin="round" stroke-width="2" d="M216.826 125.511a5.194 5.194 0 0 1 5.101-3.083M230.466 122.524l-3.151 1.186"/><path stroke="#0F2C3A" stroke-linecap="round" stroke-linejoin="round" d="M220.727 145.398s4.092-1.064 6.411 1.364"/><path fill="#0F2C3A" d="M223.359 131.785c.191 1.364 0 2.537-.559 2.606-.559.068-1.05-.983-1.241-2.36-.191-1.378.068-2.524.573-2.592.505-.068 1.05.982 1.227 2.346Z"/><path fill="#0F2C3A" stroke="#0F2C3A" stroke-linecap="round" stroke-linejoin="round" d="M197.975 140.256s-1.364 2.728 2.483 2.864c3.846.137 6.465-1.732 4.597-4.092-1.869-2.36-4.638-4.569-1.787-7.652 2.85-3.083 8.388-5.674 5.278-9.111-3.11-3.438-14.553-.314-11.689-3.097 2.864-2.782 16.095-5.688 22.042-5.319 5.947.368 17.05-4.242 19.492-10.271 2.441-6.03-.969-17.173-8.962-16.573-7.993.6-13.953 7.68-17.5 8.184-3.546.505-10.816-3.437-16.913 0-6.098 3.437-6.302 13.313-6.82 14.527-.519 1.214-8.785 3.014-10.244 11.376a22.284 22.284 0 0 0 5.756 18.836c3.424 3.724 4.965 5.143 4.965 5.143l9.302-4.815Z"/><path stroke="#EBE8FF" stroke-linecap="round" stroke-linejoin="round" stroke-width=".75" d="M180.625 125.143a6.486 6.486 0 0 0 .873 3.628M215.394 103.55s-2.974-6.506 4.61-6.506c7.584 0 8.675 9.548.818 13.013-7.856 3.464-24.947 4.337-34.168 8.416a11.984 11.984 0 0 0-4.692 3.314M201.658 126.657c-2.728.982-6.261 2.346-9.848 4.01-7.597 3.533-5.974 7.052-5.974 7.052M206.719 124.979s-.669.191-1.801.559"/><path fill="#EBE8FF" d="M199.271 143.175s-4.405-6.357-9.043-3.806c-4.638 2.551-1.037 11.621 1.759 14.772 2.797 3.151 8.184-2.728 8.744-4.201"/><path fill="#BCFBFF" d="M199.271 143.175s-4.405-6.357-9.043-3.806c-4.638 2.551-1.037 11.621 1.759 14.772 2.797 3.151 8.184-2.728 8.744-4.201"/><path fill="#EBE8FF" d="M199.271 143.175s-4.405-6.357-9.043-3.806c-4.638 2.551-1.037 11.621 1.759 14.772 2.797 3.151 8.184-2.728 8.744-4.201" opacity=".5"/><path stroke="#0F2C3A" stroke-linecap="round" stroke-linejoin="round" d="M199.271 143.175s-4.405-6.357-9.043-3.806c-4.638 2.551-1.037 11.621 1.759 14.772 2.797 3.151 8.184-2.728 8.744-4.201"/><path fill="#EBE8FF" stroke="#0F2C3A" stroke-linecap="round" stroke-linejoin="round" d="M143.634 137.378H45.862a6.983 6.983 0 0 0-6.984 6.983v71.474a6.984 6.984 0 0 0 6.984 6.984h97.772a6.983 6.983 0 0 0 6.983-6.984v-71.474a6.982 6.982 0 0 0-6.983-6.983Z"/><path fill="#EBE8FF" d="m148.49 198.84 65.471 17.05-65.471-32.054"/><path stroke="#0F2C3A" stroke-linecap="round" stroke-linejoin="round" d="m148.49 198.84 65.471 17.05-65.471-32.054"/><path fill="#BCFBFF" stroke="#0F2C3A" stroke-linecap="round" stroke-linejoin="round" d="M74.192 145.589H47.908v69.018h26.284v-69.018ZM144.82 145.589h-3.287v69.018h3.287v-69.018Z"/><path fill="#0F2C3A" stroke="#0F2C3A" stroke-linecap="round" stroke-linejoin="round" d="M144.82 177.138h-3.287v5.893h3.287v-5.893Z"/><path stroke="#0F2C3A" stroke-linecap="round" stroke-linejoin="round" d="M82.417 147.226h51.764M82.417 154.619h51.764M82.417 162.025h51.764M82.417 169.418h51.764M82.417 187.491h51.764M82.417 194.066h51.764M82.417 200.64h51.764M82.417 214.28h51.764M47.908 214.594l26.298-69.005"/><path fill="#BCFBFF" d="M444.055 405.595c12.603 0 22.819-4.58 22.819-10.23s-10.216-10.23-22.819-10.23-22.82 4.58-22.82 10.23 10.217 10.23 22.82 10.23Z"/><path fill="#EBE8FF" d="M444.055 405.595c12.603 0 22.819-4.58 22.819-10.23s-10.216-10.23-22.819-10.23-22.82 4.58-22.82 10.23 10.217 10.23 22.82 10.23Z" opacity=".5"/><path fill="#0F2C3A" d="M417.361 243.988c2.442 1.064 8.416.927 8.416.927s-1.282-3.914-1.364-4.092c-1.364-2.728-5.456-7.27-8.825-6.82a4.103 4.103 0 0 0-2.716 1.82 4.09 4.09 0 0 0-.517 3.227c.505 2.292 2.919 4.024 5.006 4.938Z"/><path fill="#0F2C3A" d="M495.6 223.651c-3.382-.355-7.406 4.269-8.647 7.052-.109.245-1.364 4.187-1.283 4.187h.069c-.641.723-1.364 1.514-2.033 2.387a75.055 75.055 0 0 0-4.283 5.592 70.485 70.485 0 0 0-4.433 7.066 52.524 52.524 0 0 0-3.792 8.539.286.286 0 0 0 0 .109v-4.01c-.395-3.001-2.919-8.607-6.274-9.221a4.083 4.083 0 0 0-3.144.886 4.098 4.098 0 0 0-1.494 2.906c-.191 2.387 1.542 4.787 3.233 6.302 1.91 1.705 7.202 3.355 7.625 3.478a73.741 73.741 0 0 0-2.237 9.248c-.327 1.827-.587 3.669-.846 5.524v-1.746c-.395-3.015-2.919-8.607-6.261-9.221a4.106 4.106 0 0 0-3.148.876 4.116 4.116 0 0 0-1.054 1.295 4.108 4.108 0 0 0-.449 1.608c-.191 2.4 1.542 4.787 3.233 6.301 1.691 1.514 6.206 3.042 7.406 3.424-.081.709-.177 1.364-.272 2.128-.41 3.41-.792 6.82-1.283 10.162a128.127 128.127 0 0 1-.586 3.464v-1.5c-.396-3.015-2.919-8.607-6.274-9.235a4.105 4.105 0 0 0-3.145.887 4.094 4.094 0 0 0-1.493 2.905c-.191 2.401 1.541 4.788 3.233 6.302 1.691 1.514 5.769 2.892 7.188 3.342a88.177 88.177 0 0 1-.791 3.478c-.218.764-.382 1.514-.641 2.264-.259.75-.478 1.501-.723 2.237-.505 1.364-1.023 2.865-1.555 4.215-.368.955-.737 1.855-1.091 2.728.177-1.173.491-3.465.491-3.656a15.645 15.645 0 0 0-2.087-7.611 6.55 6.55 0 0 0 0-.886 4.101 4.101 0 0 0-1.72-2.777 4.092 4.092 0 0 0-3.204-.633c-3.288.873-5.374 6.642-5.538 9.67 0 .191.109 2.142.204 3.37l-.491-2.142a215.784 215.784 0 0 0-1.145-4.447c-.232-.75-.45-1.5-.682-2.25-.232-.75-.532-1.528-.791-2.305-.655-1.774-1.364-3.547-2.197-5.32 1.283-.3 5.784-1.446 7.598-2.837 1.814-1.391 3.71-3.642 3.683-6.043a4.022 4.022 0 0 0-1.257-3.012 4.007 4.007 0 0 0-3.081-1.08c-3.396.369-6.329 5.756-6.943 8.73 0 .191-.231 2.373-.327 3.574a109.95 109.95 0 0 0-1.473-3.178c-1.514-3.042-3.137-6.07-4.747-9.112-.504-.927-.982-1.855-1.459-2.796.45-.096 5.838-1.364 7.856-2.905 1.801-1.364 3.711-3.642 3.697-6.043a4.103 4.103 0 0 0-.334-1.628 4.103 4.103 0 0 0-2.372-2.23 4.092 4.092 0 0 0-1.645-.234c-3.383.368-6.316 5.756-6.929 8.73 0 .218-.328 3.369-.369 4.173-1.064-2.059-2.1-4.092-3.055-6.178a71.434 71.434 0 0 1-3.315-8.566c.205 0 5.838-1.364 7.912-2.919 1.8-1.364 3.71-3.642 3.696-6.043a4.103 4.103 0 0 0-.334-1.628 4.103 4.103 0 0 0-2.371-2.23 4.097 4.097 0 0 0-1.646-.234c-3.383.368-6.315 5.756-6.929 8.73 0 .245-.355 3.628-.368 4.242 0-.178-.123-.341-.178-.519a51.529 51.529 0 0 1-1.718-9.056c-.191-1.678-.273-3.315-.328-4.897 1.078-.123 5.961-.778 7.993-2.005 2.033-1.228 4.092-3.206 4.338-5.606a4.097 4.097 0 0 0-3.874-4.57c-3.41 0-6.915 5.033-7.857 7.911 0 .164-.382 1.815-.613 3.029v-2.142c0-2.564.163-4.924.327-7.011.109-1.187.218-2.251.341-3.26.982-.668 4.91-3.451 6.124-5.456 1.214-2.005 2.155-4.733 1.269-6.956a4.02 4.02 0 0 0-2.258-2.381 4.008 4.008 0 0 0-3.28.103c-3.028 1.555-3.819 7.638-3.328 10.639 0 .259 1.186 4.228 1.241 4.201-.123.955-.259 1.992-.382 3.11-.204 2.087-.423 4.447-.477 7.038a72.652 72.652 0 0 0 .191 8.334c.245 3.109.766 6.19 1.555 9.207a.25.25 0 0 0 0 .109c-.532-.832-2.115-3.137-2.251-3.3-1.991-2.306-7.175-5.566-10.312-4.242a4.086 4.086 0 0 0-2.137 2.468 4.091 4.091 0 0 0 .35 3.247c1.16 2.114 3.929 3.151 6.179 3.478 2.524.368 7.857-1.173 8.28-1.296a72.57 72.57 0 0 0 3.232 8.934 120.904 120.904 0 0 0 2.347 5.074c-.492-.709-.928-1.364-.996-1.364-1.992-2.291-7.188-5.565-10.312-4.242a4.1 4.1 0 0 0-2.144 2.475 4.092 4.092 0 0 0 .357 3.254c1.16 2.101 3.928 3.151 6.165 3.478 2.237.328 6.82-.9 8.062-1.241.313.641.627 1.282.954 1.923 1.542 3.083 3.097 6.138 4.529 9.18a46.416 46.416 0 0 1 1.364 3.233 25.246 25.246 0 0 0-.859-1.241c-1.992-2.292-7.189-5.566-10.312-4.243a4.09 4.09 0 0 0-2.305 4.139c.061.56.238 1.102.518 1.59 1.159 2.101 3.928 3.137 6.165 3.465 2.237.327 6.411-.778 7.843-1.173.437 1.118.887 2.237 1.255 3.342.246.75.532 1.459.723 2.237.191.777.423 1.514.641 2.264.341 1.459.709 2.96 1.023 4.378.218.996.409 1.937.6 2.892-.491-1.078-1.5-3.151-1.596-3.315-1.623-2.578-6.26-6.601-9.548-5.756a4 4 0 0 0-2.526 2.103 4.001 4.001 0 0 0-.106 3.285c.818 2.251 3.396 3.697 5.565 4.365 2.401.723 7.693 0 8.348 0 .313 1.582.613 3.123.859 4.583.9 5.047 1.446 9.289 1.787 12.276 0 .532.109.996.163 1.446h-10.243l3.287 64.244a9.194 9.194 0 0 0 9.18 8.716 9.178 9.178 0 0 0 9.166-8.716l3.301-64.244h-9.548c.068-.15.136-.287.218-.437 1.364-2.728 3.124-6.656 5.088-11.444.614-1.514 1.255-3.15 1.882-4.828.641.136 5.879 1.2 8.32.641 2.224-.491 4.897-1.746 5.893-3.928a4.095 4.095 0 0 0-.817-4.671 4.099 4.099 0 0 0-1.406-.908c-3.233-1.078-8.184 2.591-9.958 5.033-.109.136-1.077 1.841-1.677 2.919.245-.696.504-1.364.764-2.073.518-1.364.982-2.81 1.5-4.338.218-.736.45-1.487.668-2.25.219-.764.41-1.569.614-2.36a82.15 82.15 0 0 0 1.105-5.634c1.228.451 5.62 1.978 7.897 1.815 2.278-.164 5.102-.996 6.411-3.001a4.103 4.103 0 0 0 .591-3.216 4.096 4.096 0 0 0-1.955-2.622c-3.028-1.569-8.443 1.364-10.598 3.451-.136.136-1.514 1.855-2.251 2.81.191-1.16.369-2.306.519-3.465.423-3.383.736-6.82 1.064-10.23l.327-3.123c.437.163 5.62 2.086 8.184 1.909 2.264-.164 5.101-.996 6.411-3.001a4.08 4.08 0 0 0 .59-3.216 4.092 4.092 0 0 0-1.954-2.622c-3.028-1.568-8.457 1.364-10.598 3.451-.164.164-2.142 2.633-2.606 3.288.232-2.306.505-4.597.86-6.82a71.819 71.819 0 0 1 1.95-8.989c.205.082 5.606 2.114 8.184 1.923 2.264-.15 5.102-.982 6.411-3.001a4.08 4.08 0 0 0 .59-3.216 4.088 4.088 0 0 0-1.954-2.622c-3.028-1.555-8.443 1.364-10.598 3.465-.164.164-2.292 2.823-2.633 3.328 0-.164.082-.355.137-.518a51.445 51.445 0 0 1 3.56-8.512c.763-1.514 1.595-2.919 2.427-4.255.969.477 5.456 2.632 7.775 2.728 2.319.095 5.17-.423 6.698-2.278a4.112 4.112 0 0 0 .953-3.132 4.102 4.102 0 0 0-1.649-2.829c-2.837-1.882-8.539.382-10.912 2.278-.123.109-1.364 1.364-2.183 2.182l1.146-1.814c1.432-2.141 2.865-4.01 4.092-5.66.737-.941 1.432-1.76 2.074-2.537 1.2 0 6.015-.164 8.115-1.146 2.101-.982 4.406-2.728 4.911-5.115a4.096 4.096 0 0 0-1.756-4.591 4.091 4.091 0 0 0-1.641-.592Zm-37.469 90.897a208.623 208.623 0 0 1-5.278 11.212l-.737 1.459h-.232c-.068-.518-.136-1.091-.232-1.732-.409-3.001-1.05-7.27-2.059-12.276-.328-1.61-.696-3.328-1.092-5.074a48.01 48.01 0 0 0 4.665-2.183 28.834 28.834 0 0 0 6.82 4.365c-.654 1.432-1.255 2.878-1.855 4.229Z"/><path fill="#0F2C3A" d="M477.773 245.297s1.077-3.969 1.118-4.228c.423-3.015-.545-9.071-3.601-10.557a4.088 4.088 0 0 0-4.603 1.001 4.099 4.099 0 0 0-.853 1.426c-.818 2.265.219 5.034 1.46 6.943 1.418 2.237 6.465 5.415 6.479 5.415Z"/></g></svg>
