<svg xmlns="http://www.w3.org/2000/svg" xml:space="preserve" viewBox="0 0 887 69"><path fill="#45f3ff" d="M728.86 26.86c2.05-5.14 4-9.92 5.93-14.7 1.82-4.52 1.8-4.52 7.13-3.73l-19.26 48.75c-.74 1.85-1.65 3.66-2.2 5.57-.7 2.44-2 3.36-4.64 3.37-2.61.01-3.36-1.32-4.16-3.33-5.67-14.22-11.42-28.42-17.16-42.62-.54-1.34-1.2-2.64-2.14-4.68l-15.52 38.05c-1.32 3.24-2.72 6.45-3.91 9.73-.72 1.97-1.74 2.85-3.98 2.82-2.27-.03-3.57-.54-4.47-2.85-6.94-17.85-14.02-35.63-21.05-53.44-.17-.44-.12-.95-.18-1.44 3.65-1.24 5.65-.36 7.12 3.55 5.74 15.25 11.89 30.35 17.9 45.54 2-1.47 2.86-3.52 3.71-5.62a9443.64 9443.64 0 0 1 16.18-39.76c.85-2.07 1.26-4.38 4.6-4.26 3.05.1 3.36 2.2 4.14 4.12 5.74 14.2 11.45 28.4 17.2 42.59.46 1.16.51 2.6 2.37 3.66a9851.28 9851.28 0 0 0 12.4-31.32zM14.01 42.64c4.64 12.7 16.64 19.81 31.16 18.83.83-.06 1.65-.19 2.48-.28 13.61-1.51 14.36-2.33 14.29-15.62-.01-1.83.06-3.66 0-5.5-.04-1.86.22-3.2 2.66-3.16 2.13.02 3.02.77 3 2.9a802.64 802.64 0 0 0 .01 17c.03 2.05-1.35 2.87-2.76 3.78-13.45 8.7-36.34 7.02-48.36-3.57a26.38 26.38 0 0 1 1.24-40.99c12.44-9.65 33.37-11.01 46.2-2.9 1.3.83 4.05 1.34 2.75 3.78-1.35 2.55-3.16 1.55-5.35.34-12.38-6.83-24.93-6.59-37.04.55C15.45 23 11.96 32.02 14 42.64zM513.7 41.25c6.94 7 5.93 15.9-2.04 20.82-9.93 6.12-31.24 5.08-40.68-1.92-1.32-.98-2.36-1.68-1.15-3.56 1.18-1.84 2.22-1.34 3.65-.46 8.63 5.29 18 6.67 27.84 4.8a20.9 20.9 0 0 0 6.53-2.33c6.5-3.78 6.29-11.57-.34-15.15-4.6-2.49-9.78-3.18-14.8-4.35-4.52-1.06-9.14-1.85-13.42-3.77-4.85-2.17-8.43-5.37-8.7-11.13-.29-6.03 2.57-10.4 7.8-12.83 11.6-5.38 23.27-4.48 34.8.48 1.53.65 2.5 1.42 1.45 3.39-1.1 2.05-2.34 1.22-3.69.62-7.68-3.4-15.62-4.45-23.9-2.78-2.31.47-4.5 1.26-6.44 2.6-5.98 4.14-5.69 11.45.65 15.04 4.27 2.42 9.11 3.07 13.8 4.17 6.3 1.48 12.79 2.45 18.65 6.36zM259.46 43.16c2.73-.91 5.19-1.4 7.52-2.25 6.36-2.31 9.83-7.3 9.7-13.63-.14-6.24-3.53-10.8-9.77-13.07-6.75-2.44-13.8-1.83-20.77-1.9-4.32-.04-8.65 0-12.98 0-1.62 0-3.01-.17-2.94-2.37.07-1.92 1.32-2.08 2.72-2.03 10.79.4 21.65-1.09 32.37 1.04 9.77 1.93 15.99 7.9 16.92 15.92 1.08 9.4-2.47 15.58-11.86 19.56-2.93 1.24-3.2 2.06-1.12 4.32 2.48 2.68 4.73 5.58 7.05 8.4 2.2 2.67 4.36 5.36 6.72 8.27-4.23 1.58-6.77.07-9.1-3-3.34-4.35-7.1-8.37-10.45-12.72-1.47-1.91-2.99-2.8-5.4-2.73-6.33.16-12.66.2-18.98.08-2.45-.05-3.15.86-3.08 3.18.13 4.33-.05 8.66.05 12.98.05 2.1-.57 3.04-2.81 2.94-1.95-.08-3.16-.46-3.11-2.78.12-5.82.1-11.65.24-17.93 1.53-2.4 3.62-1.91 5.55-1.93 7.73-.07 15.46.09 23.53-.35zM603.45 11.26c2.8-4.26 6.66-4.8 8.6-1.22 10 18.38 19.85 36.83 29.82 55.39-4.38 1.75-6.42-.02-8.29-3.65-8.15-15.8-16.57-31.45-24.99-47.32-2.28.85-2.67 3-3.53 4.6-7.69 14.35-15.38 28.71-22.8 43.2-1.76 3.46-3.79 4.78-7.97 3.26a43966.08 43966.08 0 0 1 29.16-54.26zM102.84 29.89c-5.86 11.05-11.72 21.69-17.16 32.54-1.79 3.58-3.96 4.41-7.9 3.13l18.87-35.2c3.54-6.6 7.04-13.21 10.67-19.76 2.16-3.9 6.35-4.02 8.43-.18 9.67 17.84 19.26 35.73 28.86 53.62.22.4.25.91.4 1.47-3.9 1.52-5.98.05-7.8-3.46-7.55-14.63-15.36-29.14-23.1-43.67-.75-1.43-1.16-3.1-2.95-4.3l-8.32 15.8zM196.6 9.41c11.2 2.62 15.79 10.24 11.89 18.77-1.65 3.6-5.12 5.05-8.3 7.37 7.47 2.3 12.9 6.06 13.04 14.49.1 5.71-2.32 9.96-7.35 12.63a29.06 29.06 0 0 1-13.46 3.3c-10.33.12-20.67.08-31 0-1.4-.01-3.63 1.01-3.81-1.78-.2-3.14 2.25-2.32 3.85-2.33 8.83-.07 17.66-.01 26.5-.02 4-.01 7.99-.33 11.8-1.72 5.58-2.03 7.63-4.86 7.58-10.36-.04-5.27-2.4-8.33-7.95-10.14-4.32-1.41-8.82-1.6-13.33-1.6-8.33 0-16.67.01-25-.03-1.53 0-3.58.62-3.47-2.17.1-2.45 1.99-1.86 3.3-1.87 7.67-.07 15.34-.03 23-.03 3.5 0 6.99-.11 10.43-.96 4.83-1.2 8.87-3.29 9.5-8.83.64-5.57-2.61-8.62-7.65-10.7-1.1-1.5-1.36-2.74.42-4.02zM552.53 64.45c-5.1 2.64-5.71 2.3-5.72-2.89-.02-14.82-.12-29.64.07-44.45.04-3.6-.72-5.11-4.64-4.87-5.48.33-10.99.1-16.48.06-1.43 0-3.08.38-3.2-2-.15-2.73 1.74-2.37 3.32-2.38 15.98-.02 31.97 0 47.95 0 1.53 0 3.05-.17 3.03 2.16-.01 2.26-1.47 2.23-3.03 2.23-5.5 0-11 .22-16.48-.08-3.8-.21-4.84 1.16-4.8 4.82.15 15.65.04 31.3-.02 47.4zM856.27 62.82c.38 3.26-1.41 3.2-3.39 3.26-2.21.07-2.4-1.23-2.36-2.87 0-.33-.06-.68 0-1 2.04-11.94-2.57-21.46-10.07-30.43-6.05-7.22-11.09-15.28-16.74-23.2 3.92-1.5 6.15-.4 8.24 2.64 6.32 9.19 13.01 18.13 19.35 27.3 1.81 2.62 2.72 2.46 4.45 0 6.4-9.13 13.08-18.08 19.4-27.27 2-2.9 4.15-4.06 8.07-2.85l-9.85 13.86c-2.5 3.53-4.66 7.4-7.59 10.53-7.88 8.43-11.27 18.11-9.5 30.03zM786.1 43.2c-.56-.21-.82-.38-1.07-.9-1.3-3.42-.02-4.4 3.5-3.52.42.24.47.22.46.25.5.44.5 1.14 1.14 1.73.3.08.02.12 0-.02.04.3.25.68.94 1.05.32.08.15.03.18-.05.14.82.88 1.26 1.72 1.96.28.12.12.18.1.1.1.3.32.6.91.98a43.68 43.68 0 0 1 3.94 3.86c.32.54.53.8.92 1.21a739.17 739.17 0 0 1 5.54 6.55l1.48-.79V11.42c0-1.85-.3-3.6 2.62-3.62 2.9-.02 3.2 1.41 3.19 3.71-.05 16.82 0 33.64-.06 50.46 0 1.35.83 3.35-1.1 3.9-1.88.52-3.8.44-5.4-1.44-3.45-4.06-7.15-7.9-10.92-12.1-.66-.77-.67-1.47-1.36-2.06-.32-.05-.04-.1-.02.04.02-.33-.16-.72-.87-1.1-.33-.07-.06-.09-.06.04-.05-.3-.26-.67-.9-1.05-.31-.1-.05-.15-.03-.02-.12-.27-.35-.6-1-.96-.58-.12-.8-.26-1-.72a2.1 2.1 0 0 0-.93-1.3c-.59-.15-.82-.3-1.02-.8-.22-.53-.43-.8-.9-1.2zM437.6 62.21c1.05 2.88.17 3.86-2.59 3.84a2423.53 2423.53 0 0 0-38.47-.01c-2.34.02-2.73-.99-2.72-2.97.04-17.33.06-34.65-.01-51.98-.01-2.33.67-3.23 3.1-3.2 2.55.02 2.5 1.5 2.5 3.27v43.97c0 6.57.01 6.56 6.36 6.6 10.49.04 20.98.12 31.84.48zM305.88 36c-.03 9.14-.1 17.79-.04 26.43.02 2.3-.22 3.7-3.15 3.69-2.81-.03-2.77-1.52-2.76-3.48.02-16.96.01-33.91.01-50.86 0-2-.38-3.92 2.83-3.97 3.53-.06 3.04 2.1 3.04 4.26 0 7.8.04 15.62.07 23.93zM773.81 22.79c.64.22.9.4 1.14.95.76 1.2 1.17 2.4 2.65 3.06.22.21.5.34.51.5.06.63.26 1.04.94 1.45.34.07.21.04.23-.02.12.83.85 1.27 1.68 1.97.27.12.17.13.17.08.08.33.27.64.83 1.01.26.12.12.11.13.04.11.3.31.6.83.97.24.14.14.14.14.08.15.27.36.55.85.93.23.14.16.14.17.1.6 1.2 1.07 2.52-.43 3.36-1.9 1.06-2.88-.78-4.54-1.83-.36-.24-.25-.26-.24-.2-.08-.34-.27-.67-.86-1.02-.27-.1-.12-.1-.12-.02-.08-.3-.29-.62-.85-.98-.58-.18-.83-.34-1.04-.85-.62-1.37-1.18-2.51-2.76-3.17-.5-.41-.77-.63-1.11-1.1-1.88-2.48-3.08-5.24-6.04-6.87-.87-.6-1.42-1.08-2.06-1.81a2.8 2.8 0 0 0-.92-1.2c-.49-.2-.77-.26-1.44-.5-1.1 5.42-.1 11.1-1.15 17.15-.02 9.29 0 18.12-.04 26.95-.01 1.53.6 3.68-2.11 3.6-2.3-.08-1.85-1.96-1.85-3.36-.03-16.67.04-33.33-.07-50-.02-2.93 1-3.98 4.23-3.3a36.83 36.83 0 0 1 4.2 4c.87 1 1 2.16 2.15 2.88.31.05.2.07.2.02-.04.4.13.74.78 1.09.31.07.15.07.15 0 .05.33.23.68.86 1 .3.08.2.07.2.03.68 2.25 2.53 3.51 4.6 5zM365.91 65.74c-10.97 0-21.45.07-31.93-.07-1.8-.03-4.83 1.43-5-2.19-.17-3.75 2.92-2.44 4.73-2.45 12.3-.11 24.62-.08 36.93-.04 1.81.01 4.35-.86 4.29 2.48-.06 2.97-2.37 2.14-4.04 2.25-1.49.1-3 .02-4.98.02zM339.05 38h-6.99c-1.5-.01-3.06.18-3.05-2.16.01-2.38 1.67-2.1 3.1-2.1 7.33-.03 14.66-.02 21.98-.02 5.83 0 11.66-.02 17.49.03 1.4 0 3.18-.4 3.31 1.93.15 2.64-1.74 2.31-3.39 2.32h-32.46zM360.99 5.92c3.16 0 5.86-.26 8.48.1 1.87.24 5.45-1.9 5.24 2.18-.18 3.67-3.6 1.96-5.53 2-8.5.2-16.99.09-25.48.09-3.33 0-6.68.16-10-.06-1.65-.11-4.46 1.34-4.57-2.04-.12-3.45 2.73-2.18 4.38-2.2 9-.13 17.99-.07 27.48-.07z"/><path fill="#45f3ff" d="M196.6 9.09c.04 1.24-.29 2.33-.64 3.77-11.43-1.6-22.92-.28-34.36-.75-1.59-.06-4.03.97-4-2.13.02-3.15 2.5-2.01 4.05-2.02 8.47-.08 16.95-.02 25.88.1.23 2.86-1.93 1.86-3.33 1.9-5.06.11-10.13.04-15.19.04 5.12 0 10.25.02 15.37-.01 1.77-.01 3.7.4 5.32-1.52 2.35 0 4.45.23 6.9.62zM760.89 8.6c-2.69.26-3.91 1.64-3.9 4.6.06 15.94.01 31.9.05 47.85 0 1.22-.3 3.18 1.55 3.07 1.7-.1 1.37-2.02 1.37-3.27.06-8.64.05-17.28.06-26.4.2-.58.4-.69.87-.6.36 9.82.4 19.44.58 29.05.05 2.35-.78 3.2-3.11 3.23-2.47.04-2.54-1.37-2.53-3.18.02-17.25.08-34.5-.05-51.76-.03-4.26 2.38-3.41 5.11-2.58z"/><path fill="#45f3ff" d="M189.63 8.16c.18 1.87-.84 2.77-2.6 2.78-8.56.02-17.13 0-25.72-.7 8.56-2.14 17.36-.4 26.3-1.89.82-.21 1.26-.24 2.02-.19zM259.35 42.84c-.76 2.24-2.8 1.01-4.41 1.11-7.9.5-15.85-.77-24.09.92-.52-3.15 2-1.92 3.44-1.95 8.2-.14 16.4-.11 25.06-.08zM778.88 35.5c1.54-1.12 3.85 3.04 5.16-1.3a36.87 36.87 0 0 1 4.77 4.53c-1.61.32-3.34.38-3.8 3a60.6 60.6 0 0 1-6.13-6.22zm-17.6-1.83c-.31.38-.5.37-.97.34.09-5.37-1.25-10.81.83-16.27.19 5.04.23 10.3.14 15.93zm4.62-12.26c3.95-.35 5.04 2.67 6.12 6.1a67.69 67.69 0 0 1-6.12-6.1zm8.08 1.25c-2.4-.23-4.08-1.67-4.72-4.57a37.55 37.55 0 0 1 4.72 4.57zm-.88 6.64c1.48-.22 2.62.38 2.82 2.5-.9-.5-1.81-1.35-2.82-2.5zm4.63-2.58c-1.42.2-2.47-.44-2.7-2.4.85.47 1.72 1.3 2.7 2.4zm-10.5-11.3c-1.19.24-1.94-.43-2.21-2.03a8.42 8.42 0 0 1 2.2 2.02zm13.9 15.12c-.8.12-1.52-.26-1.8-1.55.54.2 1.13.74 1.8 1.55zm12.01 13c-.8.12-1.54-.24-1.82-1.56.54.2 1.12.75 1.82 1.56zm-2.81-2.98a3.93 3.93 0 0 1-1.25-1.23c.31.13.73.54 1.25 1.23zm2.28 9.96c.33.12.77.53 1.3 1.23-.33-.11-.76-.52-1.3-1.23zm-6.65-7.21c.17-.03.42.22.83.67-.15 0-.45-.2-.83-.67zm-17.73-26.76c-.19.03-.47-.21-.87-.7.17-.02.47.2.87.7zm13.9 15.08c-.19.04-.46-.2-.87-.67.17-.02.48.19.87.67zm16.81 18.14c-.17.03-.4-.2-.76-.64.12 0 .4.2.76.64zm-7.22-.34c.19-.02.48.25.95.77-.17.01-.5-.23-.95-.77zm-.94-1.04c.18-.03.47.24.93.75-.15.01-.49-.22-.93-.75zm-.99-1c.18-.03.48.23.98.7-.15.01-.5-.2-.98-.7zm-1.93-2.04c.17-.01.44.24.89.72-.15 0-.46-.22-.89-.72zm6.28-.72c-.17.03-.46-.22-.92-.7.14 0 .48.2.92.7zm-16.3-10.23c.18-.04.46.19.89.66-.17.02-.48-.19-.9-.67zm-8.63-16.84c-.18.04-.47-.2-.9-.66.17-.03.48.18.9.66zm13.87 15.11c-.18.03-.45-.2-.85-.67.16-.02.46.2.85.67zm8.2 8.9c-.19.03-.5-.23-.98-.74.16 0 .5.22.97.74zm-14.41-8.2c.19-.05.46.2.88.67-.17.02-.48-.19-.88-.68zm7.19.32c-.19.04-.45-.19-.86-.64.17-.02.47.17.86.64zm-21.08-15.36c.18-.04.44.17.83.6-.16.03-.46-.15-.83-.6zm16.29 10.2c-.2.02-.52-.26-1-.8.2-.02.53.23 1 .8zM163.57 35h31.1v1.37h-34.45c.54-1.8 1.92-1.13 3.35-1.37zM343.05 35h27.63v1.38H331.9c4.3-2.13 7.57-1.03 11.14-1.38zM339.16 7h31.52l-.01 1.42h-39.81c3.38-1.93 5.68-1.21 8.3-1.42z"/></svg>