<svg xmlns="http://www.w3.org/2000/svg" xml:space="preserve" viewBox="0 0 887 69"><path fill="#45f3ff" d="M728.86 26.865c2.047-5.148 4-9.921 5.926-14.704 1.82-4.517 1.808-4.522 7.136-3.733-6.442 16.303-12.853 32.527-19.267 48.75-.734 1.857-1.646 3.66-2.194 5.569-.701 2.445-2 3.362-4.643 3.374-2.609.01-3.36-1.323-4.16-3.328-5.67-14.226-11.417-28.422-17.157-42.62-.543-1.343-1.201-2.64-2.137-4.68-5.36 13.135-10.446 25.59-15.527 38.047-1.32 3.237-2.718 6.446-3.91 9.73-.717 1.969-1.737 2.855-3.981 2.823-2.27-.033-3.568-.545-4.467-2.857-6.938-17.843-14.024-35.628-21.045-53.439-.17-.433-.128-.951-.185-1.432 3.653-1.249 5.647-.361 7.118 3.547 5.74 15.252 11.891 30.35 17.902 45.536 1.993-1.466 2.863-3.514 3.715-5.622a9443.643 9443.643 0 0 1 16.177-39.756c.846-2.067 1.258-4.377 4.593-4.263 3.06.104 3.37 2.207 4.148 4.128 5.742 14.19 11.447 28.394 17.19 42.582.472 1.167.519 2.608 2.381 3.66a9851.279 9851.279 0 0 0 12.388-31.312z"/><path fill="#45f3ff" d="M14.01 42.641c4.639 12.693 16.637 19.813 31.157 18.827.83-.056 1.655-.188 2.483-.28 13.61-1.51 14.355-2.325 14.287-15.614-.01-1.833.059-3.667.011-5.498-.048-1.871.215-3.198 2.65-3.17 2.136.024 3.022.775 3.003 2.901a802.64 802.64 0 0 0 .011 16.997c.026 2.053-1.354 2.872-2.766 3.786-13.45 8.705-36.338 7.018-48.355-3.572C3.786 45.822 4.375 26.392 17.732 16.032c12.44-9.647 33.366-11.012 46.205-2.897 1.3.821 4.04 1.338 2.748 3.778-1.35 2.548-3.168 1.544-5.35.34-12.389-6.83-24.94-6.589-37.048.544C15.45 23.002 11.955 32.024 14.01 42.64z"/><path fill="#45f3ff" d="M513.706 41.247c6.937 6.996 5.925 15.906-2.05 20.821-9.93 6.12-31.234 5.086-40.68-1.922-1.313-.975-2.358-1.676-1.15-3.56 1.182-1.84 2.227-1.333 3.653-.459 8.634 5.29 17.995 6.672 27.844 4.8 2.25-.427 4.559-1.184 6.527-2.329 6.498-3.776 6.285-11.564-.336-15.144-4.609-2.492-9.78-3.183-14.796-4.357-4.532-1.061-9.146-1.847-13.433-3.769-4.846-2.172-8.424-5.368-8.697-11.127-.286-6.033 2.572-10.397 7.808-12.828 11.597-5.384 23.265-4.48 34.798.477 1.522.655 2.493 1.42 1.445 3.39-1.092 2.055-2.335 1.218-3.685.62-7.68-3.407-15.627-4.45-23.901-2.776-2.316.47-4.497 1.255-6.439 2.597-5.982 4.135-5.694 11.445.645 15.038 4.269 2.42 9.112 3.067 13.804 4.172 6.302 1.484 12.783 2.45 18.643 6.356z"/><path fill="#45f3ff" d="M259.46 43.163c2.735-.916 5.19-1.41 7.516-2.255 6.36-2.311 9.838-7.302 9.699-13.628-.137-6.237-3.525-10.809-9.765-13.067-6.75-2.442-13.794-1.832-20.766-1.903-4.328-.043-8.656-.007-12.984-.001-1.621.002-3.01-.17-2.937-2.369.063-1.92 1.314-2.084 2.715-2.033 10.792.396 21.655-1.086 32.375 1.04 9.767 1.937 15.987 7.9 16.913 15.92 1.086 9.404-2.467 15.581-11.857 19.562-2.927 1.241-3.206 2.064-1.12 4.316 2.482 2.681 4.727 5.583 7.052 8.408 2.194 2.667 4.357 5.359 6.717 8.265-4.226 1.584-6.771.068-9.105-2.99-3.329-4.36-7.1-8.383-10.446-12.731-1.467-1.907-2.982-2.79-5.403-2.73-6.321.158-12.65.195-18.972.078-2.45-.046-3.155.86-3.083 3.187.134 4.323-.052 8.654.051 12.979.05 2.09-.568 3.036-2.813 2.94-1.945-.085-3.154-.462-3.107-2.778.119-5.824.097-11.65.238-17.935 1.528-2.395 3.622-1.91 5.548-1.928 7.732-.072 15.464.087 23.534-.347z"/><path fill="#45f3ff" d="M603.449 11.264c2.793-4.26 6.658-4.796 8.604-1.219 9.999 18.374 19.849 36.828 29.82 55.382-4.387 1.756-6.419-.02-8.289-3.643-8.152-15.796-16.578-31.451-24.992-47.323-2.282.852-2.677 2.993-3.536 4.598-7.682 14.356-15.372 28.711-22.79 43.205-1.769 3.457-3.792 4.776-7.976 3.261a43966.08 43966.08 0 0 1 29.159-54.261z"/><path fill="#45f3ff" d="M102.841 29.886C96.98 40.937 91.12 51.576 85.685 62.428c-1.794 3.581-3.965 4.417-7.913 3.129 6.335-11.81 12.604-23.506 18.88-35.196 3.541-6.595 7.038-13.214 10.667-19.76 2.163-3.903 6.35-4.017 8.429-.182 9.673 17.843 19.257 35.734 28.857 53.616.22.41.253.918.399 1.478-3.892 1.518-5.976.05-7.79-3.463-7.555-14.632-15.36-29.135-23.097-43.673-.76-1.426-1.168-3.104-2.955-4.3-2.74 5.202-5.446 10.341-8.32 15.81z"/><path fill="#45f3ff" d="M196.593 9.412c11.215 2.613 15.795 10.235 11.894 18.769-1.65 3.608-5.12 5.053-8.3 7.365 7.475 2.297 12.909 6.061 13.048 14.489.095 5.72-2.327 9.963-7.355 12.64-4.193 2.232-8.764 3.243-13.465 3.297-10.33.116-20.664.078-30.995-.005-1.403-.01-3.631 1.016-3.81-1.78-.203-3.14 2.247-2.315 3.85-2.328 8.832-.072 17.664-.01 26.496-.023 4.011-.006 7.991-.327 11.8-1.715 5.582-2.035 7.63-4.86 7.584-10.361-.043-5.267-2.395-8.327-7.945-10.138-4.329-1.413-8.825-1.61-13.336-1.61-8.333.001-16.665.018-24.997-.023-1.53-.008-3.585.62-3.473-2.173.097-2.447 1.987-1.853 3.31-1.865 7.665-.068 15.331-.034 22.997-.031 3.503.001 6.984-.112 10.422-.962 4.836-1.195 8.872-3.285 9.503-8.827.634-5.57-2.611-8.62-7.65-10.696-1.102-1.514-1.36-2.749.422-4.023z"/><path fill="#45f3ff" d="M552.531 64.455c-5.098 2.639-5.713 2.302-5.721-2.89-.024-14.82-.119-29.64.065-44.457.045-3.589-.713-5.108-4.64-4.87-5.475.333-10.985.094-16.48.062-1.43-.008-3.077.38-3.204-2.006-.146-2.728 1.745-2.367 3.327-2.369 15.984-.02 31.967-.002 47.951-.001 1.531 0 3.048-.173 3.032 2.154-.015 2.261-1.476 2.23-3.034 2.23-5.495-.003-11.003.226-16.48-.078-3.802-.212-4.836 1.16-4.8 4.818.151 15.65.047 31.303-.016 47.407z"/><path fill="#45f3ff" d="M856.272 62.817c.382 3.262-1.414 3.21-3.39 3.267-2.214.064-2.41-1.234-2.367-2.875.009-.333-.054-.675.002-.999 2.044-11.938-2.564-21.462-10.068-30.43-6.045-7.222-11.089-15.281-16.743-23.202 3.926-1.506 6.155-.398 8.246 2.642 6.32 9.19 13.008 18.127 19.352 27.301 1.809 2.616 2.72 2.461 4.443.003 6.406-9.137 13.088-18.081 19.411-27.273 1.996-2.901 4.147-4.06 8.065-2.848-3.356 4.72-6.604 9.287-9.85 13.856-2.508 3.53-4.66 7.394-7.591 10.528-7.884 8.428-11.27 18.113-9.51 30.03z"/><path fill="#45f3ff" d="M786.092 43.195c-.552-.205-.812-.374-1.063-.887-1.294-3.43-.015-4.41 3.498-3.53.418.247.472.227.46.253.512.44.496 1.137 1.144 1.725.3.082.015.123-.003-.02.046.313.256.688.94 1.056.326.075.154.03.18-.056.14.82.878 1.267 1.723 1.964.284.12.118.179.09.095.105.299.331.613.92.989 1.456 1.272 2.643 2.417 3.937 3.855.324.54.535.792.923 1.214a739.167 739.167 0 0 1 5.535 6.551l1.486-.79v-6.732c-.002-12.488-.002-24.977-.01-37.465 0-1.845-.296-3.601 2.633-3.62 2.898-.019 3.19 1.413 3.183 3.717-.049 16.817-.004 33.634-.056 50.452-.004 1.357.828 3.359-1.11 3.899-1.876.522-3.8.446-5.4-1.439-3.443-4.056-7.143-7.896-10.914-12.104-.653-.759-.67-1.466-1.356-2.05-.321-.05-.042-.103-.018.037.013-.33-.166-.72-.871-1.09-.33-.079-.066-.099-.058.033-.055-.31-.267-.667-.913-1.054-.306-.102-.046-.145-.026-.014-.113-.275-.35-.605-.987-.966-.593-.12-.815-.258-1-.718-.173-.575-.38-.9-.943-1.292-.586-.153-.82-.309-1.018-.81-.22-.525-.432-.805-.906-1.203z"/><path fill="#45f3ff" d="M437.605 62.213c1.042 2.878.163 3.857-2.593 3.833a2423.533 2423.533 0 0 0-38.473-.008c-2.337.018-2.727-.985-2.721-2.972.047-17.324.061-34.648-.01-51.972-.009-2.334.676-3.238 3.111-3.211 2.543.028 2.5 1.51 2.499 3.274-.015 14.659-.01 29.318-.005 43.977.002 6.57.01 6.556 6.354 6.587 10.49.052 20.981.124 31.838.492z"/><path fill="#45f3ff" d="M305.878 36c-.023 9.143-.09 17.785-.035 26.427.015 2.297-.226 3.708-3.155 3.688-2.812-.02-2.763-1.51-2.76-3.477.027-16.954.017-33.908.012-50.862 0-1.992-.381-3.916 2.825-3.97 3.534-.058 3.045 2.095 3.046 4.26.005 7.81.043 15.623.067 23.934z"/><path fill="#45f3ff" d="M773.813 22.786c.636.22.9.397 1.134.95.76 1.196 1.175 2.412 2.658 3.066.219.208.5.34.507.495.055.634.256 1.04.934 1.453.344.07.214.045.23-.019.12.832.85 1.271 1.68 1.964.276.126.173.136.17.084.081.329.271.646.83 1.012.261.114.126.11.13.043.116.29.318.588.838.97.241.133.135.133.136.08.151.271.362.55.851.93.226.138.157.135.167.102.595 1.193 1.07 2.514-.424 3.35-1.897 1.063-2.882-.778-4.54-1.824-.36-.247-.25-.26-.246-.205-.077-.337-.265-.667-.853-1.018-.278-.095-.123-.1-.122-.022-.086-.306-.292-.612-.856-.981-.582-.173-.825-.34-1.042-.85-.619-1.364-1.18-2.508-2.756-3.164-.508-.414-.77-.629-1.11-1.093-1.882-2.485-3.078-5.25-6.042-6.88-.862-.608-1.416-1.078-2.059-1.811-.252-.56-.462-.823-.92-1.198-.486-.203-.767-.258-1.434-.497-1.11 5.418-.106 11.097-1.153 17.143-.026 9.29.006 18.123-.044 26.956-.009 1.529.595 3.675-2.108 3.59-2.308-.07-1.849-1.952-1.851-3.354-.028-16.666.04-33.333-.072-49.998-.02-2.93.998-3.977 4.233-3.304a36.829 36.829 0 0 1 4.192 3.995c.881 1.015 1.013 2.17 2.163 2.89.307.052.203.071.198.019-.038.391.132.744.781 1.089.307.07.148.071.15-.008.044.34.228.684.853 1.017.298.067.208.064.213.02.675 2.252 2.52 3.513 4.584 5.008z"/><path fill="#45f3ff" d="M365.912 65.736c-10.968 0-21.45.071-31.93-.068-1.799-.024-4.828 1.433-4.998-2.188-.177-3.747 2.916-2.436 4.723-2.452 12.31-.11 24.622-.08 36.933-.034 1.812.007 4.353-.861 4.285 2.476-.06 2.97-2.37 2.136-4.035 2.247-1.49.1-2.993.02-4.978.019z"/><path fill="#45f3ff" d="M339.046 38c-2.656-.002-4.82.001-6.985-.007-1.509-.005-3.06.184-3.05-2.152.01-2.378 1.665-2.094 3.106-2.1 7.326-.032 14.652-.02 21.978-.02 5.827 0 11.655-.018 17.482.027 1.411.01 3.186-.39 3.316 1.929.147 2.642-1.745 2.318-3.388 2.32-10.656.006-21.312.003-32.46.003z"/><path fill="#45f3ff" d="M360.99 5.92c3.163.001 5.863-.256 8.48.094 1.874.25 5.452-1.886 5.244 2.187-.187 3.668-3.605 1.959-5.538 2.003-8.49.192-16.986.082-25.48.083-3.331 0-6.672.16-9.989-.06-1.66-.11-4.465 1.348-4.578-2.034-.116-3.453 2.732-2.185 4.384-2.208 8.992-.122 17.986-.062 27.478-.066z"/><path fill="#45f3ff" d="M196.604 9.085c.037 1.246-.29 2.338-.648 3.774-11.422-1.601-22.916-.282-34.353-.748-1.589-.064-4.034.97-4.01-2.134.024-3.15 2.514-2.007 4.055-2.022 8.474-.08 16.95-.015 25.882.107.227 2.853-1.935 1.854-3.332 1.889-5.06.124-10.125.048-15.188.05 5.123-.001 10.245.022 15.366-.013 1.776-.013 3.697.405 5.322-1.516 2.353-.003 4.447.228 6.906.613z"/><path fill="#45f3ff" d="M760.89 8.607c-2.688.25-3.911 1.635-3.9 4.584.058 15.953.01 31.907.048 47.861.003 1.222-.289 3.175 1.547 3.07 1.706-.1 1.37-2.023 1.377-3.273.054-8.64.044-17.283.061-26.394.202-.58.398-.692.863-.598.362 9.817.4 19.43.587 29.04.045 2.357-.781 3.207-3.116 3.238-2.469.033-2.534-1.376-2.531-3.187.024-17.252.088-34.505-.044-51.756-.033-4.263 2.375-3.415 5.108-2.585z"/><path fill="#45f3ff" d="M189.633 8.16c.172 1.87-.84 2.775-2.6 2.779-8.566.016-17.133.007-25.721-.705 8.555-2.134 17.354-.39 26.307-1.884.809-.21 1.25-.238 2.014-.19z"/><path fill="#45f3ff" d="M259.347 42.838c-.753 2.24-2.792 1.013-4.407 1.116-7.893.504-15.85-.775-24.085.917-.523-3.15 2.003-1.923 3.432-1.948 8.202-.147 16.406-.117 25.06-.085z"/><path fill="#45f3ff" d="M778.878 35.505c1.546-1.123 3.854 3.035 5.162-1.302 1.58 1.196 3.11 2.712 4.773 4.525-1.617.32-3.344.38-3.798 2.994-2.04-1.73-4.026-3.818-6.137-6.217zM761.283 33.67c-.315.38-.503.368-.972.336.089-5.364-1.249-10.809.827-16.263.19 5.042.232 10.289.145 15.927zM765.901 21.406c3.947-.346 5.04 2.67 6.115 6.095-1.975-1.688-3.985-3.735-6.115-6.095zM773.98 22.656c-2.405-.227-4.078-1.663-4.724-4.57 1.522 1.184 3.067 2.722 4.725 4.57zM773.095 29.302c1.48-.22 2.627.375 2.82 2.489-.892-.493-1.805-1.342-2.82-2.49zM777.725 26.724c-1.416.195-2.464-.442-2.692-2.411.848.482 1.72 1.303 2.692 2.41zM767.226 15.412c-1.182.245-1.938-.419-2.206-2.026.672.357 1.382 1.052 2.206 2.026zM781.135 30.538c-.805.126-1.527-.254-1.804-1.55.543.208 1.125.738 1.804 1.55zM793.14 43.542c-.795.12-1.543-.24-1.82-1.566.538.212 1.121.75 1.82 1.566zM790.328 40.556c-.31-.129-.723-.54-1.244-1.224.308.131.724.537 1.244 1.224zM792.615 50.524c.33.113.762.528 1.296 1.23-.33-.117-.76-.523-1.296-1.23zM785.959 43.31c.168-.026.42.216.83.667-.145.006-.446-.198-.83-.668zM768.226 16.546c-.185.033-.463-.206-.87-.692.173-.024.474.198.87.692zM782.132 31.632c-.187.037-.46-.2-.87-.67.17-.025.477.186.87.67zM798.941 49.77c-.166.033-.398-.2-.764-.644.126.004.404.2.764.645zM791.724 49.435c.183-.024.476.246.942.765-.162.01-.496-.23-.942-.765zM790.776 48.39c.18-.025.47.244.938.754-.157.006-.492-.227-.938-.755zM789.792 47.396c.175-.033.477.219.976.694-.151.013-.5-.199-.976-.694zM787.862 45.354c.165-.018.441.238.886.72-.146.002-.46-.223-.886-.72zM794.138 44.632c-.172.028-.456-.224-.922-.698.148-.009.48.205.922.698zM777.835 34.395c.185-.04.468.192.894.66-.17.029-.483-.18-.894-.66zM769.209 17.557c-.183.04-.472-.188-.902-.655.171-.03.484.178.902.655zM783.076 32.67c-.179.032-.447-.203-.85-.67.162-.021.461.191.85.67zM791.274 41.573c-.184.03-.489-.233-.979-.739.163-.013.51.215.979.739zM776.868 33.362c.19-.038.465.2.882.676-.17.025-.483-.187-.882-.676zM784.056 33.685c-.184.042-.45-.184-.855-.632.165-.026.47.17.855.632zM762.98 18.33c.18-.042.438.174.829.607-.163.028-.457-.161-.83-.608zM779.266 28.521c-.194.027-.512-.247-.988-.794.183-.018.524.238.988.794z"/><path fill="#45f3ff" d="M163.57 34.999c10.652-.004 20.879-.004 31.106-.004v1.374H160.22c.54-1.796 1.923-1.132 3.35-1.37z"/><path fill="#45f3ff" d="M343.05 34.997h27.626l-.003 1.381h-38.766c4.295-2.132 7.571-1.029 11.143-1.381z"/><path fill="#45f3ff" d="M339.161 6.999h31.516l-.01 1.426h-39.809c3.377-1.93 5.686-1.216 8.303-1.426z"/></svg>
